<svg width="98" height="24" viewBox="0 0 98 24" fill="none" xmlns="http://www.w3.org/2000/svg">
<g id="Paths">
<path id="Vector" d="M86.1708 23.9345C79.6506 23.9345 74.3447 18.5674 74.3447 11.9689C74.3447 9.75024 74.9486 7.5841 76.0921 5.70457C76.5003 5.0322 77.3743 4.81961 78.0477 5.22769C78.7172 5.63677 78.9315 6.5124 78.5231 7.1835C77.6503 8.61794 77.1896 10.2715 77.1896 11.9689C77.1896 16.9966 81.2174 21.0883 86.1708 21.0883C91.1242 21.0883 95.1556 16.9966 95.1556 11.9689C95.1556 6.94125 91.124 2.84614 86.1708 2.84614C84.7234 2.84741 83.3431 3.18529 82.068 3.85244C81.3704 4.218 80.512 3.9451 80.1493 3.249C79.7851 2.55261 80.055 1.6928 80.7508 1.32822C82.4119 0.460914 84.2869 0.00127129 86.1697 0C92.6937 0 98.0001 5.36838 98.0001 11.9689C98.0001 18.5695 92.6937 23.9345 86.1708 23.9345Z" fill="#E51236"/>
<path id="Vector_2" d="M68.5436 11.8418H62.7819C61.9969 11.8418 61.3594 12.4783 61.3594 13.2652C61.3594 14.0521 61.9969 14.6881 62.7819 14.6881H67.1206V21.8789C67.1206 22.6651 67.7568 23.3025 68.5435 23.3025C69.3301 23.3025 69.966 22.6651 69.966 21.8789V13.2652C69.966 12.4783 69.3281 11.8418 68.5435 11.8418" fill="#E51236"/>
<path id="Vector_3" d="M61.5071 23.9995C54.9839 23.9995 49.6782 18.631 49.6782 12.0303C49.6782 5.42959 54.9838 0.0644531 61.5071 0.0644531C64.0753 0.0644531 66.519 0.884295 68.5747 2.43668C69.2009 2.90974 69.3244 3.80318 68.853 4.42979C68.38 5.05681 67.4883 5.18281 66.8602 4.7082C65.302 3.53254 63.4516 2.91073 61.5073 2.91073C56.5538 2.91073 52.5224 7.00217 52.5224 12.0303C52.5224 17.0584 56.5538 21.1535 61.5073 21.1535C62.1337 21.1535 62.7657 21.0865 63.3823 20.9545C64.155 20.7833 64.9074 21.2792 65.0715 22.0483C65.2355 22.817 64.7466 23.5726 63.9768 23.7373C63.1658 23.9116 62.3336 23.9995 61.5073 23.9995" fill="#E51236"/>
<path id="Vector_4" d="M44.3968 23.2829C44.0329 23.2829 43.6686 23.1442 43.3912 22.866L39.1057 18.5754C38.5517 18.0199 38.5517 17.1175 39.1077 16.5637C39.6631 16.0074 40.5631 16.0074 41.1185 16.5637L45.4038 20.8536C45.9578 21.4097 45.9578 22.312 45.4022 22.866C45.1242 23.1442 44.7608 23.2829 44.3968 23.2829Z" fill="#E51236"/>
<path id="Vector_5" d="M38.6292 0.689453H28.4949C27.9041 0.689453 27.3984 1.04852 27.1832 1.56057C27.106 1.73657 27.0615 1.92981 27.0615 2.13364V21.8194C27.0615 22.6061 27.6975 23.2429 28.4839 23.2429C29.2703 23.2429 29.9062 22.6061 29.9062 21.8194V3.5363H38.6292C41.0139 3.5363 42.9548 5.47714 42.9548 7.8649C42.9548 10.2527 41.0139 12.1941 38.6292 12.1941H33.6483C32.8619 12.1941 32.2257 12.8307 32.2257 13.6174C32.2257 14.404 32.8619 15.0406 33.6483 15.0406H38.6292C42.5821 15.0406 45.7996 11.8213 45.7996 7.8649C45.7996 3.9085 42.5821 0.689453 38.6292 0.689453Z" fill="#E51236"/>
<path id="Vector_6" d="M11.5414 23.2405C10.7559 23.2405 10.1191 22.6037 10.1191 21.8172V13.3171C10.1191 12.5313 10.7559 11.8945 11.5414 11.8945C12.3269 11.8945 12.9642 12.5313 12.9642 13.3171V21.8172C12.9642 22.6037 12.3271 23.2405 11.5414 23.2405Z" fill="#E51236"/>
<path id="Vector_7" d="M14.5131 9.6258C14.1055 9.6258 13.7007 9.45079 13.4198 9.11361C12.9165 8.50834 12.9995 7.61222 13.6029 7.10893L20.8938 1.03879C21.4971 0.535646 22.3935 0.617009 22.8961 1.22257C23.3992 1.82657 23.3168 2.72297 22.7129 3.22542L15.4226 9.29696C15.1566 9.5176 14.8343 9.6258 14.5131 9.6258Z" fill="#E51236"/>
<path id="Vector_8" d="M8.71715 9.62725C8.3961 9.62725 8.07407 9.51905 7.80823 9.29841L0.512763 3.22686C-0.090922 2.72583 -0.173512 1.82788 0.328665 1.22401C0.8307 0.62001 1.72832 0.537093 2.33215 1.04024L9.62762 7.11038C10.2309 7.61225 10.3139 8.50979 9.81172 9.11506C9.5302 9.45224 9.12488 9.62725 8.71715 9.62725Z" fill="#E51236"/>
</g>
</svg>
