<svg width="24" height="24" viewBox="0 0 24 24" fill="none" xmlns="http://www.w3.org/2000/svg">
<g id="software-icon/adobe-ae">
<g clip-path="url(#clip0_557_15500)">
<path id="Base" d="M24 0H0V24H24V0Z" fill="#00005B"/>
<g id="Path">
<path fill-rule="evenodd" clip-rule="evenodd" d="M6.38559 14.3298H10.0232V14.2807L10.825 16.6355C10.8446 16.7042 10.913 16.7533 10.9815 16.7435H13.0252C13.123 16.7435 13.1523 16.6944 13.123 16.5865L9.55381 6.57849C9.54403 6.52944 9.49514 6.5 9.42669 6.5H6.89407C6.84517 6.50981 6.80606 6.55887 6.81584 6.60793C6.81584 6.82379 6.79628 7.03965 6.75717 7.24569C6.71806 7.36342 6.68872 7.45175 6.65938 7.54986L3.51071 16.6061C3.48138 16.7238 3.51071 16.7827 3.61828 16.7827H5.45663C5.54464 16.7925 5.62286 16.7336 5.64242 16.6453L6.38559 14.3298ZM9.43647 12.3772H6.95274C7.09941 11.9651 7.25587 11.504 7.38299 11.0036C7.47985 10.6999 7.57297 10.3961 7.66466 10.0971C7.72107 9.91306 7.77693 9.73083 7.8328 9.55145C7.9697 9.12955 8.07726 8.70764 8.16527 8.28574H8.18482C8.22298 8.417 8.26114 8.55437 8.30099 8.69783C8.33263 8.81173 8.36533 8.92947 8.39995 9.05105C8.47818 9.33559 8.56619 9.62013 8.66397 9.9243C8.71286 10.0764 8.75931 10.226 8.80575 10.3756C8.8522 10.5253 8.89865 10.6749 8.94755 10.827C9.03555 11.1213 9.12356 11.4059 9.21157 11.6708C9.29957 11.9259 9.3778 12.1712 9.43647 12.3772Z" fill="#9999FF"/>
<path fill-rule="evenodd" clip-rule="evenodd" d="M15.7828 13.4467H18.8825C19.0136 13.4467 19.1394 13.4571 19.2613 13.4672C19.3761 13.4767 19.4874 13.4859 19.5964 13.4859C19.8213 13.4859 20.0071 13.4761 20.1635 13.4565C20.2184 13.453 20.2673 13.4496 20.3102 13.4466C20.3895 13.441 20.4481 13.4369 20.4862 13.4369C20.5547 13.4369 20.6133 13.378 20.6231 13.3093C20.6275 13.27 20.6318 13.2209 20.637 13.1621C20.6435 13.0889 20.6514 13.0006 20.6622 12.8972C20.672 12.7108 20.6818 12.5047 20.6818 12.2693C20.6818 11.867 20.6231 11.4647 20.496 11.0722C20.3689 10.6601 20.1635 10.2873 19.9093 9.9537C19.6355 9.61029 19.2835 9.34537 18.8825 9.16876C18.4034 8.9529 17.8851 8.85478 17.3669 8.86459C16.7411 8.86459 16.1935 8.94309 15.7339 9.16876C15.2743 9.39443 14.8734 9.7084 14.5507 10.1009C14.2182 10.5032 13.9737 10.9545 13.8173 11.4451C13.6511 11.9553 13.5728 12.4753 13.5728 13.0051C13.5728 13.4957 13.6413 13.9765 13.7782 14.4377C13.9151 14.9086 14.14 15.3403 14.4529 15.723C14.7854 16.1253 15.2058 16.4491 15.685 16.6551C16.1935 16.8808 16.8193 16.9985 17.5624 16.9985C18.0318 17.0083 18.4914 16.9691 18.951 16.8808C19.2932 16.8219 19.6159 16.7238 19.9288 16.5864C19.9582 16.5668 19.9777 16.5472 19.9973 16.5177C20.0071 16.4785 20.0168 16.4392 20.0168 16.4V14.8988C20.0168 14.8007 19.9875 14.7811 19.9386 14.8203C19.6648 14.9282 19.3715 15.0067 19.0683 15.046C18.7359 15.1147 18.3936 15.1441 18.0514 15.1539C17.6211 15.1637 17.1909 15.0754 16.7997 14.9086C16.5064 14.7909 16.2619 14.5848 16.0859 14.3199C15.9197 14.055 15.8219 13.7508 15.7828 13.4467ZM17.846 12.0142H15.7828C15.8121 11.7689 15.8806 11.5334 15.9979 11.3077C16.2521 10.8171 16.7606 10.5326 17.2984 10.562C17.8754 10.5424 18.3936 10.9152 18.5696 11.4647C18.6087 11.5824 18.6283 11.7002 18.6283 11.8277V11.9259C18.5599 11.9749 18.4816 11.9945 18.4034 12.0043C18.2861 12.0142 18.1003 12.0142 17.846 12.0142Z" fill="#9999FF"/>
</g>
</g>
</g>
<defs>
<clipPath id="clip0_557_15500">
<path d="M0 12C0 5.37258 5.37258 0 12 0C18.6274 0 24 5.37258 24 12C24 18.6274 18.6274 24 12 24C5.37258 24 0 18.6274 0 12Z" fill="white"/>
</clipPath>
</defs>
</svg>
