<svg width="24" height="24" viewBox="0 0 24 24" fill="none" xmlns="http://www.w3.org/2000/svg">
<g clip-path="url(#clip0_557_15483)">
<path d="M24 0H0V24H24V0Z" fill="white"/>
<path d="M16.6572 12.6232C16.6832 13.0868 16.4949 13.5173 16.1642 13.8359C15.8277 14.1606 15.3477 14.3645 14.8109 14.3645C14.2743 14.3645 13.7942 14.1606 13.4576 13.8359C13.1271 13.5173 12.9391 13.0868 12.965 12.6235C12.9904 12.1732 13.2138 11.7757 13.5503 11.4942C13.8812 11.2174 14.3255 11.0486 14.8109 11.0486C15.2963 11.0486 15.7405 11.2175 16.0714 11.4942C16.4081 11.7757 16.6316 12.1729 16.6572 12.6232Z" fill="#005385"/>
<path d="M19.9558 12.6824C19.8678 12.0734 19.6534 11.496 19.3181 10.9662C19.0258 10.5039 18.6507 10.0927 18.203 9.74316L18.2042 9.74206L13.5019 6.19084C13.4985 6.1879 13.495 6.18514 13.4913 6.18256C13.335 6.0648 13.1233 6 12.8956 6C12.6675 6 12.4475 6.06494 12.2766 6.18293C12.0927 6.30921 11.9876 6.47675 11.9803 6.65509C11.9736 6.82149 12.0543 6.98159 12.2082 7.10639C12.5108 7.34119 12.8128 7.58109 13.1151 7.82129C13.4086 8.0545 13.711 8.29466 14.0119 8.52848L8.25237 8.52464C7.59371 8.52464 7.14522 8.82877 7.05297 9.33793C7.01243 9.56095 7.08396 9.80617 7.24388 9.99398C7.41354 10.1931 7.65987 10.3029 7.93747 10.3029L8.37653 10.3032C8.98309 10.3032 9.59232 10.3017 10.2007 10.3003L10.7809 10.2989L5.55369 14.1015L5.53294 14.1165C5.24096 14.3365 5.04981 14.645 5.00857 14.9628C4.97731 15.2036 5.03443 15.4236 5.17383 15.5993C5.33997 15.8088 5.59936 15.924 5.90429 15.924C6.20384 15.924 6.50949 15.8124 6.76533 15.6092L9.58812 13.3377C9.57606 13.4486 9.56141 13.6114 9.56308 13.7295C9.56625 13.9165 9.62731 14.2917 9.72397 14.5963C9.92369 15.2223 10.2601 15.7951 10.7238 16.2981C11.2063 16.8215 11.794 17.2364 12.4703 17.5312C13.1854 17.8422 13.9541 18 14.7551 18H14.7625C15.5661 17.9981 16.3372 17.8377 17.0546 17.5232C17.732 17.225 18.3194 16.8083 18.8001 16.2851C19.2632 15.7795 19.5992 15.2058 19.7985 14.5802C19.8971 14.2706 19.9603 13.9511 19.9869 13.6277C20.0115 13.3151 20.0009 12.997 19.9558 12.6824ZM14.8136 15.6829C13.0483 15.6829 11.6168 14.4237 11.6168 12.8703C11.6168 11.3171 13.0483 10.0579 14.8136 10.0579C16.579 10.0579 18.0104 11.3171 18.0104 12.8703C18.0105 14.4237 16.579 15.6829 14.8136 15.6829Z" fill="#FF7021"/>
</g>
<defs>
<clipPath id="clip0_557_15483">
<path d="M0 12C0 5.37258 5.37258 0 12 0C18.6274 0 24 5.37258 24 12C24 18.6274 18.6274 24 12 24C5.37258 24 0 18.6274 0 12Z" fill="white"/>
</clipPath>
</defs>
</svg>
