<svg width="24" height="24" viewBox="0 0 24 24" fill="none" xmlns="http://www.w3.org/2000/svg">
<g clip-path="url(#clip0_557_15493)">
<path d="M24 0H0V24H24V0Z" fill="#4FFD7A"/>
<path fill-rule="evenodd" clip-rule="evenodd" d="M14.9846 6.73422C15.0267 6.70989 15.0786 6.70989 15.1207 6.73421L18.093 8.45019C18.1351 8.47451 18.1611 8.51946 18.1611 8.56811C18.1611 8.61676 18.1351 8.66171 18.093 8.68603L15.1207 10.4019C15.0786 10.4262 15.0267 10.4262 14.9846 10.4019C14.9425 10.3776 14.9165 10.3326 14.9165 10.284V6.85213C14.9165 6.80349 14.9425 6.75854 14.9846 6.73422ZM15.1888 7.08797V10.0481L17.7526 8.5681L15.1888 7.08797Z" fill="#030404"/>
<path fill-rule="evenodd" clip-rule="evenodd" d="M15.1207 6.73421C15.1628 6.75854 15.1888 6.80349 15.1888 6.85213V10.2841C15.1888 10.3327 15.1628 10.3777 15.1207 10.402C15.0786 10.4263 15.0267 10.4263 14.9845 10.402L12.0124 8.68603C11.9703 8.6617 11.9443 8.61675 11.9443 8.56811C11.9443 8.51946 11.9703 8.47451 12.0124 8.45019L14.9845 6.73422C15.0267 6.70989 15.0786 6.70989 15.1207 6.73421ZM12.3528 8.56811L14.9165 10.0482V7.08798L12.3528 8.56811Z" fill="#030404"/>
<path fill-rule="evenodd" clip-rule="evenodd" d="M12.0124 5.01824C12.0545 4.99392 12.1065 4.99392 12.1486 5.01824L15.1207 6.73422C15.1628 6.75854 15.1888 6.80349 15.1888 6.85214C15.1888 6.90078 15.1628 6.94573 15.1207 6.97005L12.1486 8.68603C12.1065 8.71035 12.0545 8.71035 12.0124 8.68603C11.9703 8.66171 11.9443 8.61675 11.9443 8.56811V5.13616C11.9443 5.08752 11.9703 5.04256 12.0124 5.01824ZM12.2167 5.372V8.33227L14.7803 6.85214L12.2167 5.372Z" fill="#030404"/>
<path fill-rule="evenodd" clip-rule="evenodd" d="M12.1485 5.01824C12.1907 5.04256 12.2166 5.08752 12.2166 5.13616V8.56811C12.2166 8.61675 12.1907 8.66171 12.1485 8.68603C12.1064 8.71035 12.0545 8.71035 12.0124 8.68603L9.04025 6.97005C8.99812 6.94573 8.97217 6.90078 8.97217 6.85214C8.97217 6.80349 8.99812 6.75854 9.04025 6.73422L12.0124 5.01824C12.0545 4.99392 12.1064 4.99392 12.1485 5.01824ZM9.38065 6.85214L11.9443 8.33227V5.372L9.38065 6.85214Z" fill="#030404"/>
<path fill-rule="evenodd" clip-rule="evenodd" d="M9.04025 6.73421C9.08238 6.70989 9.13428 6.70989 9.17641 6.73422L12.1485 8.45019C12.1907 8.47451 12.2166 8.51946 12.2166 8.56811C12.2166 8.61676 12.1907 8.66171 12.1485 8.68603L9.17641 10.4019C9.13428 10.4262 9.08238 10.4262 9.04025 10.4019C8.99812 10.3776 8.97217 10.3326 8.97217 10.284V6.85213C8.97217 6.80349 8.99812 6.75854 9.04025 6.73421ZM9.24449 7.08798V10.0481L11.8081 8.5681L9.24449 7.08798Z" fill="#030404"/>
<path fill-rule="evenodd" clip-rule="evenodd" d="M9.17648 6.73422C9.21861 6.75854 9.24456 6.80349 9.24456 6.85213V10.2841C9.24456 10.3327 9.21861 10.3777 9.17648 10.402C9.13435 10.4263 9.08244 10.4263 9.04032 10.402L6.06808 8.68603C6.02595 8.66171 6 8.61675 6 8.56811C6 8.51946 6.02595 8.47451 6.06808 8.45019L9.04032 6.73421C9.08244 6.70989 9.13435 6.70989 9.17648 6.73422ZM6.40849 8.56811L8.97223 10.0482V7.08797L6.40849 8.56811Z" fill="#030404"/>
<path fill-rule="evenodd" clip-rule="evenodd" d="M6.06808 8.45019C6.11021 8.42587 6.16211 8.42586 6.20424 8.45019L9.17647 10.166C9.2186 10.1904 9.24456 10.2353 9.24456 10.284C9.24456 10.3326 9.21861 10.3776 9.17648 10.4019L6.20424 12.118C6.16212 12.1423 6.11021 12.1423 6.06808 12.118C6.02595 12.0937 6 12.0487 6 12.0001V8.56811C6 8.51946 6.02595 8.47451 6.06808 8.45019ZM6.27232 8.80394V11.7642L8.83607 10.284L6.27232 8.80394Z" fill="#030404"/>
<path fill-rule="evenodd" clip-rule="evenodd" d="M9.17648 10.1662C9.21861 10.1905 9.24456 10.2354 9.24456 10.2841V13.716C9.24456 13.7647 9.21861 13.8096 9.17648 13.834C9.13435 13.8583 9.08244 13.8583 9.04032 13.834L6.06808 12.118C6.02595 12.0937 6 12.0487 6 12.0001C6 11.9514 6.02595 11.9065 6.06808 11.8821L9.04032 10.1662C9.08244 10.1418 9.13435 10.1418 9.17648 10.1662ZM6.40849 12.0001L8.97223 13.4802V10.5199L6.40849 12.0001Z" fill="#030404"/>
<path fill-rule="evenodd" clip-rule="evenodd" d="M6.06808 11.8821C6.11021 11.8578 6.16211 11.8578 6.20424 11.8821L9.17648 13.5981C9.2186 13.6224 9.24456 13.6674 9.24456 13.716C9.24456 13.7647 9.2186 13.8096 9.17648 13.8339L6.20424 15.5499C6.16211 15.5742 6.11021 15.5742 6.06808 15.5499C6.02595 15.5256 6 15.4806 6 15.432V12.0001C6 11.9514 6.02595 11.9065 6.06808 11.8821ZM6.27232 12.2359V15.1962L8.83607 13.716L6.27232 12.2359Z" fill="#030404"/>
<path fill-rule="evenodd" clip-rule="evenodd" d="M9.17648 13.5981C9.21861 13.6224 9.24456 13.6674 9.24456 13.716V17.1479C9.24456 17.1965 9.21861 17.2415 9.17648 17.2658C9.13435 17.2901 9.08245 17.2901 9.04032 17.2658L6.06809 15.5499C6.02595 15.5256 6 15.4806 6 15.432C6 15.3834 6.02595 15.3384 6.06808 15.3141L9.04032 13.5981C9.08244 13.5738 9.13435 13.5738 9.17648 13.5981ZM6.4085 15.432L8.97223 16.912V13.9519L6.4085 15.432Z" fill="#030404"/>
<path fill-rule="evenodd" clip-rule="evenodd" d="M9.04025 13.5981C9.08238 13.5738 9.13428 13.5738 9.17641 13.5981L12.1485 15.3141C12.1907 15.3384 12.2166 15.3834 12.2166 15.432C12.2166 15.4806 12.1907 15.5256 12.1485 15.5499L9.17641 17.2658C9.13428 17.2901 9.08238 17.2901 9.04025 17.2658C8.99812 17.2415 8.97217 17.1965 8.97217 17.1479V13.716C8.97217 13.6674 8.99812 13.6224 9.04025 13.5981ZM9.24449 13.9519V16.912L11.8081 15.432L9.24449 13.9519Z" fill="#030404"/>
<path fill-rule="evenodd" clip-rule="evenodd" d="M12.1485 15.3141C12.1907 15.3384 12.2166 15.3834 12.2166 15.432V18.8638C12.2166 18.9125 12.1907 18.9574 12.1485 18.9818C12.1064 19.0061 12.0545 19.0061 12.0124 18.9818L9.04025 17.2658C8.99812 17.2415 8.97217 17.1965 8.97217 17.1479C8.97217 17.0992 8.99812 17.0543 9.04025 17.0299L12.0124 15.3141C12.0545 15.2898 12.1064 15.2898 12.1485 15.3141ZM9.38066 17.1479L11.9443 18.628V15.6678L9.38066 17.1479Z" fill="#030404"/>
<path fill-rule="evenodd" clip-rule="evenodd" d="M12.0124 15.3141C12.0545 15.2898 12.1064 15.2898 12.1486 15.3141L15.1207 17.0299C15.1628 17.0543 15.1888 17.0992 15.1888 17.1479C15.1888 17.1965 15.1628 17.2415 15.1207 17.2658L12.1486 18.9818C12.1065 19.0061 12.0545 19.0061 12.0124 18.9818C11.9703 18.9574 11.9443 18.9125 11.9443 18.8638V15.432C11.9443 15.3834 11.9703 15.3384 12.0124 15.3141ZM12.2167 15.6678V18.628L14.7803 17.1479L12.2167 15.6678Z" fill="#030404"/>
<path fill-rule="evenodd" clip-rule="evenodd" d="M15.1207 13.5981C15.1628 13.6224 15.1888 13.6674 15.1888 13.716V17.1479C15.1888 17.1965 15.1628 17.2415 15.1207 17.2658C15.0786 17.2901 15.0267 17.2901 14.9845 17.2658L12.0124 15.5499C11.9703 15.5256 11.9443 15.4806 11.9443 15.432C11.9443 15.3834 11.9703 15.3384 12.0124 15.3141L14.9845 13.5981C15.0267 13.5738 15.0786 13.5738 15.1207 13.5981ZM12.3528 15.432L14.9165 16.912V13.9519L12.3528 15.432Z" fill="#030404"/>
<path fill-rule="evenodd" clip-rule="evenodd" d="M14.9846 13.5981C15.0267 13.5738 15.0786 13.5738 15.1207 13.5981L18.0929 15.3141C18.135 15.3384 18.1609 15.3834 18.1609 15.432C18.1609 15.4806 18.135 15.5256 18.0929 15.5499L15.1207 17.2658C15.0786 17.2901 15.0267 17.2901 14.9846 17.2658C14.9425 17.2415 14.9165 17.1965 14.9165 17.1479V13.716C14.9165 13.6674 14.9425 13.6224 14.9846 13.5981ZM15.1888 13.9519V16.912L17.7525 15.432L15.1888 13.9519Z" fill="#030404"/>
</g>
<defs>
<clipPath id="clip0_557_15493">
<path d="M0 12C0 5.37258 5.37258 0 12 0C18.6274 0 24 5.37258 24 12C24 18.6274 18.6274 24 12 24C5.37258 24 0 18.6274 0 12Z" fill="white"/>
</clipPath>
</defs>
</svg>
