<svg width="24" height="24" viewBox="0 0 24 24" fill="none" xmlns="http://www.w3.org/2000/svg">
<g clip-path="url(#clip0_1367_41133)">
<circle cx="12" cy="12" r="12" fill="white"/>
<path d="M15.079 4C15.0328 4 15.0037 4.02267 14.9707 4.06333C14.9374 4.10213 14.9155 4.14947 14.9074 4.20007C14.8992 4.25068 14.9051 4.30258 14.9244 4.35001C15.05 4.62334 15.1643 4.90335 15.2733 5.18335C15.2799 5.19668 15.2878 5.21002 15.2991 5.22869C15.2726 5.22735 15.266 5.21402 15.2574 5.20002C15.0612 4.99335 14.8293 4.82868 14.598 4.66401C14.2855 4.43934 13.9438 4.262 13.6049 4.08267C13.561 4.05907 13.5129 4.04435 13.4635 4.03933L13.2097 4.01267C13.0762 3.996 12.9751 4.07267 12.9751 4.20734C12.9751 4.27934 12.9448 4.29534 12.8859 4.30067C12.8331 4.30334 12.7624 4.37734 12.7564 4.42867C12.7456 4.50467 12.7538 4.58218 12.7801 4.65422C12.8064 4.72627 12.85 4.79057 12.9071 4.84135C13.2005 5.11802 13.4839 5.40469 13.7681 5.69136L13.778 5.69603C13.7861 5.70286 13.7924 5.71155 13.7965 5.72136C13.7919 5.72336 13.7872 5.72336 13.7833 5.72336C13.774 5.72156 13.7658 5.71633 13.7601 5.70869C13.7588 5.70736 13.7568 5.70536 13.7568 5.70403C13.7159 5.68003 13.6729 5.65736 13.6333 5.63069C13.435 5.49736 13.2401 5.36135 13.0419 5.23202C12.9521 5.16775 12.847 5.12864 12.7373 5.11868C12.6897 5.11246 12.6413 5.11788 12.5962 5.13447C12.5512 5.15106 12.5107 5.17834 12.4783 5.21402C12.4554 5.23499 12.438 5.26142 12.4279 5.29088C12.4177 5.32035 12.4151 5.35191 12.4201 5.38269C12.4307 5.48002 12.4961 5.54069 12.5675 5.59069C12.8992 5.81603 13.1952 6.08003 13.4701 6.37337C13.4939 6.3987 13.519 6.42604 13.5461 6.44804C13.624 6.51204 13.6716 6.59737 13.7192 6.68537C13.741 6.72537 13.7324 6.73471 13.6908 6.73471C13.408 6.73471 13.1384 6.81338 12.8674 6.87071C12.7564 6.89471 12.6467 6.93338 12.6071 7.05738C12.5642 7.19738 12.5437 7.27605 12.7128 7.31872C13.0498 7.40587 13.3791 7.52092 13.6974 7.66272C13.7252 7.67644 13.7512 7.69369 13.7747 7.71406C13.854 7.78339 13.9267 7.86006 14.0139 7.91606C14.265 8.08073 14.5227 8.23473 14.82 8.30473C14.855 8.31273 14.8861 8.33073 14.9191 8.33807C14.9522 8.34807 14.9753 8.3674 14.9819 8.40073C15.0011 8.5194 15.0737 8.58674 15.1834 8.62074C15.1967 8.62474 15.2085 8.63407 15.2231 8.6394C15.2574 8.65074 15.2733 8.67607 15.2845 8.7114C15.3288 8.87141 15.3751 9.03008 15.4246 9.18808C15.4418 9.24141 15.4259 9.25475 15.3784 9.27008C15.1326 9.34208 14.8881 9.41675 14.6436 9.49275C14.5564 9.51942 14.555 9.52142 14.5993 9.60142L15.1993 10.6914C15.2832 10.8448 15.2865 10.8448 15.4405 10.7648C15.4563 10.7568 15.4781 10.7294 15.4927 10.7554C15.5059 10.7794 15.5323 10.8148 15.5085 10.8421C15.4339 10.9281 15.383 11.0288 15.3196 11.1221C15.2991 11.1521 15.2991 11.1714 15.3162 11.2001C15.3823 11.3108 15.4497 11.4228 15.5145 11.5348C15.5224 11.5474 15.5369 11.5634 15.5343 11.5734L15.453 11.8181C15.4081 11.649 15.3374 11.488 15.2436 11.3408C15.1246 11.1488 14.9727 10.9794 14.8339 10.8001C14.8121 10.7734 14.7863 10.7488 14.7612 10.7234C14.6291 10.5854 14.4599 10.5021 14.2987 10.4048C14.2294 10.3633 14.1533 10.3346 14.074 10.3201C13.8269 10.2668 13.5811 10.2468 13.3339 10.3228C13.2844 10.3388 13.2573 10.3261 13.2276 10.2828C13.1668 10.1981 13.1179 10.1008 13.0359 10.0348C12.8377 9.87476 12.6289 9.72942 12.3851 9.64609C12.2012 9.58009 12.0085 9.54234 11.8135 9.53408C11.7114 9.53227 11.6093 9.53605 11.5076 9.54542C11.2459 9.56542 10.9856 9.59475 10.7543 9.74075C10.7081 9.76942 10.6552 9.78542 10.6083 9.81275C10.3704 9.94209 10.1352 10.0701 9.93694 10.2654C9.72915 10.4652 9.53134 10.6752 9.34423 10.8948C9.13146 11.1508 8.9709 11.4401 8.82685 11.7395C8.81694 11.7595 8.81231 11.7861 8.7806 11.8035L8.7013 11.3074C8.69668 11.2768 8.71584 11.2788 8.73632 11.2821C8.79513 11.2888 8.85196 11.2914 8.91077 11.2994C8.95504 11.3061 8.97883 11.2961 8.99006 11.2461C9.0046 11.1781 9.02045 11.1088 9.03433 11.0388C9.08851 10.7741 9.16648 10.5188 9.23454 10.2588C9.24776 10.2094 9.23917 10.1921 9.18829 10.1788C8.93654 10.1188 8.68412 10.0508 8.43171 9.99009C8.38414 9.97876 8.36167 9.96142 8.37621 9.91009C8.43369 9.71142 8.4588 9.50342 8.53611 9.31008C8.54248 9.28748 8.55536 9.26729 8.57311 9.25208C8.63787 9.20141 8.68544 9.14208 8.67884 9.05074C8.67421 8.98208 8.70593 8.93874 8.77134 8.90807C8.8916 8.85074 9.0079 8.78341 9.12155 8.71607C9.21291 8.66415 9.28783 8.58718 9.33762 8.49407C9.55039 8.09073 9.72748 7.66606 9.98518 7.28738C10.007 7.25338 10.0248 7.21672 10.0513 7.18738C10.2178 7.01138 10.3737 6.82471 10.5607 6.66737C10.6195 6.61804 10.6354 6.55071 10.6367 6.47737C10.6367 6.39204 10.5878 6.3327 10.5369 6.27403C10.4874 6.21603 10.4371 6.1667 10.3526 6.17603C10.3341 6.17803 10.3149 6.16937 10.2944 6.1667C10.307 6.14003 10.3275 6.1347 10.3446 6.12337C10.5686 5.97803 10.792 5.83203 11.016 5.68469C11.2869 5.50869 11.5571 5.33135 11.83 5.15535C11.8644 5.13268 11.8803 5.11535 11.8426 5.08202C11.8327 5.07335 11.8267 5.06202 11.8188 5.05268C11.7633 4.98668 11.7633 4.98668 11.6867 5.03268L9.41229 6.46204C9.34555 6.50337 9.34555 6.50337 9.31185 6.4287C9.23785 6.25337 9.1949 6.0687 9.13939 5.8887C9.12618 5.84736 9.13741 5.82336 9.16913 5.79736C9.36009 5.64402 9.53453 5.47069 9.71096 5.30269C9.77945 5.23764 9.82298 5.15028 9.83386 5.05602C9.8484 4.94268 9.77439 4.88335 9.67263 4.92535C9.62236 4.94513 9.57356 4.96852 9.5266 4.99535C9.07728 5.24535 8.59822 5.41669 8.10661 5.56069C8.0782 5.56869 8.05243 5.57802 8.02864 5.54736C7.97974 5.48736 7.9064 5.45402 7.84495 5.40869C7.83924 5.4039 7.83251 5.40051 7.82529 5.39878C7.81807 5.39704 7.81055 5.39701 7.80332 5.39869C7.73724 5.41669 7.66852 5.43602 7.62756 5.49669C7.52249 5.65202 7.391 5.79003 7.29255 5.95136C7.18022 6.13803 7.07251 6.32604 6.94564 6.50337C6.92186 6.53671 6.91261 6.54204 6.89014 6.50204L6.46923 5.75669C6.4255 5.67814 6.37625 5.60283 6.32188 5.53136C6.25977 5.45269 6.18378 5.41402 6.08532 5.42469C6.06814 5.42736 6.04568 5.42202 6.03907 5.44936C6.02585 5.52269 5.99282 5.60002 6.00141 5.67069C6.02387 5.85069 6.05559 6.03203 6.10052 6.20803C6.17585 6.51404 6.26175 6.81604 6.35161 7.11738C6.4395 7.41339 6.53795 7.70406 6.6331 7.99939C6.64103 8.02473 6.65491 8.04739 6.61988 8.06806C6.57561 8.0934 6.50425 8.10673 6.49632 8.1514C6.48839 8.19806 6.52936 8.2514 6.54918 8.3014L6.55381 8.31273C6.56967 8.3514 6.5776 8.40873 6.60667 8.4234C6.64433 8.44273 6.67935 8.39007 6.71371 8.36873C6.74543 8.34873 6.75666 8.35473 6.7712 8.38807C6.85314 8.5834 6.93771 8.77674 7.02229 8.97208C7.03551 9.0008 7.03693 9.03363 7.02626 9.06341C6.96975 9.21924 6.92729 9.37989 6.89939 9.54342C6.89146 9.59008 6.87428 9.59008 6.83992 9.58008C6.65641 9.53268 6.47272 9.48601 6.28884 9.44008C6.20757 9.41875 6.20757 9.41875 6.19831 9.50208V9.50875C6.15867 9.95209 6.11902 10.3954 6.07739 10.8381C6.07475 10.8781 6.07938 10.8948 6.12233 10.8994C6.25052 10.9154 6.37738 10.9361 6.50425 10.9554C6.52804 10.9588 6.54852 10.9601 6.54257 10.9954C6.51416 11.1454 6.4917 11.2974 6.45998 11.4468C6.45466 11.4654 6.45393 11.485 6.45784 11.5039C6.46176 11.5229 6.4702 11.5406 6.48245 11.5554L6.6146 11.7315C6.64433 11.7735 6.66746 11.8275 6.63905 11.8708C6.62384 11.8941 6.61622 11.9216 6.61724 11.9495C6.62187 12.2261 6.62187 12.5028 6.63442 12.7801C6.64103 12.9135 6.63905 13.0488 6.64235 13.1835C6.64896 13.5401 6.66878 13.8955 6.682 14.2522C6.6886 14.4268 6.65821 14.5988 6.66614 14.7742C6.66746 14.8175 6.67737 14.8408 6.72164 14.8555C6.82737 14.8888 6.9278 14.9328 7.03419 14.9662C7.06097 14.9732 7.08586 14.9862 7.10702 15.0042C7.12817 15.0222 7.14506 15.0447 7.15643 15.0702C7.17716 15.1158 7.18581 15.1661 7.18154 15.2162C7.18022 15.2642 7.1974 15.2928 7.23572 15.3202C7.39893 15.4382 7.56082 15.5602 7.72469 15.6815C8.15419 16.0015 8.58369 16.3235 9.01583 16.6415C9.05547 16.6715 9.06473 16.6955 9.04094 16.7389C9.01847 16.7802 9.0046 16.8289 8.98213 16.8702C8.96297 16.9089 8.96627 16.9329 9.00261 16.9595C9.0568 16.9982 9.109 17.0415 9.15855 17.0849C9.2015 17.1215 9.20283 17.1789 9.19027 17.2235C9.18036 17.2569 9.13278 17.2269 9.10305 17.2235C9.08191 17.2222 9.06142 17.2169 9.04094 17.2142C8.8361 17.1809 8.63324 17.1275 8.4251 17.1102C8.09472 17.0835 7.76235 17.0542 7.42734 17.0635C7.41016 17.0635 7.38307 17.0475 7.37845 17.0835C7.37382 17.1115 7.36721 17.1422 7.39893 17.1615C7.41479 17.1709 7.43197 17.1789 7.44981 17.1855C7.63681 17.2509 7.81125 17.3455 7.98305 17.4455C8.09406 17.5089 8.20308 17.5809 8.32533 17.6242C8.34779 17.6322 8.37026 17.6495 8.39669 17.6255C8.213 17.4789 8.03062 17.3309 7.84627 17.1822C7.8727 17.1629 7.89252 17.1709 7.91235 17.1729C8.13172 17.1902 8.3511 17.2209 8.56519 17.2729C9.03631 17.3862 9.50414 17.5135 9.96733 17.6542C10.1193 17.7009 10.2812 17.7235 10.418 17.8162C10.451 17.8382 10.4708 17.8609 10.4669 17.9029C10.4748 17.9122 10.4847 17.9249 10.4735 17.9329C10.4603 17.9409 10.4497 17.9249 10.4404 17.9169C10.3321 17.9075 10.2244 17.8995 10.118 17.8882C9.81205 17.8575 9.50744 17.8149 9.1982 17.8242C8.96693 17.8309 8.735 17.8142 8.50439 17.8309C8.17798 17.8529 7.8509 17.8962 7.52646 17.9309C7.50994 17.9329 7.48483 17.9295 7.48483 17.9489C7.48483 17.9729 7.49408 18.0002 7.52448 18.0069C7.54905 18.012 7.57405 18.0147 7.59914 18.0149C7.76433 18.0215 7.92754 18.0195 8.09208 18.0222C8.50175 18.0322 8.91275 18.0142 9.3211 18.0495C9.46912 18.0629 9.61845 18.0562 9.7625 18.0829C10.4431 18.2115 11.1204 18.3456 11.7963 18.4949C11.8756 18.5122 11.9569 18.5249 12.0342 18.5636C11.9979 18.5969 11.9503 18.6069 11.9298 18.6549C11.7844 18.9922 11.69 19.3482 11.5796 19.6969C11.5598 19.7569 11.5994 19.8249 11.6589 19.8409C11.6838 19.8482 11.7099 19.8502 11.7355 19.8466C11.7612 19.843 11.7858 19.834 11.8078 19.8202C11.8297 19.8063 11.8486 19.7879 11.863 19.7662C11.8774 19.7445 11.8871 19.72 11.8915 19.6942C11.9047 19.6216 11.9173 19.5496 11.9265 19.4756C11.9298 19.4516 11.9377 19.4389 11.9615 19.4309C12.0488 19.3956 12.1333 19.3589 12.2212 19.3242C12.3504 19.2753 12.4691 19.2017 12.5708 19.1076C12.6593 19.0229 12.734 18.9249 12.736 18.7942C12.736 18.7542 12.7452 18.7282 12.7769 18.7042C12.9223 18.5909 13.0531 18.4609 13.18 18.3282C13.3042 18.201 13.4366 18.0823 13.5764 17.9729C13.5923 17.9595 13.6049 17.9409 13.6293 17.9502L13.9993 18.0975C13.7522 18.2495 13.517 18.3956 13.2844 18.5376C13.2732 18.5442 13.2606 18.5476 13.2494 18.5509C13.1652 18.5764 13.0885 18.6225 13.026 18.6849C12.7782 18.9329 12.6514 19.2276 12.6659 19.5849C12.6752 19.8249 12.8113 19.9382 13.0425 19.8849C13.4496 19.7882 13.7958 19.3956 13.8573 18.9649C13.8731 18.8449 13.8916 18.7269 13.8064 18.6229C13.7697 18.5773 13.7305 18.5339 13.6888 18.4929C13.702 18.4849 13.7079 18.4802 13.7145 18.4756C14.228 18.1669 14.7883 17.9569 15.3499 17.7622C16.0371 17.5229 16.7376 17.3329 17.4406 17.1502L17.3911 17.1389C17.3448 17.1435 17.3012 17.1489 17.2549 17.1522C17.0607 17.1651 16.8679 17.195 16.6788 17.2415L16.6682 17.2462C16.6484 17.2539 16.6272 17.2574 16.6061 17.2562C16.5968 17.2562 16.5862 17.2562 16.5744 17.2575C16.6173 17.2162 16.7409 17.0815 16.7746 17.0909L16.7759 17.0875H16.7792C16.7792 17.0829 16.7917 17.0742 16.7917 17.0742C16.803 17.0542 16.8182 17.0415 16.8406 17.0409C16.8753 16.9906 16.9196 16.9478 16.9708 16.9149C17.0039 16.8949 17.0389 16.8735 17.0765 16.8575H17.0759C17.1816 16.8575 17.2867 16.7282 17.397 16.6829C17.3963 16.6789 17.3904 16.6762 17.3884 16.6715C17.2298 16.6942 17.0739 16.7195 16.9219 16.7782C16.5968 16.8989 16.2605 16.9935 15.9433 17.1342C15.453 17.3502 14.9641 17.5662 14.4929 17.8242C14.4764 17.8331 14.4594 17.8411 14.4421 17.8482L14.4057 17.5122C14.4024 17.4895 14.4136 17.4802 14.4321 17.4702C14.8497 17.2475 15.2687 17.0269 15.7048 16.8449C16.0636 16.6942 16.4184 16.5315 16.7792 16.3842C16.7805 16.3809 16.7825 16.3775 16.7858 16.3775H16.7884C16.7904 16.3775 16.7904 16.3795 16.7917 16.3795C16.7964 16.3875 16.7931 16.3929 16.7884 16.3969C16.7871 16.3989 16.7851 16.3989 16.7818 16.4002H16.7805C16.6824 16.537 16.5999 16.6846 16.5347 16.8402C16.5598 16.8469 16.5697 16.8382 16.579 16.8282C16.6536 16.7482 16.7283 16.6702 16.801 16.5902C16.9424 16.4342 17.0917 16.2849 17.2662 16.1635C17.2774 16.1555 17.2959 16.1489 17.288 16.1315C17.2787 16.1115 17.2582 16.1215 17.2437 16.1249C17.0805 16.1582 16.9173 16.1889 16.7547 16.2275C16.7012 16.2402 16.7045 16.2209 16.7019 16.1829C16.7012 16.0515 16.7204 15.9228 16.725 15.7922C16.7266 15.7352 16.7396 15.6792 16.7633 15.6275C16.8281 15.4768 16.8935 15.3275 16.9596 15.1775C16.9926 15.1022 17.0124 15.0222 17.025 14.9422C17.0448 14.8142 17.0613 14.6848 17.0739 14.5555C17.0937 14.3555 17.1644 14.1688 17.1975 13.9722C17.2404 13.7228 17.2754 13.4715 17.3673 13.2321C17.4499 13.0215 17.5292 12.8101 17.6131 12.6008C17.7294 12.3155 17.8767 12.0455 17.9468 11.7408C17.9706 11.6354 17.997 11.5394 17.9494 11.4354C17.923 11.3794 17.9151 11.3154 17.8959 11.2548C17.8814 11.2109 17.8786 11.164 17.888 11.1188C17.9197 10.9554 17.9342 10.7934 17.8463 10.6414C17.8225 10.6001 17.8516 10.5748 17.8754 10.5481C17.9336 10.4881 17.9369 10.4608 17.886 10.3948C17.8278 10.3214 17.7703 10.2461 17.7076 10.1774C17.6547 10.1214 17.6058 10.0608 17.5529 10.0028C17.5166 9.98076 17.5199 9.96609 17.5609 9.95209C17.6534 9.92009 17.7433 9.88009 17.8371 9.85076C17.8899 9.83475 17.9032 9.80409 17.9071 9.75675C17.9369 9.35341 17.9666 8.94807 17.999 8.54474C18.0036 8.48873 17.9943 8.47807 17.9369 8.4954C17.6369 8.5914 17.3375 8.68207 17.0362 8.77674C16.9437 8.80607 16.9424 8.80607 16.9014 8.71474C16.7488 8.36807 16.6299 8.01006 16.505 7.65472C16.4912 7.62121 16.4845 7.58517 16.4853 7.5489C16.4861 7.51263 16.4944 7.47692 16.5096 7.44405C16.5539 7.31872 16.5255 7.19271 16.5222 7.06605C16.5201 7.05958 16.519 7.05284 16.5188 7.04605C16.4922 6.69806 16.4361 6.35301 16.351 6.0147C16.2731 5.72075 16.1622 5.43669 16.0206 5.16802C15.87 4.88001 15.7081 4.59468 15.5336 4.318C15.459 4.19934 15.3797 4.092 15.2469 4.03333C15.1935 4.01182 15.1365 4.00052 15.079 4ZM13.3333 4.17334C13.3797 4.17157 13.4256 4.18338 13.4654 4.20734C13.7966 4.37178 14.1205 4.55084 14.4361 4.74401C14.5993 4.84935 14.7546 4.96935 14.9086 5.09068C14.9812 5.14868 15.0354 5.23535 15.0962 5.31069C15.1213 5.34202 15.1041 5.37069 15.0804 5.39335C15.0645 5.40935 15.042 5.41935 15.0229 5.43002C15.0024 5.44469 14.9753 5.45669 14.9832 5.48802C14.9898 5.51469 15.0196 5.52136 15.0427 5.52669C15.0781 5.53426 15.115 5.53077 15.1484 5.51669C15.2594 5.47002 15.3533 5.54869 15.4246 5.62736C15.4431 5.64736 15.451 5.68936 15.4861 5.67669C15.5224 5.66269 15.5277 5.62269 15.5244 5.58536C15.5165 5.48536 15.4914 5.38735 15.4689 5.28935C15.4094 5.03802 15.2905 4.81068 15.1927 4.57401C15.1577 4.48934 15.12 4.40467 15.085 4.31934C15.0652 4.27267 15.0916 4.23134 15.1167 4.198C15.1365 4.17134 15.1696 4.19467 15.1973 4.20734C15.2977 4.25267 15.3546 4.33401 15.4035 4.42867C15.4563 4.52867 15.5211 4.62201 15.5766 4.71934C15.6717 4.88935 15.7894 5.04935 15.8653 5.22735C15.9764 5.48602 16.1178 5.73269 16.1845 6.01136C16.2413 6.25803 16.3219 6.49937 16.351 6.75404C16.3616 6.85004 16.3444 6.94271 16.3556 7.03538C16.3774 7.22138 16.3504 7.39738 16.2744 7.56739C16.2545 7.61405 16.2605 7.65806 16.2823 7.70606C16.4488 8.06139 16.5862 8.42807 16.725 8.79607C16.7428 8.84407 16.7349 8.86274 16.6854 8.87807C16.3669 8.97141 16.0477 9.07008 15.7292 9.16741C15.683 9.18208 15.6684 9.16941 15.6546 9.12741C15.5733 8.91007 15.496 8.69674 15.4213 8.48273C15.4055 8.4374 15.3863 8.4134 15.3367 8.42473C15.2786 8.4394 15.2469 8.4134 15.2211 8.36073C15.1801 8.27606 15.1464 8.17406 15.0784 8.12073C15.0103 8.0674 14.9026 8.06606 14.8121 8.04406C14.744 8.02606 14.6753 8.00539 14.6059 7.99406C14.4587 7.96661 14.3201 7.90423 14.2015 7.81206C14.0013 7.66272 13.7952 7.52539 13.5844 7.39405C13.5157 7.38938 13.4509 7.37005 13.3842 7.35405C13.2005 7.31605 13.0181 7.27605 12.8337 7.24072C12.7895 7.23272 12.7809 7.19871 12.7782 7.16871C12.7736 7.13138 12.7829 7.09538 12.8212 7.07271C12.88 7.03738 12.9467 7.03071 13.0128 7.01938C13.3067 6.96966 13.6037 6.9407 13.9015 6.93271C13.9742 6.93138 14.0396 6.95938 14.1077 6.97671C14.1262 6.98267 14.1459 6.98396 14.165 6.98048C14.1841 6.97699 14.2021 6.96883 14.2174 6.95671C14.3601 6.86138 14.5042 6.77004 14.6469 6.67537C14.6694 6.66137 14.7103 6.65137 14.6931 6.61337C14.6906 6.60798 14.6873 6.60302 14.6832 6.59871C14.6753 6.59204 14.6661 6.59071 14.6548 6.59071L14.6218 6.59204H14.6172C14.4599 6.58972 14.3058 6.63627 14.1758 6.72537C14.1229 6.75871 14.004 6.73804 13.9709 6.68804C13.7463 6.34404 13.4271 6.09603 13.1238 5.82803C12.989 5.71069 12.8575 5.58736 12.7141 5.47802C12.6785 5.45136 12.6613 5.38202 12.6864 5.34735C12.7181 5.29935 12.7591 5.32002 12.7974 5.33735C12.9196 5.39202 13.0366 5.45402 13.1463 5.53269C13.519 5.80136 13.9194 6.0287 14.3172 6.25603C14.3278 6.26265 14.3389 6.26866 14.3502 6.27403C14.411 6.29403 14.4427 6.26737 14.4328 6.20337C14.4277 6.1703 14.4135 6.13933 14.3918 6.11403C14.0694 5.73136 13.7304 5.36469 13.3967 4.99202C13.3273 4.91468 13.2447 4.84801 13.1668 4.77868C13.106 4.72784 13.0565 4.6647 13.0214 4.59334C13.0101 4.5734 13.0054 4.55029 13.0082 4.52746C13.0109 4.50464 13.0209 4.48331 13.0366 4.46667C13.063 4.43667 13.0875 4.43001 13.1271 4.45067C13.2395 4.50534 13.3465 4.56934 13.4463 4.64601C13.622 4.78068 13.7998 4.91468 13.9775 5.04935L14.5108 5.45136C14.524 5.46269 14.5392 5.47336 14.5517 5.48469C14.5848 5.51536 14.6139 5.54736 14.6456 5.57936L14.6647 5.59869C14.6773 5.61136 14.6885 5.62869 14.7044 5.63869C14.7407 5.66069 14.7784 5.68003 14.8167 5.64136C14.8299 5.62802 14.8359 5.61736 14.8365 5.60469C14.8365 5.60002 14.8392 5.59536 14.8365 5.59069L14.8359 5.58402C14.8305 5.56589 14.8207 5.5494 14.8075 5.53602L14.6885 5.41135C14.623 5.34187 14.5542 5.27557 14.4824 5.21268C14.2511 5.01935 14.0159 4.83201 13.778 4.64934C13.6571 4.55601 13.5157 4.49401 13.3842 4.41734C13.3366 4.39001 13.3049 4.35001 13.2699 4.31134C13.2582 4.29782 13.2506 4.28129 13.2478 4.26362C13.245 4.24595 13.2471 4.22784 13.254 4.21134C13.2685 4.17534 13.3036 4.17734 13.3333 4.174V4.17334ZM9.5233 5.09935C9.52988 5.09826 9.53662 5.09944 9.54246 5.10268C9.57418 5.12068 9.56228 5.15402 9.56228 5.19268C9.57087 5.23269 9.5451 5.26602 9.50942 5.29935C9.2808 5.51402 9.04226 5.71736 8.79844 5.91403C8.7013 5.9927 8.58237 6.02936 8.47466 6.0887C8.45219 6.10003 8.43964 6.0887 8.42708 6.0727C8.34779 5.97003 8.26982 5.86603 8.19053 5.76403C8.1608 5.72736 8.20176 5.72869 8.22093 5.72069C8.38876 5.66003 8.55395 5.59069 8.72047 5.52402C8.96165 5.42802 9.18036 5.29069 9.40766 5.16868C9.43145 5.15535 9.45392 5.14002 9.47705 5.12668C9.4929 5.12002 9.50612 5.10202 9.5233 5.09935ZM7.79275 5.65269C7.82623 5.65629 7.85747 5.67135 7.88129 5.69536C7.92887 5.74003 7.96719 5.79136 8.00023 5.84736C8.11454 6.03403 8.27313 6.1847 8.42708 6.3387C8.53479 6.44737 8.64514 6.55204 8.75879 6.65204C8.79645 6.68537 8.80306 6.73671 8.82355 6.78004C8.83147 6.79604 8.82487 6.80871 8.81033 6.81671C8.80306 6.82204 8.79513 6.82538 8.79051 6.83004C8.69668 6.91004 8.60814 6.89871 8.49845 6.84271C8.28524 6.73298 8.09216 6.58733 7.92754 6.41204C7.92094 6.40537 7.91433 6.4007 7.90772 6.39604C7.83239 6.3387 7.82843 6.34137 7.79539 6.42937C7.76103 6.51937 7.73856 6.61204 7.69892 6.69871C7.68438 6.72871 7.70685 6.76138 7.72931 6.78338C7.75442 6.80938 7.7716 6.84938 7.81786 6.84271C7.83834 6.83938 7.84957 6.82804 7.8542 6.80604C7.86543 6.75271 7.88063 6.69937 7.89385 6.63471C8.06697 6.78138 8.25925 6.89471 8.44889 7.02338L8.2652 7.12938C7.79407 7.39605 7.32162 7.66272 6.85181 7.93273C6.81349 7.95273 6.79763 7.95806 6.78177 7.91006C6.60138 7.34538 6.41174 6.78338 6.25977 6.2087C6.22541 6.07536 6.21087 5.9367 6.18576 5.80069C6.17783 5.76069 6.20426 5.74003 6.23003 5.72536C6.26505 5.70803 6.26637 5.74936 6.27893 5.76536C6.52804 6.11203 6.69786 6.50537 6.90071 6.87804C6.9615 6.99005 7.02956 7.09805 7.09432 7.20938C7.10753 7.22938 7.11678 7.24738 7.1485 7.23605C7.18352 7.22272 7.17691 7.20138 7.17097 7.17605C7.1452 7.06005 7.08639 6.95604 7.04344 6.84738C7.03559 6.83065 7.03169 6.81231 7.03203 6.79381C7.03238 6.7753 7.03696 6.75713 7.04542 6.74071C7.13594 6.55137 7.26347 6.3867 7.36259 6.20537C7.4551 6.0407 7.57205 5.89336 7.66059 5.72736C7.67284 5.70317 7.69195 5.68321 7.71549 5.67003C7.73903 5.65685 7.76593 5.65038 7.79275 5.65269ZM8.96495 5.9807C8.9742 5.9827 8.98081 5.99136 8.98874 6.0087C9.06803 6.1887 9.12155 6.3787 9.18829 6.56204C9.1949 6.58004 9.19622 6.59471 9.17706 6.60604L9.0079 6.71137C9.00261 6.71471 8.99667 6.71604 8.9775 6.72471C8.97288 6.71604 8.96627 6.70204 8.95702 6.69071L8.60021 6.27737C8.58435 6.2587 8.56849 6.2407 8.60021 6.22337C8.71716 6.15603 8.80637 6.04736 8.92993 5.99003C8.94579 5.9827 8.95636 5.9787 8.96495 5.9807ZM10.2396 6.3047C10.2731 6.30294 10.3061 6.31387 10.3321 6.33537C10.3541 6.35166 10.3708 6.37414 10.3802 6.39999C10.3896 6.42584 10.3913 6.45392 10.3849 6.4807C10.3698 6.55457 10.3327 6.62202 10.2786 6.67404C10.0544 6.89094 9.85853 7.13581 9.69576 7.40272C9.5451 7.64272 9.39643 7.88139 9.28344 8.14273C9.25901 8.19356 9.22641 8.23997 9.18697 8.28007C9.02838 8.46207 8.8394 8.6034 8.62201 8.7054C8.6009 8.71375 8.58279 8.72833 8.57006 8.74725C8.55732 8.76617 8.55055 8.78854 8.55065 8.81141C8.54734 8.85141 8.53479 8.89007 8.53149 8.93007C8.53123 8.97919 8.51978 9.02759 8.49801 9.07152C8.47624 9.11545 8.44473 9.15374 8.40594 9.18341C8.37951 9.20475 8.37621 9.23875 8.36629 9.26741L8.1859 9.87742C8.1859 9.88209 8.1859 9.88676 8.18458 9.89009C8.18458 9.89942 8.1859 9.91009 8.17335 9.91542C8.14692 9.92209 8.12247 9.91409 8.09868 9.90142C7.80454 9.8321 7.51156 9.75787 7.21986 9.67875C7.18352 9.67075 7.1485 9.65875 7.11017 9.65475C7.05203 9.64675 7.04674 9.61942 7.07383 9.57475C7.11216 9.38742 7.15643 9.20141 7.27074 9.04341C7.29585 9.00808 7.29453 8.97941 7.27206 8.94074C7.14652 8.7294 7.05137 8.50207 6.94696 8.28073C6.92979 8.24473 6.93573 8.2274 6.96943 8.2074C7.53929 7.85225 8.10821 7.49557 8.67619 7.13738C8.70593 7.11738 8.735 7.12938 8.76342 7.12271C8.86319 7.10005 8.96032 7.06938 9.04755 7.01405C9.05415 7.00938 9.06473 7.00605 9.06737 6.99938C9.13146 6.85738 9.27221 6.80871 9.39114 6.75271C9.66272 6.62804 9.93694 6.5127 10.1768 6.3307C10.1947 6.31583 10.2165 6.30723 10.2396 6.3047ZM17.8007 8.81941V8.82274L17.8021 8.82207C17.7882 8.99274 17.7736 9.15408 17.7611 9.31541L17.7327 9.67209C17.7294 9.71542 17.7168 9.74275 17.6706 9.75875C16.9275 10.0164 16.1852 10.2764 15.4438 10.5388L15.4173 10.5448C15.3942 10.5481 15.3817 10.5368 15.3645 10.5081C15.2211 10.2454 15.0751 9.98476 14.9277 9.72342C14.9079 9.69009 14.9026 9.67209 14.9502 9.65942L17.7611 8.82874C17.7703 8.82541 17.7809 8.82407 17.8007 8.81941ZM17.5298 9.07674C17.4281 9.07874 17.3362 9.17475 17.3408 9.27208C17.3455 9.36341 17.4228 9.44342 17.5087 9.44008C17.5992 9.43875 17.6871 9.33808 17.6851 9.23875C17.6818 9.12808 17.6316 9.07541 17.5298 9.07674ZM6.4091 9.65675C6.41571 9.65675 6.42496 9.65809 6.43553 9.66142L7.71279 10.0001L8.9927 10.3401C9.03367 10.3514 9.04688 10.3641 9.03235 10.4068L8.84865 11.0154C8.84205 11.0394 8.83742 11.0648 8.81033 11.0648C8.80588 11.0651 8.80141 11.0646 8.79711 11.0634L8.11256 10.9688C7.96323 10.9488 7.81521 10.9274 7.66654 10.9068C7.21417 10.8414 6.76154 10.7778 6.30866 10.7161C6.28025 10.7081 6.27034 10.6908 6.27562 10.6508C6.30998 10.3334 6.34368 10.0168 6.37672 9.69742C6.3787 9.69009 6.37804 9.68409 6.38003 9.67742C6.38187 9.67438 6.383 9.67096 6.38333 9.66742C6.38796 9.65809 6.39721 9.65409 6.40844 9.65409L6.4091 9.65675ZM11.7851 9.72542L11.8598 9.72675C11.9899 9.73342 12.1168 9.78409 12.2358 9.83742C12.2886 9.86142 12.3408 9.88409 12.393 9.90942L12.4307 9.92876C12.469 9.94742 12.5086 9.96676 12.545 9.98876L12.6197 10.0321C12.6434 10.0488 12.6692 10.0628 12.691 10.0808C12.7386 10.1141 12.7848 10.1508 12.8278 10.1908C12.9718 10.3254 13.0736 10.4841 13.1337 10.6708C13.1767 10.8054 13.2084 10.9434 13.2196 11.0821C13.2302 11.2168 13.1906 11.3481 13.1562 11.4774C13.1509 11.4974 13.143 11.5014 13.1364 11.5001C13.1271 11.4968 13.1225 11.4854 13.1146 11.4761L12.9718 11.3094C12.7932 11.0908 12.5532 10.9318 12.2833 10.8534C12.0693 10.7925 11.8488 10.7581 11.6265 10.7508C11.4478 10.7521 11.2697 10.7726 11.0953 10.8121C10.9558 10.8388 10.8158 10.8614 10.6783 10.8874C10.5878 10.9034 10.5052 10.9448 10.4226 10.9808C10.383 10.9994 10.3433 11.0168 10.3037 11.0321L10.2905 11.0348C10.042 11.1228 9.83122 11.2748 9.61382 11.4148C9.55435 11.4548 9.5048 11.5081 9.45326 11.5601L9.44665 11.5654L9.40436 11.6088C9.30392 11.7068 9.20613 11.8061 9.09776 11.8955C9.04887 11.9641 8.98213 12.0121 8.92068 12.0728C8.93654 11.9595 8.96693 11.8541 9.01715 11.7581C9.06952 11.6583 9.12732 11.5615 9.19027 11.4681C9.22199 11.4214 9.25371 11.3748 9.28674 11.3308C9.35302 11.2403 9.42245 11.1523 9.49489 11.0668C9.54841 11.0021 9.60259 10.9381 9.6581 10.8734L9.82329 10.6841C9.84674 10.6598 9.87216 10.6375 9.89928 10.6174L9.91646 10.5974C9.968 10.5534 10.0136 10.5068 10.0737 10.4574L10.0816 10.4508L10.1259 10.4101C10.2845 10.2581 10.4689 10.1394 10.6526 10.0214C10.6711 10.0081 10.6902 9.99809 10.7094 9.98742L10.7827 9.95542C10.7893 9.95276 10.7959 9.94876 10.8019 9.94742C10.8395 9.9317 10.8776 9.91725 10.9162 9.90409L10.9935 9.88009C11.086 9.85342 11.1779 9.83075 11.2684 9.80209C11.4354 9.74848 11.6099 9.72259 11.7851 9.72542ZM6.78309 10.0248C6.73684 10.0274 6.682 10.0228 6.64103 10.0628C6.61202 10.092 6.58915 10.1269 6.5738 10.1653C6.55844 10.2036 6.55091 10.2447 6.55165 10.2861C6.55239 10.3275 6.56138 10.3683 6.5781 10.4061C6.59482 10.4439 6.61892 10.4779 6.64896 10.5061C6.68355 10.5371 6.72822 10.5543 6.7745 10.5543C6.82079 10.5543 6.86546 10.5371 6.90005 10.5061C6.99586 10.4214 7.02031 10.2968 6.96282 10.1494C6.9278 10.0581 6.88023 10.0248 6.78442 10.0248H6.78309ZM17.2536 10.0661C17.3111 10.0654 17.3613 10.1014 17.4056 10.1634C17.4148 10.1701 17.4248 10.1768 17.434 10.1848C17.4485 10.1974 17.4538 10.2114 17.469 10.2274C17.5344 10.3028 17.6058 10.3768 17.6739 10.4501C17.6781 10.4547 17.6812 10.4601 17.6831 10.4661C17.6841 10.4685 17.6846 10.471 17.6843 10.4736C17.6841 10.4762 17.6832 10.4786 17.6818 10.4808C17.6794 10.4847 17.6759 10.4879 17.6719 10.4901L17.6653 10.5001L17.664 10.5014C17.6626 10.5028 17.6626 10.5048 17.6613 10.5081C17.6613 10.5094 17.6593 10.5108 17.6593 10.5108H17.6613V10.5161C17.5655 10.6134 17.5913 10.7048 17.6679 10.7928C17.6719 10.8008 17.6772 10.8088 17.6772 10.8168C17.7406 10.9014 17.6877 10.9861 17.6772 11.0714C17.6752 11.0794 17.6739 11.0821 17.6673 11.0848L17.6626 11.0874C17.6559 11.0872 17.6492 11.0861 17.6428 11.0841L17.6362 11.0821C17.5807 11.0657 17.5254 11.0486 17.4704 11.0308C17.4657 11.0308 17.4624 11.0281 17.4571 11.0261C17.4532 11.0261 17.4499 11.0214 17.4452 11.0214C17.4186 11.0226 17.392 11.0181 17.3673 11.0081C17.3357 10.9924 17.3001 10.9872 17.2654 10.9931C17.2308 10.9991 17.1989 11.016 17.1743 11.0414C17.1741 11.0461 17.173 11.0506 17.171 11.0548C17.1975 11.0948 17.2424 11.1048 17.282 11.1174C17.4439 11.1708 17.5814 11.2708 17.7314 11.3494C17.7657 11.3694 17.7723 11.4108 17.769 11.4508C17.767 11.4728 17.7611 11.4954 17.7558 11.5194L17.7082 11.7261C17.7092 11.744 17.7046 11.7617 17.695 11.7768C17.6977 11.8888 17.6197 11.9721 17.5827 12.0681C17.5787 12.0761 17.5754 12.0795 17.5695 12.0948C17.5446 12.1626 17.5164 12.2292 17.4849 12.2941C17.4849 12.2988 17.4783 12.3055 17.477 12.3101V12.3068C17.477 12.3081 17.4756 12.3081 17.4756 12.3101L17.4723 12.3168C17.4704 12.3181 17.4704 12.3195 17.469 12.3215C17.4611 12.3515 17.4558 12.3835 17.4307 12.4095C17.4014 12.5102 17.3599 12.607 17.3071 12.6975C17.3025 12.7055 17.2992 12.7055 17.2959 12.7215C17.2549 12.8175 17.212 12.9328 17.1704 13.0381C17.1611 13.0768 17.1532 13.1148 17.1439 13.1515L17.1386 13.1615C17.1386 13.1628 17.1373 13.1628 17.1373 13.1648C17.1373 13.1681 17.134 13.1715 17.1327 13.1741C17.1342 13.218 17.126 13.2617 17.1089 13.3021C17.101 13.3281 17.0944 13.3568 17.0864 13.3821C17.086 13.3867 17.0849 13.3912 17.0831 13.3955L16.9503 14.0035C16.914 14.1702 16.8995 14.3395 16.8724 14.5062C16.8472 14.6628 16.8406 14.8242 16.8023 14.9782C16.7759 15.0902 16.7125 15.1942 16.6616 15.2982C16.614 15.3955 16.5836 15.4995 16.5248 15.5942L16.5202 15.6042C16.5169 15.6106 16.5142 15.6173 16.5122 15.6242C16.5109 15.6282 16.5109 15.6328 16.5089 15.6362L16.5043 15.6582C16.5031 15.6661 16.5026 15.6742 16.503 15.6822C16.503 15.6902 16.503 15.6982 16.501 15.7062V15.7302C16.5014 15.7462 16.5009 15.7622 16.4997 15.7782C16.4865 15.9495 16.4647 16.1209 16.4726 16.2935C16.4739 16.3255 16.4647 16.3435 16.4343 16.3535L16.3966 16.3689C16.3713 16.3786 16.3464 16.3892 16.3219 16.4009L16.2823 16.4169C16.2618 16.4249 16.2493 16.4315 16.2162 16.4395V16.4362C16.2162 16.4362 16.2123 16.4395 16.2096 16.4395L16.1217 16.4762L16.0603 16.5015C16.0179 16.5304 15.9706 16.5512 15.9209 16.5629L15.8971 16.5762C15.7922 16.6222 15.6878 16.6693 15.5839 16.7175C15.5303 16.7335 15.4748 16.7655 15.4207 16.7909C15.3612 16.8175 15.305 16.8409 15.2462 16.8669C15.1537 16.9082 15.0625 16.9469 14.97 16.9875C14.9674 16.9889 14.9621 16.9875 14.9594 16.9875C14.8749 17.0195 14.7876 17.0662 14.7083 17.1029C14.6766 17.1202 14.631 17.1382 14.5914 17.1542C14.5187 17.1829 14.5022 17.1795 14.4857 17.1042C14.4388 17.0695 14.4341 17.0109 14.4169 16.9602C14.3991 16.9122 14.3852 16.8602 14.3694 16.8122C14.3661 16.7962 14.3581 16.7989 14.3581 16.7895C14.3423 16.7675 14.3423 16.7469 14.3343 16.7242L14.3324 16.7129C14.3277 16.7095 14.3277 16.7049 14.3258 16.6995L14.3218 16.6889H14.3244C14.3026 16.6222 14.2782 16.5555 14.263 16.4889C14.2471 16.4442 14.2187 16.4009 14.2101 16.3542C14.2069 16.3388 14.2069 16.3229 14.2101 16.3075L14.2154 16.2855L14.2181 16.2742C14.2313 16.2429 14.2511 16.2122 14.2676 16.1809C14.2788 16.1562 14.2874 16.1302 14.2993 16.1048C14.3106 16.0795 14.3192 16.0602 14.331 16.0282C14.3562 15.9802 14.372 15.9242 14.4037 15.8682C14.4037 15.8548 14.4136 15.8415 14.4169 15.8295C14.4454 15.7322 14.4764 15.6328 14.5154 15.5382C14.5154 15.5348 14.5121 15.5302 14.5134 15.5268C14.5247 15.4695 14.5782 15.4488 14.6099 15.4148V15.4168C14.6257 15.4115 14.6343 15.4022 14.6423 15.4022C14.6515 15.3862 14.6608 15.3795 14.6707 15.3702C14.6965 15.3383 14.7203 15.3049 14.742 15.2702C14.7718 15.2262 14.7989 15.1795 14.8326 15.1348C14.8431 15.1208 14.8524 15.0982 14.8702 15.0982C14.8735 15.0982 14.8749 15.0982 14.8782 15.0995C14.9039 15.1062 14.896 15.1362 14.8927 15.1555C14.8792 15.2275 14.8792 15.3015 14.8927 15.3735C14.9006 15.4295 14.9099 15.4855 14.9145 15.5415L14.9132 15.5668C14.9281 15.6074 14.9361 15.6502 14.937 15.6935C14.9502 15.7482 14.9608 15.8002 14.9766 15.8548C15.0242 15.9548 15.0592 16.0548 15.0909 16.1575L15.0942 16.1562C15.1471 16.2362 15.2019 16.3295 15.2561 16.4162C15.272 16.4375 15.2892 16.4602 15.305 16.4762H15.3083V16.4895C15.3242 16.4895 15.3321 16.5242 15.3559 16.4922C15.3513 16.4762 15.348 16.4762 15.3427 16.4762C15.3344 16.4591 15.3278 16.4412 15.3229 16.4229C15.3196 16.4122 15.3143 16.3995 15.3129 16.3895C15.3096 16.3786 15.3069 16.3675 15.305 16.3562C15.3037 16.3515 15.3037 16.3449 15.3017 16.3402C15.3004 16.3293 15.2982 16.3186 15.2951 16.3082L15.2878 16.2582L15.2792 16.2089C15.2746 16.2042 15.2746 16.1975 15.2746 16.1915C15.2733 16.1849 15.272 16.1782 15.268 16.1715C15.2667 16.1529 15.2634 16.1335 15.2607 16.1142L15.2462 15.9995C15.2449 15.9795 15.2383 15.9608 15.237 15.9415C15.2179 15.7322 15.2259 15.5214 15.2607 15.3142H15.27C15.2892 15.2182 15.3083 15.1075 15.3268 15.0035C15.3321 15.0035 15.3367 15.0055 15.3427 15.0055C15.3361 15.1788 15.3539 15.3522 15.3922 15.5222C15.3936 15.5255 15.3936 15.5302 15.3936 15.5335C15.4173 15.5988 15.4431 15.6648 15.4636 15.7322C15.4682 15.7455 15.4729 15.7608 15.4781 15.7735C15.4868 15.7962 15.4991 15.8174 15.5145 15.8362C15.5191 15.8442 15.5277 15.8522 15.5277 15.8602C15.5442 15.8728 15.5521 15.8868 15.5654 15.9002C15.5746 15.9108 15.5825 15.9242 15.5918 15.9355C15.6248 15.9675 15.6605 15.9975 15.7015 16.0395C15.6971 16.0085 15.6934 15.9774 15.6902 15.9462C15.6876 15.9175 15.6823 15.8888 15.6797 15.8568C15.6797 15.8568 15.6711 15.8522 15.6711 15.8488C15.6705 15.8247 15.6683 15.8007 15.6645 15.7768L15.638 15.5568C15.638 15.5502 15.638 15.5462 15.6394 15.5402C15.6394 15.5335 15.6413 15.5222 15.6413 15.5222C15.6299 15.4304 15.6255 15.3379 15.6281 15.2455L15.6268 15.2342C15.6128 15.1526 15.6124 15.0692 15.6255 14.9875C15.6288 14.9655 15.6268 14.9408 15.6288 14.9188C15.6288 14.9142 15.6268 14.9108 15.6268 14.9055C15.6268 14.8002 15.6314 14.6922 15.6632 14.5908L15.6651 14.5795C15.6731 14.5315 15.681 14.4742 15.6889 14.4208C15.6969 14.3675 15.7048 14.3142 15.7107 14.2608C15.714 14.2388 15.7206 14.2275 15.7332 14.2275C15.7398 14.2275 15.7491 14.2308 15.7596 14.2388L15.7927 14.2588L15.8429 14.2915C15.8587 14.3028 15.8746 14.3135 15.8891 14.3282C15.8905 14.3295 15.8918 14.3315 15.8951 14.3328C15.8986 14.3358 15.9023 14.3385 15.9063 14.3408H15.9096V14.3395C16.0206 14.3955 16.0814 14.4902 16.1567 14.5782C16.1905 14.6032 16.2159 14.6381 16.2294 14.6782C16.279 14.7442 16.3153 14.8148 16.3411 14.8935C16.3424 14.9002 16.3457 14.9068 16.3477 14.9135C16.349 14.9202 16.3523 14.9175 16.3537 14.9335C16.3669 14.9495 16.3735 14.9702 16.3821 14.9895L16.4045 15.0455L16.4171 15.0722C16.4204 15.0788 16.4237 15.0835 16.4283 15.0882C16.4351 15.0964 16.4444 15.102 16.4548 15.1042C16.4726 15.0455 16.4316 14.9895 16.4475 14.9335H16.4521C16.4521 14.9175 16.4475 14.9168 16.4475 14.9088C16.4316 14.8048 16.4184 14.7022 16.3748 14.6068L16.3741 14.5802C16.3358 14.4848 16.3173 14.3868 16.2618 14.3028C16.2488 14.2923 16.2401 14.2774 16.2374 14.2608C16.2202 14.2448 16.2109 14.2255 16.201 14.2068C16.1925 14.1929 16.1842 14.1789 16.1759 14.1648V14.1762C16.1759 14.1748 16.1726 14.1728 16.1726 14.1715V14.1695C16.128 14.1047 16.0795 14.0428 16.0272 13.9842L16.0206 13.9775C16.014 13.9708 16.0074 13.9708 16.0008 13.9555C15.9631 13.9395 15.9268 13.8915 15.8885 13.8575C15.8839 13.8528 15.8792 13.8508 15.8753 13.8461C15.8726 13.8435 15.8753 13.8395 15.8601 13.8355C15.7808 13.7808 15.7213 13.7135 15.6526 13.6655C15.6394 13.6495 15.6235 13.6588 15.6176 13.6335C15.8224 13.6201 16.0206 13.6448 16.2268 13.6575V13.6495H16.2281C16.3299 13.6655 16.425 13.6848 16.5169 13.7248C16.5202 13.7248 16.5235 13.7295 16.5281 13.7295V13.7328C16.5915 13.7475 16.6517 13.7761 16.7118 13.8048C16.725 13.8115 16.7409 13.8315 16.7547 13.8128C16.766 13.7968 16.7481 13.7821 16.7389 13.7695C16.7151 13.7361 16.6926 13.7028 16.6675 13.6688C16.6629 13.6608 16.6543 13.6528 16.6543 13.6448C16.6074 13.5981 16.571 13.5448 16.5288 13.4981C16.5149 13.4848 16.5017 13.4707 16.4891 13.4561C16.4391 13.4239 16.393 13.3858 16.3517 13.3428C16.3437 13.3375 16.3358 13.3281 16.3279 13.3281C16.3081 13.3281 16.2856 13.3055 16.2645 13.2908C16.2446 13.2768 16.2222 13.2641 16.201 13.2495C16.1931 13.2448 16.1852 13.2415 16.1772 13.2361C16.0808 13.1995 15.9836 13.1661 15.8865 13.1295C15.8839 13.1295 15.8779 13.1275 15.8779 13.1261C15.8779 13.1261 15.8693 13.1261 15.8667 13.1248C15.8489 13.1242 15.832 13.1171 15.8191 13.1048C15.8111 13.0989 15.8049 13.0908 15.8013 13.0815L15.7979 13.0735C15.7933 13.0601 15.7913 13.0461 15.7933 13.0315C15.7962 12.9824 15.7936 12.9332 15.7854 12.8848C15.7841 12.8701 15.7808 12.8575 15.7775 12.8428C15.7746 12.8294 15.7715 12.8161 15.7682 12.8028L15.7583 12.7615C15.7534 12.7414 15.7481 12.7214 15.7424 12.7015C15.7424 12.7015 15.7358 12.7001 15.7358 12.6948C15.7206 12.5981 15.683 12.5001 15.6539 12.4041L15.6427 12.3661C15.6213 12.3324 15.6083 12.294 15.605 12.2541C15.605 12.2408 15.605 12.2301 15.6063 12.2168L15.6076 12.1995C15.611 12.1815 15.6143 12.1628 15.6209 12.1448L15.6427 12.0728C15.6427 12.0695 15.6427 12.0615 15.6447 12.0615H15.6427C15.6625 11.9481 15.7081 11.8521 15.7398 11.7495C15.7398 11.7481 15.7431 11.7481 15.7431 11.7461L15.7497 11.7395C15.751 11.7381 15.7524 11.7381 15.7524 11.7368C15.7789 11.7016 15.7914 11.6575 15.7874 11.6134C15.7852 11.5897 15.7792 11.5665 15.7695 11.5448C15.759 11.5161 15.7444 11.4888 15.7299 11.4601C15.7286 11.4568 15.7233 11.4534 15.7206 11.4521C15.7193 11.4501 15.7173 11.4488 15.7173 11.4468C15.6578 11.3766 15.6109 11.2965 15.5786 11.2101L15.5687 11.1848C15.5654 11.1814 15.5654 11.1781 15.5634 11.1734L15.5621 11.1688C15.5602 11.1651 15.5587 11.1613 15.5574 11.1574L15.5588 11.1588L15.5574 11.1554C15.5593 11.1457 15.562 11.1361 15.5654 11.1268C15.568 11.1201 15.572 11.1154 15.5746 11.1094C15.5779 11.1048 15.5825 11.1001 15.5878 11.0948L15.5938 11.0901C15.6367 11.0274 15.6764 10.9621 15.7239 10.9014C15.7434 10.8787 15.7567 10.8513 15.7625 10.8218C15.7683 10.7924 15.7664 10.7619 15.757 10.7334C15.7306 10.6421 15.7332 10.6401 15.8231 10.6068C15.8396 10.6001 16.0319 10.5268 16.1092 10.5028L16.1587 10.4828L16.1713 10.4788C16.2831 10.4358 16.3952 10.3936 16.5076 10.3521C16.5109 10.3508 16.5155 10.3508 16.5188 10.3508C16.6114 10.3028 16.7125 10.2721 16.8096 10.2388C16.8228 10.2341 16.834 10.2288 16.8492 10.2254C16.8658 10.2121 16.9133 10.2021 16.9285 10.1888C17.0078 10.1634 17.0719 10.1268 17.1433 10.1108C17.1744 10.0843 17.213 10.0687 17.2536 10.0661ZM13.6643 10.4681C13.7159 10.4688 13.767 10.4768 13.8163 10.4921L13.8256 10.4948C13.9967 10.5481 14.1711 10.5894 14.3343 10.6681C14.3608 10.6808 14.3899 10.6934 14.409 10.7194C14.5147 10.7961 14.6119 10.8841 14.6931 10.9894C14.8187 11.1528 14.9442 11.3174 15.0612 11.5048C15.0539 11.5028 15.0467 11.4994 15.0387 11.4961V11.4954C14.9957 11.4769 14.9548 11.4539 14.9165 11.4268C14.7728 11.3389 14.6241 11.2596 14.4711 11.1894C14.4011 11.1586 14.3277 11.1362 14.2524 11.1228C14.0542 11.0857 13.8518 11.0765 13.6511 11.0954C13.5956 11.1001 13.5388 11.0954 13.4826 11.0954C13.4417 11.0954 13.4225 11.0754 13.4225 11.0341C13.4225 10.8774 13.4304 10.7194 13.3828 10.5674C13.3729 10.5354 13.3921 10.5221 13.4192 10.5128C13.498 10.4839 13.5811 10.4688 13.665 10.4681H13.6643ZM11.8472 10.9834C12.1267 10.9734 12.3838 11.0534 12.6183 11.1994C12.7056 11.2528 12.7855 11.3168 12.8582 11.3888L12.8674 11.3974C12.9481 11.4794 13.0194 11.5708 13.0789 11.6708C13.1318 11.7575 13.1179 11.8521 13.1 11.9468C13.0525 12.2175 12.8912 12.4175 12.7089 12.6048C12.5338 12.7841 12.315 12.9008 12.1122 13.0368C11.8248 13.2301 11.4964 13.3055 11.162 13.3555C10.7444 13.4175 10.3208 13.4241 9.90258 13.4801C9.7506 13.4995 9.59598 13.5121 9.44401 13.5395C9.26503 13.5691 9.10417 13.6669 8.99468 13.8128C8.95372 13.8688 8.92861 13.9375 8.88896 14.0148C8.86073 13.9283 8.86689 13.8341 8.90614 13.7521C8.97845 13.5945 9.103 13.4671 9.25833 13.3921C9.53255 13.2455 9.83915 13.2175 10.1325 13.1421C10.3704 13.0815 10.6149 13.0461 10.8508 12.9808C11.1768 12.8925 11.4927 12.7696 11.793 12.6141C11.9516 12.5308 12.1168 12.4461 12.2265 12.2908C12.2637 12.2374 12.2899 12.177 12.3035 12.1132C12.3172 12.0495 12.3179 11.9836 12.3058 11.9195C12.3025 11.8968 12.2959 11.8861 12.288 11.8841C12.28 11.8828 12.2681 11.8888 12.2549 11.9021C12.136 12.0088 12.0124 12.1115 11.8776 12.2015C11.6662 12.3388 11.4329 12.4215 11.1917 12.4815C10.8085 12.5775 10.4213 12.6588 10.0261 12.6881C9.74743 12.7056 9.4722 12.7599 9.20745 12.8495C8.98279 12.9281 8.7535 13.0061 8.57311 13.1761C8.55065 13.1961 8.52356 13.2141 8.48721 13.2415L8.49184 13.2161L8.47466 13.2288V13.2255C8.48127 13.2215 8.48523 13.2168 8.49052 13.2141C8.50082 13.1667 8.51963 13.1215 8.54602 13.0808L8.97288 12.3995C8.9805 12.3866 8.98959 12.3748 8.99997 12.3641C9.22067 12.1441 9.43145 11.9128 9.67594 11.7208C10.0816 11.4008 10.5244 11.1508 11.0338 11.0408C11.1574 11.0134 11.2829 10.9941 11.4105 10.9941C11.5558 10.9928 11.7032 10.9874 11.8466 10.9828L11.8472 10.9834ZM6.80424 10.9981C6.81283 10.9981 6.82406 10.9994 6.83596 11.0041C6.85578 11.0108 6.87692 11.0088 6.89807 11.0108C6.98199 11.0294 7.06987 11.0308 7.15312 11.0521C7.16105 11.0521 7.16436 11.0534 7.17559 11.0588C7.26467 11.0631 7.35316 11.0759 7.4399 11.0968C7.53571 11.1101 7.63152 11.1208 7.72601 11.1368C7.74782 11.1368 7.76698 11.1354 7.78746 11.1481C7.79077 11.1481 7.79539 11.1468 7.79539 11.1481C7.9064 11.1614 7.99362 11.1681 8.08943 11.1848H8.07952V11.1881C8.14295 11.1961 8.18524 11.2041 8.23348 11.2121C8.28436 11.2201 8.33656 11.2321 8.38546 11.2321H8.38744C8.39206 11.2321 8.39537 11.2348 8.39867 11.2348L8.41255 11.2381C8.44426 11.2394 8.45682 11.2568 8.46211 11.2848C8.48721 11.4361 8.50836 11.5881 8.53942 11.7401C8.53942 11.7515 8.54602 11.7615 8.5447 11.7708L8.55792 11.8441L8.59822 12.0655C8.59822 12.0721 8.59822 12.0855 8.60021 12.0895V12.0961C8.61606 12.1915 8.63324 12.2781 8.6491 12.3695V12.4001C8.56715 12.491 8.50021 12.5945 8.45087 12.7068C8.43105 12.7568 8.40462 12.8081 8.3848 12.8575L8.38083 12.8595C8.36497 12.9101 8.33986 12.9595 8.31608 13.0081C8.31409 13.0081 8.31277 13.0115 8.31145 13.0148C8.30815 13.0208 8.30616 13.0308 8.30352 13.0348V13.0368C8.26977 13.1328 8.2273 13.2254 8.17665 13.3135C8.17137 13.3268 8.1608 13.3395 8.1608 13.3508C8.14494 13.4108 8.1304 13.4721 8.1 13.5281C8.09168 13.5807 8.07517 13.6315 8.05111 13.6788C8.03113 13.769 8.00236 13.857 7.96521 13.9415C7.96058 13.9542 7.95265 13.9655 7.95265 13.9782L7.95133 13.9828C7.94935 13.9875 7.94803 13.9962 7.94472 14.0022C7.94353 14.0091 7.9413 14.0159 7.93812 14.0222L7.93679 14.0288L7.91169 14.5235L7.92556 14.5288L7.98767 14.4055C8.00816 14.3655 8.02402 14.3235 8.04714 14.2822C8.05904 14.2535 8.08018 14.2248 8.08018 14.1955C8.1271 14.1155 8.17005 14.0355 8.21894 13.9622C8.22423 13.9542 8.23348 13.9488 8.23877 13.9335C8.27973 13.8688 8.32731 13.7841 8.37621 13.7108C8.39339 13.6821 8.41189 13.6575 8.42775 13.6288C8.43832 13.5968 8.4555 13.5921 8.47003 13.5781C8.48391 13.5635 8.49184 13.5488 8.52356 13.5348C8.52356 13.5475 8.52686 13.5588 8.52554 13.5701L8.52356 13.5768C8.52356 13.5828 8.52091 13.5888 8.51893 13.5955L8.51761 13.6021C8.51563 13.6068 8.51563 13.6101 8.51431 13.6148C8.51304 13.6191 8.51259 13.6237 8.51298 13.6281C8.51298 13.6321 8.50968 13.6348 8.511 13.6401L8.50902 13.6501H8.511C8.49647 13.7461 8.49779 13.8548 8.49514 13.9555C8.49514 13.9602 8.49184 13.9688 8.49184 13.9715L8.49514 13.9702C8.50836 14.0662 8.52356 14.1622 8.53611 14.2582H8.53479C8.53677 14.2582 8.53809 14.2782 8.53809 14.2868C8.55395 14.3828 8.57444 14.4802 8.58567 14.5782L8.58699 14.5895C8.58897 14.5962 8.59029 14.6008 8.59029 14.6068C8.60615 14.6842 8.66298 14.7368 8.698 14.8042C8.72377 14.8408 8.75086 14.8842 8.77465 14.9162H8.77597V14.9175C8.85526 14.9882 8.92134 15.0602 9.01054 15.1242C9.02376 15.1242 9.03631 15.1402 9.04887 15.1402H9.04755V15.1482C9.07926 15.1515 9.10569 15.1768 9.13939 15.1675C9.14552 15.1658 9.15132 15.1631 9.15657 15.1595C9.1612 15.1562 9.16781 15.1528 9.16979 15.1482C9.17706 15.1335 9.16318 15.1255 9.15195 15.1208C9.02178 15.0375 9.04226 14.9008 9.0264 14.7735H9.03169V14.7715C9.0634 14.8022 9.08521 14.8315 9.1123 14.8648C9.11652 14.8715 9.12189 14.8774 9.12816 14.8822L9.1612 14.9188C9.18366 14.9428 9.20745 14.9655 9.23256 14.9855C9.25833 15.0068 9.28542 15.0295 9.31516 15.0455C9.32837 15.0502 9.34093 15.0615 9.35216 15.0615H9.34886C9.44401 15.1082 9.5266 15.1528 9.61316 15.1988C9.63276 15.2013 9.65117 15.2097 9.66602 15.2228C9.69774 15.3188 9.7354 15.4148 9.72615 15.5268C9.72946 15.5268 9.73276 15.5382 9.73408 15.5468C9.73517 15.5535 9.73472 15.5604 9.73276 15.5668C9.744 15.6602 9.74399 15.7535 9.73078 15.8468C9.73256 15.851 9.73336 15.8555 9.73313 15.86C9.73291 15.8645 9.73165 15.8689 9.72946 15.8728C9.72748 15.8762 9.72946 15.8775 9.72814 15.8808H9.72946C9.72946 15.9742 9.72814 16.0662 9.70435 16.1575C9.70237 16.2489 9.67395 16.3375 9.6647 16.4282C9.6647 16.4315 9.66272 16.4349 9.6614 16.4395C9.65611 16.4569 9.64818 16.4775 9.68651 16.4729V16.4715C9.77241 16.3809 9.85831 16.2935 9.9376 16.1929V16.1995C9.93892 16.1675 9.95742 16.1509 9.97526 16.1355C10.0083 16.1022 10.0413 16.0488 10.075 16.0022C10.1081 15.9555 10.1418 15.9108 10.1755 15.8648L10.1768 15.8568C10.1814 15.8408 10.188 15.8302 10.196 15.8262C10.1993 15.8248 10.2026 15.8228 10.2052 15.8228H10.2158C10.2276 15.825 10.2388 15.8295 10.2488 15.8362C10.2663 15.8459 10.2833 15.8566 10.2997 15.8682C10.3949 15.9208 10.5026 15.9562 10.5739 16.0475C10.5818 16.0555 10.5911 16.0568 10.599 16.0728C10.6321 16.0888 10.6625 16.1262 10.6869 16.1609L10.712 16.1849C10.7133 16.1862 10.7153 16.1862 10.7166 16.1882C10.8422 16.2949 10.8514 16.3522 10.7609 16.4949C10.7583 16.4995 10.753 16.5042 10.7503 16.5042C10.7466 16.517 10.7413 16.5294 10.7345 16.5409C10.7308 16.5493 10.7264 16.5573 10.7213 16.5649L10.7147 16.5762C10.6915 16.6149 10.6658 16.6549 10.6565 16.6995C10.6468 16.736 10.6441 16.774 10.6486 16.8115C10.6658 16.8742 10.6816 16.9382 10.6948 17.0022C10.7028 17.0402 10.7107 17.0789 10.7133 17.1189C10.7266 17.2135 10.6816 17.2709 10.6023 17.3109V17.3095C10.5865 17.3109 10.5852 17.3209 10.5772 17.3255C10.5733 17.3293 10.5689 17.3325 10.564 17.3349C10.556 17.3412 10.5476 17.347 10.5389 17.3522C10.5164 17.3658 10.4986 17.386 10.488 17.4102C10.488 17.4149 10.488 17.4135 10.4867 17.4169C10.4854 17.4195 10.4867 17.4262 10.4854 17.4262H10.49V17.4355C10.4741 17.4822 10.4662 17.5155 10.4583 17.5395C10.4563 17.5462 10.4537 17.5509 10.4517 17.5555C10.4504 17.5609 10.4471 17.5635 10.4451 17.5669C10.4437 17.5702 10.4404 17.5735 10.4391 17.5749C10.4348 17.5791 10.4292 17.5819 10.4233 17.5829H10.4186C10.4073 17.582 10.3961 17.5793 10.3856 17.5749C10.3631 17.5669 10.3341 17.5555 10.2944 17.5429C10.2918 17.5415 10.2885 17.5415 10.2871 17.5395C10.2848 17.538 10.282 17.5371 10.2792 17.5369L10.2614 17.5289H10.2548V17.5222H10.2534C10.2059 17.5062 10.1609 17.4969 10.1187 17.4789C10.0935 17.4695 10.0658 17.4615 10.0394 17.4502C10.0063 17.4422 9.97328 17.4262 9.93958 17.4262C9.84707 17.3942 9.75391 17.3782 9.6647 17.3462C9.65743 17.3462 9.65215 17.3475 9.63629 17.3462V17.3475C9.57286 17.3349 9.52198 17.3189 9.46185 17.3075C9.40304 17.2982 9.38123 17.2675 9.38718 17.2089C9.39048 17.1842 9.38916 17.1555 9.38916 17.1315C9.38916 17.1235 9.38718 17.1202 9.38718 17.1049C9.37793 17.0882 9.36339 17.0695 9.35084 17.0482C9.347 17.0429 9.34388 17.037 9.34159 17.0309C9.33366 17.0229 9.3178 17.0149 9.3178 17.0055C9.30194 17.0022 9.30789 16.9989 9.30326 16.9955C9.25437 16.9489 9.26824 16.8869 9.27485 16.8275L9.27617 16.8082L9.28146 16.7715C9.28278 16.7649 9.28278 16.7582 9.2841 16.7542C9.30987 16.6542 9.31582 16.5609 9.20943 16.5009C9.19688 16.4929 9.18961 16.4849 9.17309 16.4742V16.4769C9.12533 16.4378 9.07572 16.4011 9.02442 16.3669C9.01649 16.3509 9.01451 16.3475 8.99865 16.3409C8.92388 16.3 8.85497 16.2491 8.79381 16.1895L8.74491 16.1629H8.75152C8.74161 16.1462 8.73038 16.1482 8.72245 16.1402C8.70989 16.1308 8.69866 16.1242 8.6828 16.1135C8.60351 16.0455 8.4958 15.9815 8.4099 15.9035C8.38017 15.8935 8.36101 15.8702 8.33722 15.8502V15.8475C8.2533 15.7875 8.17071 15.7302 8.08811 15.6662H8.09009C8.08018 15.6662 8.08018 15.6582 8.06432 15.6502C8.01675 15.6262 7.96917 15.5862 7.92821 15.5542C7.91499 15.5382 7.90244 15.5382 7.88988 15.5382C7.85156 15.5062 7.81852 15.4915 7.7868 15.4628C7.77359 15.4548 7.76301 15.4455 7.74715 15.4362C7.65299 15.3819 7.56521 15.317 7.48549 15.2428L7.47756 15.2355L7.46302 15.2195C7.45047 15.2038 7.44186 15.1853 7.43792 15.1655V15.1782C7.38043 15.1155 7.34276 15.0435 7.29519 14.9782L7.29056 14.9682C7.28862 14.9654 7.28747 14.9622 7.28726 14.9588C7.2859 14.9532 7.28523 14.9473 7.28528 14.9415C7.28756 14.9286 7.29301 14.9164 7.30114 14.9062C7.30114 14.9028 7.30312 14.8982 7.30312 14.8928C7.31898 14.7908 7.37448 14.6982 7.41413 14.6022V14.5775C7.41413 14.5775 7.41413 14.5628 7.41215 14.5562L7.4095 14.5468L7.4062 14.5435C7.4031 14.5403 7.39923 14.538 7.39497 14.5368H7.39034C7.37653 14.5383 7.36332 14.5434 7.35202 14.5515C7.33888 14.5596 7.32669 14.5693 7.31567 14.5802L7.30246 14.5902C7.299 14.5941 7.2959 14.5983 7.29321 14.6028L7.28858 14.6095C7.28858 14.6108 7.28726 14.6095 7.28726 14.6095C7.28726 14.6108 7.28528 14.6095 7.28528 14.6095V14.6108C7.25356 14.6475 7.20599 14.6795 7.16502 14.7135C7.15709 14.7215 7.14255 14.7308 7.14255 14.7388V14.7375H7.13793C7.12471 14.7535 7.10819 14.7535 7.09035 14.7455L6.88551 14.6542C6.86966 14.6462 6.86173 14.6288 6.85908 14.6128C6.85714 14.6058 6.85538 14.5986 6.8538 14.5915L6.84917 14.5742V14.5775C6.82538 14.4655 6.86371 14.3822 6.88419 14.2862C6.88551 14.2782 6.8875 14.2702 6.8875 14.2622C6.90335 14.1688 6.9093 14.0702 6.93639 13.9802V13.9388C6.92318 13.8361 6.92186 13.7355 6.91459 13.6321L6.91591 13.5801C6.90666 13.3895 6.8941 13.1995 6.8875 13.0088C6.87296 12.6101 6.84124 12.2135 6.85248 11.8155C6.85439 11.7424 6.83755 11.67 6.80358 11.6054C6.78355 11.568 6.76171 11.5315 6.73816 11.4961C6.72078 11.4742 6.70884 11.4485 6.70332 11.421C6.6978 11.3935 6.69887 11.3651 6.70645 11.3381C6.73023 11.2448 6.74807 11.1488 6.76591 11.0548C6.7712 11.0214 6.77979 10.9988 6.80556 10.9974L6.80424 10.9981ZM6.69455 11.2514L6.69786 11.2614C6.70116 11.2828 6.69323 11.3048 6.68464 11.3368C6.67743 11.3184 6.67743 11.2979 6.68464 11.2794C6.68727 11.2701 6.69058 11.261 6.69455 11.2521V11.2514ZM13.7747 11.2534C13.8606 11.2521 13.9445 11.2568 14.0258 11.2694C14.1711 11.2808 14.3033 11.3081 14.3892 11.3788C14.452 11.4054 14.5141 11.4388 14.5742 11.4748C14.7196 11.5628 14.8649 11.6541 15.0116 11.7435C15.0423 11.7617 15.0688 11.7863 15.0896 11.8155L15.237 12.0255C15.2449 12.0361 15.2568 12.0495 15.2469 12.0635C15.2436 12.0679 15.239 12.0712 15.2337 12.0728C15.2218 12.0755 15.2112 12.0715 15.2006 12.0655C15.1359 12.0281 15.0685 11.9935 15.0037 11.9561C14.7577 11.8191 14.4945 11.7159 14.2214 11.6494C14.1507 11.6294 14.0839 11.6094 14.0079 11.5994L13.9075 11.5768C13.9049 11.5788 13.9108 11.5848 13.9187 11.5928C13.922 11.5961 13.9253 11.5994 13.9267 11.6028C13.934 11.6117 13.943 11.6192 13.9531 11.6248L13.9663 11.6314C14.117 11.7081 14.3714 11.7561 14.5564 11.8428L14.5947 11.8621C14.6978 11.9155 14.7916 11.9835 14.8854 12.0555L15.0625 12.1935C15.3295 12.3888 15.492 12.6528 15.5713 12.9728C15.5733 12.9821 15.5766 12.9921 15.5779 13.0015L15.5845 13.0108C15.5977 13.0308 15.6004 13.0541 15.5958 13.0748C15.5971 13.0801 15.5971 13.0848 15.5991 13.0895C15.5958 13.1361 15.5594 13.1161 15.5383 13.1161C15.4014 13.1086 15.266 13.084 15.1352 13.0428H15.1312C15.0975 13.0321 15.0533 13.0161 15.0222 13.0068C14.8828 12.9568 14.7513 12.8981 14.6158 12.8481C14.4493 12.7881 14.3185 12.6741 14.1784 12.5728C13.9434 12.4103 13.7221 12.2283 13.517 12.0288C13.4949 12.009 13.477 11.985 13.4641 11.9581C13.4498 11.9244 13.4361 11.8904 13.4232 11.8561L13.3994 11.7935C13.3945 11.78 13.3892 11.7666 13.3835 11.7535L13.3822 11.7501C13.3802 11.7488 13.3802 11.7455 13.3802 11.7435V11.7421L13.3789 11.7355C13.3702 11.7087 13.3719 11.6797 13.3835 11.6541C13.3848 11.6508 13.3848 11.6474 13.3868 11.6448L13.3901 11.6334L13.3928 11.6241C13.3947 11.6208 13.3947 11.6154 13.3961 11.6128L13.398 11.6028L13.3994 11.5914L13.4013 11.5821L13.4027 11.5708L13.404 11.5614L13.406 11.5501L13.4073 11.5408L13.4093 11.5294C13.4093 11.5261 13.4093 11.5228 13.4106 11.5194C13.4106 11.5168 13.4106 11.5114 13.4126 11.5088V11.3314C13.4106 11.2768 13.4298 11.2554 13.4839 11.2574C13.5368 11.2588 13.591 11.2568 13.6445 11.2541L13.6941 11.2568C13.7205 11.2554 13.7469 11.2534 13.7747 11.2534ZM13.9623 11.6081C13.9683 11.6106 13.9745 11.6124 13.9808 11.6134H13.9822C13.9742 11.6188 13.9637 11.6168 13.9604 11.6268C13.9577 11.6134 13.959 11.6088 13.9623 11.6081ZM14.5438 11.8361C14.5464 11.8375 14.5491 11.8389 14.5517 11.8401H14.5537L14.5438 11.8361ZM13.2831 11.9541L13.2844 11.9561C13.289 11.9581 13.2936 11.9628 13.2989 11.9721C13.3491 12.0748 13.4192 12.1588 13.4972 12.2381C13.5791 12.3181 13.6683 12.3915 13.7542 12.4701C13.9313 12.6315 14.1123 12.7901 14.2947 12.9455C14.4123 13.0455 14.5537 13.0975 14.7044 13.1375C15.0467 13.2255 15.3975 13.2588 15.7451 13.3068C15.8369 13.3201 15.9195 13.3501 15.9922 13.4108H15.9876C15.9942 13.4161 15.9988 13.4188 16.0034 13.4241C15.8079 13.3955 15.6136 13.3975 15.418 13.3935C15.2039 13.3888 14.9945 13.4135 14.7837 13.4381C14.7092 13.4453 14.6341 13.4394 14.5617 13.4208C14.3581 13.3741 14.1665 13.2908 13.9736 13.2095C13.7568 13.1161 13.5764 12.9741 13.4046 12.8175L13.367 12.7808C13.3111 12.726 13.2652 12.6617 13.2315 12.5908L13.2302 12.5868C13.1707 12.4455 13.174 12.2881 13.2196 12.1148C13.2322 12.0681 13.2461 12.0215 13.2606 11.9748C13.2652 11.9601 13.2738 11.9521 13.2831 11.9541ZM13.1192 12.7408C13.1621 12.8961 13.2732 13.0048 13.367 13.1228L13.3861 13.1488L13.4046 13.1741C13.4253 13.1979 13.4489 13.2189 13.4747 13.2368C13.4859 13.2448 13.4945 13.2501 13.5051 13.2588L13.5183 13.2701C13.6341 13.3621 13.7529 13.4501 13.8745 13.5341L14.0918 13.6868C14.1903 13.7555 14.2934 13.8135 14.4011 13.8641C14.4275 13.8775 14.4553 13.8881 14.4824 13.9008C14.5643 13.9362 14.6476 13.9668 14.7328 13.9942L14.746 13.9988C14.7989 14.0122 14.8564 14.0175 14.9112 14.0242C14.9323 14.0255 14.9535 14.0288 14.972 14.0308C14.986 14.0339 14.9994 14.0393 15.0116 14.0468C15.0277 14.0563 15.0428 14.0675 15.0566 14.0802C15.1055 14.1248 15.1517 14.1888 15.1544 14.2268C15.1544 14.2335 15.1544 14.2388 15.153 14.2435C15.1517 14.2468 15.1517 14.2482 15.1497 14.2502C15.1431 14.2608 15.1339 14.2702 15.1279 14.2822C15.1081 14.3155 15.0883 14.3488 15.0718 14.3842L15.0645 14.4022C15.0523 14.4294 15.0461 14.4591 15.0463 14.489C15.0466 14.5189 15.0532 14.5484 15.0658 14.5755C15.1418 14.4995 15.2099 14.4182 15.2594 14.3248C15.2826 14.2821 15.3016 14.2372 15.3162 14.1908C15.3229 14.1728 15.3182 14.1522 15.3229 14.1348C15.3295 14.1148 15.307 14.0882 15.3162 14.0748C15.3162 14.0742 15.3182 14.0742 15.3196 14.0722C15.3223 14.07 15.3254 14.0684 15.3288 14.0675C15.3354 14.0662 15.342 14.0642 15.3466 14.0642C15.3592 14.0628 15.3704 14.0608 15.383 14.0608C15.4147 14.0608 15.4451 14.0662 15.4755 14.0755C15.494 14.0822 15.488 14.1055 15.4861 14.1235V14.1268C15.4828 14.1842 15.4596 14.2368 15.4385 14.2882C15.4339 14.3007 15.4286 14.3129 15.4226 14.3248C15.3909 14.4132 15.3483 14.4972 15.2958 14.5748C15.2178 14.6788 15.1279 14.7762 14.9819 14.7815H14.9403C14.9152 14.7815 14.8894 14.7882 14.8643 14.7895C14.852 14.7887 14.8398 14.7919 14.8295 14.7988C14.8192 14.8057 14.8115 14.8158 14.8075 14.8275C14.7962 14.8535 14.781 14.8755 14.7691 14.9008L14.7645 14.9122C14.7049 15.0581 14.6126 15.1882 14.4949 15.2922C14.4421 15.3388 14.3865 15.3848 14.3297 15.4275C14.2337 15.491 14.1297 15.5412 14.0205 15.5768L13.9967 15.5862L13.9742 15.5962L13.961 15.6008C13.9544 15.6022 13.9471 15.6055 13.9412 15.6075C13.9174 15.6168 13.8982 15.6308 13.9108 15.6675C13.924 15.7075 13.9524 15.7188 13.9888 15.7208C13.9967 15.7208 14.0059 15.7208 14.0152 15.7188C14.049 15.7157 14.0823 15.7083 14.1143 15.6968C14.146 15.6855 14.1777 15.6702 14.2108 15.6568C14.2333 15.6468 14.2551 15.6368 14.2788 15.6295C14.259 15.7108 14.2491 15.7862 14.2233 15.8562L14.2095 15.8922C14.1903 15.9352 14.1705 15.9778 14.15 16.0202C14.1381 16.0488 14.1236 16.0762 14.109 16.1035C14.033 16.2569 13.9471 16.4035 13.8414 16.5402C13.7744 16.627 13.6952 16.7034 13.6062 16.7669C13.5838 16.7834 13.5611 16.7997 13.5381 16.8155C13.4581 16.8676 13.3741 16.9133 13.287 16.9522L13.2447 16.9722L13.2097 16.9855L13.1813 16.9975C13.1549 17.0082 13.1271 17.0175 13.1 17.0275C13.0634 17.0405 13.0264 17.0523 12.989 17.0629C12.8654 17.1003 12.7396 17.1301 12.6124 17.1522C12.6071 17.1522 12.6038 17.1542 12.5992 17.1542C12.5628 17.1609 12.5278 17.1655 12.4915 17.1715C12.4531 17.1769 12.4148 17.1829 12.3752 17.1875C12.242 17.2021 12.1074 17.1976 11.9754 17.1742L11.9569 17.1689C11.9235 17.1593 11.8914 17.1459 11.8611 17.1289C11.8201 17.1062 11.7818 17.0822 11.7408 17.0622C11.7115 17.0472 11.6829 17.031 11.6549 17.0135C11.6185 16.9918 11.5832 16.9682 11.5492 16.9429C11.481 16.8976 11.4275 16.8332 11.3953 16.7575C11.3776 16.7132 11.3573 16.67 11.3345 16.6282C11.3279 16.6149 11.3206 16.6042 11.3146 16.5929C11.2606 16.5062 11.1994 16.4244 11.1316 16.3482C11.1052 16.3157 11.0776 16.2841 11.049 16.2535C11.0351 16.2375 11.0226 16.2215 11.008 16.2069C10.9524 16.144 10.8951 16.0826 10.8362 16.0228L10.792 15.9782C10.7176 15.9043 10.6371 15.837 10.5515 15.7768C10.4875 15.7299 10.4206 15.6871 10.3512 15.6488L10.3116 15.6222C10.1227 15.5023 9.97675 15.3245 9.89531 15.1148C9.8669 15.0528 9.82461 15.0335 9.74994 15.0322C9.69285 15.0331 9.63617 15.0222 9.58343 15.0002L9.58211 14.9988C9.55006 14.9854 9.52055 14.9664 9.49489 14.9428L9.47771 14.9322C9.46317 14.9148 9.4526 14.8935 9.43938 14.8722C9.34402 14.7323 9.25878 14.5857 9.18432 14.4335C9.18432 14.4355 9.18565 14.4368 9.18631 14.4388L9.18234 14.4302L9.18432 14.4335C9.16945 14.3895 9.15336 14.3459 9.13609 14.3028L9.1123 14.2455C9.10231 14.2123 9.09916 14.1773 9.10305 14.1428L9.10768 14.1222C9.109 14.1188 9.109 14.1155 9.11098 14.1122C9.11288 14.1052 9.11554 14.0985 9.11891 14.0922C9.14018 14.0555 9.16875 14.0237 9.20283 13.9988C9.21706 13.987 9.23184 13.9759 9.2471 13.9655C9.27749 13.9428 9.30921 13.9235 9.33961 13.9028C9.38652 13.8735 9.4341 13.8468 9.48365 13.8208C9.66272 13.7275 9.85368 13.6621 10.0499 13.6115C10.0612 13.6081 10.0717 13.6061 10.085 13.6035C10.1068 13.5981 10.1312 13.5968 10.1543 13.5935C10.1781 13.5921 10.2019 13.5901 10.2244 13.5901L10.2944 13.5888C10.305 13.5888 10.3182 13.5888 10.3288 13.5875C10.5273 13.5785 10.7256 13.5645 10.9235 13.5455C11.0424 13.5341 11.1613 13.5215 11.2803 13.5088C11.5388 13.4795 11.7905 13.4065 12.025 13.2928C12.0488 13.2795 12.0739 13.2688 12.0977 13.2561L12.1393 13.2335C12.2344 13.1821 12.3296 13.1328 12.4214 13.0781C12.4307 13.0648 12.4412 13.0608 12.4578 13.0561L12.4644 13.0541V13.0621C12.4626 13.071 12.458 13.079 12.4512 13.0848L12.4373 13.0941C12.3448 13.2128 12.2186 13.2941 12.1089 13.3941C12.0971 13.4032 12.086 13.4133 12.0758 13.4241C12.0408 13.4528 12.0058 13.4835 11.9662 13.5155C12.1043 13.5155 12.2371 13.4995 12.3613 13.4621C12.5909 13.3957 12.7926 13.2552 12.9355 13.0621C13.0036 12.9708 13.0657 12.8641 13.1192 12.7408ZM10.9618 12.7515C10.8901 12.7866 10.8138 12.8111 10.7351 12.8241C10.3651 12.9168 9.98848 12.9708 9.61382 13.0415C9.34858 13.0905 9.09847 13.2017 8.88368 13.3661C8.87112 13.3761 8.85724 13.3875 8.84271 13.3948C8.82553 13.4061 8.81694 13.4035 8.81429 13.3881C8.81231 13.3855 8.81231 13.3808 8.81231 13.3761C8.8057 13.2801 8.83478 13.2335 8.922 13.1935C9.04094 13.1388 9.15988 13.0815 9.27881 13.0255C9.43409 12.9535 9.60061 12.9308 9.7691 12.9135C10.0308 12.8848 10.2924 12.8508 10.5554 12.8201L10.9017 12.7628L10.9618 12.7515ZM12.5384 13.5815H12.5212C12.4961 13.5881 12.4974 13.6148 12.4974 13.6348C12.4994 13.7015 12.502 13.7695 12.5106 13.8368C12.5172 13.9102 12.5417 13.9828 12.5846 14.0415C12.6655 14.1556 12.7857 14.235 12.9216 14.2642C13.024 14.2882 13.024 14.2895 13.034 14.3975C13.0386 14.4435 13.0445 14.4842 13.0868 14.5108C13.1621 14.5555 13.2368 14.6022 13.3273 14.6082C13.3828 14.6128 13.4397 14.6162 13.4872 14.6535C13.5499 14.6957 13.6234 14.7184 13.6987 14.7188C13.7542 14.7235 13.811 14.7255 13.8665 14.7348C13.9108 14.7428 13.9412 14.7282 13.9722 14.7015C14.1302 14.5702 14.2855 14.4368 14.4328 14.2902C14.4156 14.2702 14.3899 14.2635 14.3548 14.2822C14.2616 14.3282 14.1701 14.3778 14.0806 14.4308C14.058 14.4463 14.0327 14.4572 14.0059 14.4628C13.8487 14.4937 13.689 14.5102 13.5289 14.5122C13.4412 14.5079 13.3566 14.4777 13.2857 14.4255C13.2414 14.3968 13.1972 14.3555 13.1892 14.2915C13.213 14.2835 13.2355 14.2928 13.2573 14.2962C13.3412 14.3075 13.4238 14.3382 13.5097 14.3328C13.7159 14.3195 13.9095 14.2575 14.1031 14.1908L14.2901 14.1222C14.3185 14.1122 14.3264 14.1022 14.3013 14.0755C14.2709 14.0422 14.2379 14.0488 14.2042 14.0528C13.7935 14.1125 13.3759 14.1023 12.9685 14.0228C12.8496 14.0002 12.7227 13.9922 12.6765 13.8428C12.6633 13.8028 12.6514 13.7628 12.6434 13.7215C12.6331 13.6788 12.6117 13.6397 12.5813 13.6081C12.5764 13.6009 12.5701 13.5948 12.5627 13.5902C12.5553 13.5856 12.547 13.5826 12.5384 13.5815ZM12.1598 13.6248C12.128 13.6248 12.1069 13.6581 12.0917 13.6868C12.0521 13.7555 12.0012 13.8175 11.9549 13.8815C11.8836 13.9795 11.7831 14.0002 11.6787 13.9842C11.3024 13.9258 10.9236 13.8858 10.5435 13.8641C10.5237 13.8628 10.5052 13.8575 10.4893 13.8708C10.3684 13.9602 10.2468 14.0468 10.1702 14.1828C10.1748 14.1842 10.1801 14.1875 10.1834 14.1875C10.196 14.1862 10.2065 14.1828 10.2197 14.1808C10.416 14.1315 10.6208 14.1155 10.829 14.1328C11.092 14.1555 11.3523 14.2082 11.614 14.2448C11.649 14.2502 11.684 14.2515 11.717 14.2688C11.7963 14.3108 11.836 14.3842 11.8664 14.4622C11.9126 14.5822 11.9259 14.7108 11.9344 14.8388C11.941 14.9388 11.9199 15.0242 11.8393 15.0922C11.777 15.1384 11.7308 15.2032 11.7071 15.2775C11.8089 15.2775 11.8961 15.2948 11.9629 15.3815C12.0045 15.4348 12.058 15.4808 12.1102 15.5268C12.1375 15.5529 12.1702 15.5724 12.2059 15.584C12.2416 15.5955 12.2795 15.5988 12.3167 15.5936C12.3538 15.5885 12.3894 15.5749 12.4207 15.554C12.452 15.5331 12.4782 15.5054 12.4974 15.4728C12.5357 15.4102 12.5721 15.3462 12.613 15.2855C12.6705 15.2008 12.7254 15.1095 12.8278 15.0722C12.8893 15.0522 12.8622 15.0215 12.841 14.9955C12.8007 14.9422 12.7241 14.9415 12.656 14.9822C12.5503 15.0468 12.4802 15.1415 12.4042 15.2328C12.3818 15.2595 12.3593 15.2862 12.3296 15.3095C12.2913 15.3362 12.2582 15.3382 12.2239 15.3028C12.1869 15.2648 12.1485 15.2248 12.1076 15.1908C12.0725 15.1622 12.0659 15.1362 12.0864 15.0948C12.131 15.0104 12.1498 14.9147 12.1406 14.8195C12.1208 14.6115 12.0877 14.4062 11.9424 14.2415C11.9265 14.2242 11.9265 14.2148 11.949 14.1988C12.0256 14.1462 12.0897 14.0769 12.1363 13.996C12.183 13.9151 12.2111 13.8247 12.2186 13.7315C12.2232 13.6815 12.2139 13.6415 12.1743 13.6275C12.1696 13.6259 12.1647 13.625 12.1598 13.6248ZM15.1068 13.6481C15.2429 13.6481 15.3632 13.7015 15.4814 13.7695C15.4781 13.7695 15.4768 13.7695 15.4735 13.7715L15.4933 13.7828C15.3149 13.8095 15.1365 13.8228 14.9581 13.8028C14.9026 13.7961 14.8471 13.7855 14.7896 13.7875C14.6773 13.7908 14.5868 13.7315 14.4916 13.6801H14.5028C14.4949 13.6755 14.487 13.6721 14.4791 13.6668C14.4949 13.6688 14.5121 13.6688 14.528 13.6701C14.5471 13.6721 14.5643 13.6768 14.5835 13.6801C14.7407 13.7135 14.8927 13.6668 15.0486 13.6515C15.0682 13.6493 15.0871 13.6482 15.1068 13.6481ZM9.36537 14.1242C9.36172 14.1244 9.35813 14.1253 9.3548 14.1268C9.32176 14.1395 9.29005 14.1588 9.2808 14.2035C9.24908 14.3522 9.31714 14.4948 9.46449 14.5715C9.53057 14.6068 9.58211 14.6562 9.61382 14.7248C9.6244 14.7495 9.62638 14.7955 9.6614 14.7875C9.69576 14.7795 9.66801 14.7362 9.67528 14.7188C9.68056 14.6288 9.66272 14.5522 9.59136 14.5055C9.5385 14.4722 9.51867 14.4255 9.49885 14.3715C9.47374 14.3008 9.46779 14.2228 9.41031 14.1668C9.39709 14.1528 9.38718 14.1242 9.36537 14.1242ZM10.5832 14.3602C10.5105 14.3782 10.4272 14.3955 10.3499 14.4308C10.2957 14.4562 10.2924 14.4868 10.34 14.5235C10.3684 14.5462 10.3975 14.5568 10.4325 14.5435C10.4873 14.5216 10.5473 14.5161 10.6051 14.5275C10.663 14.539 10.7164 14.567 10.7589 14.6082C10.8057 14.6489 10.8627 14.6759 10.9236 14.6861C10.9846 14.6964 11.0472 14.6895 11.1045 14.6662C11.1746 14.6422 11.2347 14.6022 11.2981 14.5662C11.3211 14.5526 11.3465 14.5435 11.3728 14.5395C11.4679 14.5302 11.5631 14.5175 11.6569 14.5042C11.682 14.5008 11.7217 14.5108 11.7283 14.4802C11.7349 14.4482 11.6979 14.4288 11.6754 14.4082C11.6648 14.3968 11.6457 14.3948 11.6292 14.3908C11.5358 14.3613 11.4362 14.3578 11.3411 14.3808C11.1477 14.4232 10.9476 14.4232 10.7543 14.3808C10.7014 14.3675 10.6466 14.3675 10.5825 14.3608L10.5832 14.3602ZM15.1445 14.9528C15.1484 14.9528 15.1511 14.9548 15.1544 14.9575C15.1576 14.9601 15.1602 14.9633 15.1623 14.9668L15.1676 14.9702C15.196 14.9928 15.163 15.0435 15.1544 15.0822C15.1345 15.1942 15.1167 15.3048 15.0975 15.4168C15.0929 15.4488 15.0896 15.4822 15.0658 15.5268L15.0612 15.4982L15.0533 15.5142C15.0264 15.3586 15.0098 15.2013 15.0037 15.0435C15.0024 15.0082 15.0262 15.0002 15.0486 14.9922C15.0804 14.9815 15.1193 14.9482 15.1445 14.9522V14.9528ZM13.0168 15.5542C13.0116 15.5556 13.0067 15.5579 13.0022 15.5608C12.8767 15.6308 12.7353 15.6342 12.5972 15.6522C12.539 15.6602 12.465 15.6422 12.4227 15.6855C12.3183 15.7895 12.2291 15.7455 12.1373 15.6722C12.1327 15.6695 12.128 15.6648 12.1214 15.6628C11.9853 15.5895 11.8485 15.5628 11.7091 15.6595C11.6845 15.6791 11.6561 15.6933 11.6257 15.7011C11.5953 15.7089 11.5636 15.7102 11.5327 15.7048C11.4838 15.6915 11.4461 15.6948 11.4071 15.7302C11.3886 15.7482 11.3635 15.7622 11.3411 15.7768C11.279 15.8182 11.279 15.8248 11.3364 15.8702C11.3497 15.8822 11.3649 15.8868 11.3807 15.8922C11.5129 15.9322 11.6364 15.9028 11.7521 15.8388C11.8723 15.7735 11.9853 15.7768 12.0943 15.8602C12.1948 15.9348 12.3005 15.9368 12.4115 15.8902C12.5494 15.8262 12.6942 15.7785 12.843 15.7482C12.8655 15.7448 12.8879 15.7368 12.9084 15.7548C12.9718 15.8135 13.032 15.7722 13.0928 15.7482C13.1166 15.7382 13.1192 15.7188 13.1179 15.6948C13.1133 15.6442 13.0749 15.6148 13.0531 15.5748C13.0432 15.5582 13.032 15.5515 13.0174 15.5548L13.0168 15.5542ZM9.89994 15.6008C9.90588 15.6008 9.91315 15.6048 9.92108 15.6122C9.94685 15.6362 9.97064 15.6615 9.99575 15.6855L10.0057 15.6948C10.0182 15.7062 10.0195 15.7208 10.0136 15.7348L9.86558 16.0348L9.84972 16.0295C9.84972 16.0262 9.8517 16.0248 9.8517 16.0215C9.88342 15.8902 9.87086 15.7548 9.88804 15.6215C9.88936 15.6082 9.89399 15.6015 9.89994 15.6015V15.6008ZM12.4769 15.9928C12.3197 15.9975 12.1598 16.0235 12.0124 16.0742C11.8902 16.1162 11.7534 16.1449 11.69 16.2875C11.6536 16.3702 11.6582 16.4582 11.6331 16.5409C11.6444 16.6075 11.6444 16.6722 11.682 16.7282C11.6933 16.7442 11.6979 16.7702 11.725 16.7682C11.7534 16.7669 11.7633 16.7429 11.7712 16.7235C11.7996 16.6635 11.8063 16.5942 11.8241 16.5302C11.8551 16.4262 11.9027 16.3435 12.0104 16.2969C12.1228 16.2489 12.2371 16.2035 12.3514 16.1595C12.3722 16.1507 12.3951 16.1479 12.4175 16.1515C12.5595 16.1715 12.7069 16.1649 12.8324 16.2489C12.8383 16.253 12.845 16.2558 12.8521 16.2572C12.8591 16.2585 12.8664 16.2584 12.8734 16.2569C12.921 16.2455 12.9263 16.2302 12.8972 16.1915C12.8496 16.1251 12.7861 16.072 12.7126 16.0372C12.639 16.0025 12.5579 15.9872 12.4769 15.9928ZM11.0113 16.4869L11.0206 16.4982C11.0827 16.5762 11.1442 16.6435 11.1858 16.7222C11.2849 16.9155 11.4329 17.0562 11.6232 17.1589C11.7124 17.2069 11.7924 17.2735 11.8968 17.2855L11.8988 17.2862H11.9107C11.9219 17.2862 11.9371 17.2835 11.9344 17.3015C11.9325 17.3109 11.9232 17.3109 11.914 17.3095H11.9093C11.906 17.3095 11.9027 17.3095 11.8994 17.3075C11.7891 17.3109 11.6814 17.3295 11.5737 17.3522C11.5175 17.3642 11.4613 17.3775 11.4052 17.3909C11.3518 17.4039 11.2983 17.4162 11.2446 17.4275H11.2426C11.2208 17.4329 11.2109 17.4435 11.2142 17.4662C11.2175 17.4929 11.2274 17.5075 11.2585 17.5142C11.3183 17.5244 11.3789 17.5282 11.4395 17.5255C11.5175 17.5235 11.5948 17.5155 11.6728 17.5029C11.8431 17.4764 12.0164 17.476 12.1869 17.5015C11.9027 17.5482 11.6682 17.7095 11.4111 17.8182C11.2776 17.8742 11.1746 17.9815 11.0477 18.0502C11.0384 18.0615 11.0332 18.0795 11.0239 18.0902C11.0034 18.1169 11.0001 18.1689 10.9664 18.1635H10.9638C10.9605 18.1635 10.9572 18.1655 10.9539 18.1635C10.8917 18.1581 10.8316 18.1385 10.7781 18.1062C10.7583 18.0935 10.7636 18.0695 10.7636 18.0469V17.7449C10.7636 17.7235 10.7715 17.7002 10.751 17.6849C10.681 17.6409 10.6981 17.5635 10.681 17.4995C10.6744 17.4742 10.6922 17.4615 10.7067 17.4462L10.8904 17.2395C10.9321 17.1942 10.9492 17.1442 10.9188 17.0902C10.862 16.9815 10.8713 16.8769 10.9175 16.7669C10.9539 16.6802 10.9776 16.5889 11.0113 16.4869ZM14.041 16.6049C14.0443 16.6069 14.0476 16.6082 14.0489 16.6102L14.0535 16.6049C14.0793 16.6195 14.08 16.6382 14.0866 16.6549C14.154 16.8195 14.2187 16.9862 14.2848 17.1509C14.3013 17.1875 14.3046 17.2195 14.2808 17.2509C14.245 17.2962 14.2215 17.3502 14.2126 17.4074C14.2037 17.4647 14.2097 17.5233 14.2299 17.5775C14.2742 17.7142 14.2425 17.8089 14.109 17.8762C14.0853 17.8915 14.0579 17.8998 14.0297 17.9002C14.0085 17.9014 13.9877 17.8942 13.9716 17.8802C13.7238 17.7075 13.4291 17.6502 13.1509 17.5509C13.1113 17.5375 13.0736 17.5222 13.032 17.5129C12.9844 17.5015 12.9877 17.4695 12.9943 17.4355C12.9989 17.4115 13.0115 17.4089 13.024 17.4102C13.0373 17.4069 13.0544 17.4169 13.0657 17.4195C13.3828 17.4995 13.7033 17.5635 14.0093 17.6835C14.0205 17.6889 14.0291 17.6902 14.0377 17.6922C14.0601 17.6889 14.0667 17.6675 14.0634 17.6375C14.0568 17.5655 14.0502 17.4949 13.9683 17.4575C13.7646 17.3668 13.5463 17.314 13.324 17.3015C13.291 17.2982 13.2593 17.2969 13.2249 17.2949C13.3828 17.1989 13.5553 17.1482 13.6967 17.0242C13.714 17.0102 13.7305 16.9952 13.7463 16.9795L14.0093 16.6582L14.041 16.6049ZM12.7974 17.3602H12.8106C12.8304 17.3589 12.8463 17.3635 12.8483 17.3955C12.8483 17.4249 12.8549 17.4502 12.8086 17.4569C12.7487 17.4663 12.6882 17.471 12.6276 17.4709C12.5655 17.4709 12.5053 17.4642 12.4439 17.4509C12.4109 17.4422 12.3976 17.4195 12.4009 17.3929C12.4023 17.3749 12.4142 17.3749 12.4274 17.3749C12.436 17.3739 12.4448 17.3745 12.4531 17.3769H12.5721C12.6473 17.3829 12.7231 17.3775 12.7967 17.3609L12.7974 17.3602ZM12.8212 17.6242C12.8252 17.6242 12.8291 17.6255 12.8344 17.6275L13.3921 17.8609C13.3049 17.9342 13.2243 17.9989 13.145 18.0629C12.9989 18.1815 12.8542 18.3015 12.7181 18.4316C12.6851 18.4636 12.6586 18.4649 12.621 18.4409C12.3875 18.3039 12.1454 18.1825 11.8961 18.0775C11.7871 18.0309 11.6715 18.0122 11.5585 17.9722C11.5717 17.9482 11.5948 17.9482 11.614 17.9415C11.8565 17.8502 12.1043 17.7682 12.3421 17.6615C12.4042 17.6329 12.4657 17.6569 12.5258 17.6649C12.6164 17.6782 12.7042 17.6789 12.7862 17.6342C12.7966 17.6273 12.8088 17.6239 12.8212 17.6242ZM11.3933 18.0895C11.4118 18.0907 11.4301 18.0947 11.4475 18.1015C11.5776 18.1529 11.6985 18.2249 11.8234 18.2842C11.8269 18.284 11.8304 18.2845 11.8337 18.2856C11.837 18.2868 11.84 18.2886 11.8426 18.2909C11.8452 18.2922 11.8459 18.2936 11.8459 18.2982V18.3015C11.8459 18.3035 11.8439 18.3036 11.8439 18.3049C11.8426 18.3069 11.8406 18.3069 11.8393 18.3069L11.8327 18.3049C11.8293 18.303 11.8266 18.3003 11.8248 18.2969L11.2552 18.1542C11.3041 18.1149 11.3431 18.0875 11.3933 18.0895ZM16.7917 18.4462C16.6979 18.4436 16.6199 18.4876 16.5459 18.5462C16.5261 18.5609 16.5155 18.5782 16.4838 18.5576C16.4144 18.5096 16.3477 18.5222 16.2889 18.5842C16.2556 18.6186 16.2321 18.6615 16.2208 18.7082C16.1382 19.0442 16.0543 19.3789 15.975 19.7162C15.9479 19.8296 16.0068 19.8862 16.1224 19.8696C16.2268 19.8522 16.2796 19.7916 16.2968 19.6562C16.314 19.5242 16.3319 19.3949 16.3695 19.2589C16.4686 19.3836 16.5611 19.5002 16.6556 19.6176C16.7475 19.7309 16.8472 19.8316 16.982 19.8922C17.0772 19.9356 17.1598 19.9102 17.2345 19.8429C17.2537 19.8265 17.2676 19.8046 17.2741 19.78C17.2806 19.7554 17.2794 19.7295 17.2708 19.7056C17.2659 19.6815 17.2527 19.66 17.2336 19.6448C17.2145 19.6295 17.1907 19.6216 17.1664 19.6222C17.1285 19.619 17.093 19.6025 17.066 19.5756C16.9762 19.4974 16.8959 19.4088 16.8268 19.3116C16.7673 19.2316 16.7647 19.2316 16.8439 19.1769C17.0105 19.0616 17.0686 18.8989 17.0567 18.7036C17.0475 18.5576 16.9695 18.4729 16.8321 18.4502C16.8187 18.448 16.8053 18.4466 16.7917 18.4462ZM9.69972 18.4662C9.67329 18.4662 9.64884 18.4796 9.63563 18.5162C9.62307 18.5496 9.60061 18.5449 9.5755 18.5416C9.49596 18.5281 9.41437 18.5345 9.33781 18.56C9.26124 18.5856 9.19201 18.6296 9.13609 18.6882C8.885 18.9349 8.75681 19.2302 8.77134 19.5902C8.7806 19.8289 8.91671 19.9436 9.14732 19.8909C9.60259 19.7842 9.9561 19.3342 9.97526 18.8362C9.97989 18.7082 9.86425 18.5229 9.7506 18.4776C9.73444 18.4709 9.71719 18.4672 9.69972 18.4669V18.4662ZM8.42444 18.5049C8.27493 18.507 8.13117 18.5633 8.01939 18.6636C7.79077 18.8649 7.65795 19.1256 7.59254 19.4222C7.56651 19.5318 7.58431 19.6472 7.64209 19.7436C7.68835 19.8222 7.74649 19.8509 7.83504 19.8336C8.03558 19.7949 8.22932 19.7264 8.4099 19.6302C8.46517 19.6013 8.51538 19.5635 8.55858 19.5182C8.59405 19.482 8.61399 19.4332 8.61408 19.3822C8.61408 19.3322 8.59228 19.3156 8.54602 19.3129C8.49977 19.3116 8.46012 19.3289 8.41916 19.3436C8.28238 19.3936 8.14956 19.4542 8.00816 19.4902C7.93878 19.5082 7.91565 19.4922 7.90045 19.4202C7.89604 19.3932 7.89716 19.3655 7.90376 19.3389C7.93019 19.2269 7.96851 19.1189 8.02732 19.0169C8.06614 18.9423 8.12155 18.8777 8.18921 18.8282C8.28172 18.7689 8.37621 18.7369 8.48127 18.8016C8.51563 18.8216 8.54933 18.8122 8.58038 18.7929C8.62848 18.7622 8.66374 18.7147 8.6795 18.6596C8.69007 18.6262 8.68082 18.5996 8.65042 18.5816C8.58195 18.5383 8.50428 18.512 8.42378 18.5049H8.42444ZM14.5035 18.5516C14.4402 18.5493 14.3772 18.5604 14.3184 18.584C14.2596 18.6077 14.2063 18.6434 14.1619 18.6889C14.0588 18.7962 14.041 18.9049 14.1064 19.0396C14.1553 19.1402 14.2233 19.2262 14.2901 19.3162C14.3377 19.3789 14.3885 19.4409 14.4328 19.5069C14.4645 19.5536 14.4487 19.5902 14.3945 19.6076C14.3643 19.6178 14.3314 19.6166 14.302 19.6042C14.2103 19.5707 14.1264 19.5185 14.0555 19.4509C14.0292 19.4296 14.0103 19.4004 14.0013 19.3676C13.9934 19.3182 13.9663 19.2956 13.9187 19.2909C13.8652 19.2862 13.8156 19.2862 13.7839 19.3442C13.7311 19.4362 13.7463 19.5196 13.8414 19.6062C14.0238 19.7696 14.2412 19.8416 14.4579 19.8596C14.6561 19.8622 14.7784 19.6816 14.7136 19.5116C14.6852 19.4349 14.6357 19.3676 14.5881 19.3022C14.5088 19.1962 14.4262 19.0936 14.3522 18.9849C14.2927 18.9016 14.3205 18.8409 14.4169 18.8089C14.5061 18.7802 14.5821 18.8056 14.6548 18.8622C14.7407 18.9289 14.8134 18.8936 14.8326 18.7849C14.8438 18.7276 14.8127 18.6889 14.7731 18.6556C14.6967 18.5914 14.6015 18.5546 14.5022 18.5509L14.5035 18.5516ZM15.7623 18.5916C15.6717 18.5896 15.5812 18.5916 15.4914 18.6022C15.383 18.6156 15.2799 18.6456 15.2403 18.7676C15.2389 18.7742 15.231 18.7836 15.2244 18.7849C15.1008 18.8169 15.0579 18.9196 15.0249 19.0236C14.9548 19.2542 14.8927 19.4876 14.8279 19.7182C14.8121 19.7742 14.8346 19.8116 14.8808 19.8396C14.9165 19.8622 14.9535 19.8609 14.9945 19.8496C15.2085 19.7962 15.4226 19.7389 15.6466 19.7549C15.6758 19.7557 15.7047 19.7491 15.7306 19.7356C15.7576 19.7195 15.7793 19.6958 15.7931 19.6673C15.8068 19.6389 15.812 19.6069 15.8079 19.5756C15.7986 19.5156 15.751 19.4976 15.7002 19.4889C15.6614 19.483 15.6224 19.4794 15.5832 19.4782C15.4459 19.4786 15.3089 19.4902 15.1735 19.5129C15.1933 19.3609 15.2052 19.3516 15.348 19.3516C15.4537 19.3516 15.5607 19.3449 15.6605 19.3036C15.7266 19.2749 15.7702 19.2282 15.7768 19.1529C15.7814 19.1022 15.7603 19.0716 15.7081 19.0702C15.6662 19.0682 15.6243 19.0687 15.5825 19.0716L15.2832 19.0982C15.2991 19.0636 15.307 19.0316 15.3242 19.0076C15.3533 18.9662 15.3196 18.8889 15.3797 18.8682C15.4292 18.8522 15.4881 18.8636 15.5416 18.8616C15.683 18.8589 15.8237 18.8569 15.9605 18.8122C16.0114 18.7989 16.0562 18.7683 16.0874 18.7256C16.1336 18.6536 16.1158 18.6056 16.0332 18.6022C15.9433 18.5982 15.8528 18.5936 15.7623 18.5916ZM11.3589 18.5969C11.312 18.5949 11.273 18.6249 11.2367 18.6589C11.1434 18.7487 11.0568 18.8455 10.9776 18.9482L10.7351 19.2522C10.7219 19.2682 10.7087 19.2989 10.6823 19.2856C10.6625 19.2762 10.6704 19.2489 10.673 19.2282C10.6796 19.1549 10.6889 19.0829 10.6968 19.0089C10.7067 18.9129 10.7193 18.8169 10.7034 18.7209C10.6829 18.6056 10.6004 18.5742 10.5085 18.6456C10.4863 18.6641 10.4655 18.6844 10.4464 18.7062C10.3735 18.7927 10.3077 18.885 10.2495 18.9822C10.1008 19.2142 9.96403 19.4556 9.78496 19.6669C9.75192 19.7069 9.7169 19.7456 9.68651 19.7882C9.65479 19.8362 9.64224 19.8909 9.67197 19.9416C9.69906 19.9869 9.74466 20.0029 9.7962 19.9996C9.84972 19.9969 9.87879 19.9569 9.9072 19.9182L10.3208 19.3502C10.3288 19.3402 10.3321 19.3209 10.3559 19.3276C10.3522 19.3519 10.3496 19.3764 10.3479 19.4009C10.3413 19.4922 10.3228 19.5836 10.3413 19.6762C10.3638 19.7829 10.4471 19.8256 10.5435 19.7776C10.593 19.7504 10.6384 19.7163 10.6783 19.6762C10.7556 19.6016 10.829 19.5209 10.8964 19.4349C10.9717 19.3389 11.0477 19.2416 11.127 19.1369C11.1508 19.2169 11.1415 19.2889 11.1382 19.3609C11.1303 19.4862 11.1065 19.6109 11.1303 19.7376C11.1461 19.8156 11.1904 19.8622 11.2538 19.8669C11.3185 19.8725 11.3832 19.856 11.4375 19.8202C11.5201 19.7676 11.5281 19.6622 11.4508 19.5916C11.4286 19.5721 11.4138 19.5455 11.4091 19.5162C11.392 19.4296 11.4065 19.3449 11.4204 19.2602C11.4461 19.0969 11.4964 18.9369 11.4884 18.7689C11.4858 18.7036 11.4752 18.6422 11.4091 18.6109C11.3935 18.603 11.3764 18.5978 11.3589 18.5969ZM16.6715 18.7236C16.7488 18.7169 16.7871 18.7656 16.764 18.8409C16.7544 18.873 16.7387 18.9029 16.7177 18.9289C16.6332 19.0362 16.5255 19.1089 16.3907 19.1642C16.4015 19.0668 16.426 18.9714 16.4633 18.8809C16.5043 18.7916 16.571 18.7329 16.6715 18.7236ZM12.2767 18.7369C12.3112 18.7354 12.3454 18.7432 12.3758 18.7596C12.4261 18.7882 12.4406 18.8569 12.4056 18.9149C12.3731 18.9634 12.3316 19.0051 12.2833 19.0376C12.1878 19.111 12.0796 19.1659 11.9642 19.1996C12.0104 19.0556 12.0488 18.9229 12.1261 18.8089C12.144 18.7861 12.167 18.7677 12.1931 18.7552C12.2192 18.7427 12.2478 18.7365 12.2767 18.7369ZM13.3339 18.7976C13.3819 18.7949 13.4299 18.8026 13.4747 18.8202C13.5494 18.8509 13.5738 18.8869 13.5731 19.0002C13.5514 19.2113 13.451 19.4062 13.2923 19.5456C13.2324 19.5981 13.1574 19.6299 13.0782 19.6362C12.9811 19.6442 12.9051 19.5829 12.915 19.4842C12.9335 19.2709 12.991 19.0682 13.1331 18.9002C13.158 18.8704 13.1886 18.8459 13.2232 18.8283C13.2577 18.8106 13.2953 18.8002 13.3339 18.7976ZM9.44731 18.7996C9.4965 18.7966 9.54571 18.8048 9.59136 18.8236C9.66404 18.8522 9.68981 18.8889 9.68651 18.9982C9.66615 19.2093 9.56635 19.4045 9.40766 19.5436C9.34744 19.5965 9.27238 19.6291 9.19291 19.6369C9.0938 19.6442 9.01715 19.5822 9.0264 19.4816C9.04622 19.2716 9.10305 19.0729 9.24115 18.9082C9.2663 18.8768 9.29758 18.851 9.33305 18.8323C9.36851 18.8136 9.4074 18.8025 9.44731 18.7996Z" fill="black"/>
</g>
<defs>
<clipPath id="clip0_1367_41133">
<rect width="24" height="24" fill="white"/>
</clipPath>
</defs>
</svg>
