<svg width="24" height="24" viewBox="0 0 24 24" fill="none" xmlns="http://www.w3.org/2000/svg">
<g clip-path="url(#clip0_557_15485)">
<path d="M24 0H0V24H24V0Z" fill="black"/>
<path d="M11.2042 13.8123L15.46 8.74044L14.5835 8.00501L10.3277 13.0769L11.2042 13.8123Z" fill="black"/>
<path d="M15.46 8.74068L19.7158 3.66882L18.8394 2.9334L14.5836 8.00525L15.46 8.74068Z" fill="#0019FF"/>
<path d="M15.5162 8.80171L19.8599 3.80489L18.9964 3.05428L14.6527 8.05109L15.5162 8.80171Z" fill="#0015FF"/>
<path d="M15.5717 8.86316L20.002 3.94292L19.1517 3.17735L14.7215 8.09759L15.5717 8.86316Z" fill="#0011FF"/>
<path d="M15.6257 8.92604L20.1411 4.08386L19.3044 3.30357L14.789 8.14575L15.6257 8.92604Z" fill="#000CFF"/>
<path d="M15.6789 8.98973L20.2781 4.2271L19.4551 3.43232L14.8558 8.19496L15.6789 8.98973Z" fill="#0008FF"/>
<path d="M15.7307 9.05457L20.4124 4.37292L19.6033 3.56391L14.9217 8.24555L15.7307 9.05457Z" fill="#0004FF"/>
<path d="M15.7818 9.11994L20.5444 4.52071L19.7497 3.6977L14.987 8.29692L15.7818 9.11994Z" fill="#0000FF"/>
<path d="M15.8314 9.18651L20.6736 4.6711L19.8933 3.83435L15.0511 8.34975L15.8314 9.18651Z" fill="#0500FF"/>
<path d="M15.8798 9.25365L20.8 4.82345L20.0345 3.9732L15.1142 8.40341L15.8798 9.25365Z" fill="#0900FF"/>
<path d="M15.9273 9.32206L20.9241 4.97839L20.1735 4.11491L15.1766 8.45858L15.9273 9.32206Z" fill="#0D00FF"/>
<path d="M15.9733 9.39077L21.0452 5.13497L20.3097 4.25852L15.2379 8.51432L15.9733 9.39077Z" fill="#1100FF"/>
<path d="M16.0185 9.46045L21.1638 5.29382L20.4438 4.40467L15.2984 8.5713L16.0185 9.46045Z" fill="#1600FF"/>
<path d="M16.062 9.53115L21.2793 5.45496L20.5749 4.55337L15.3576 8.62957L16.062 9.53115Z" fill="#1A00FF"/>
<path d="M16.1045 9.60256L21.3921 5.61804L20.7035 4.7043L15.4159 8.68883L16.1045 9.60256Z" fill="#1E00FF"/>
<path d="M16.1458 9.67406L21.5022 5.78243L20.8297 4.85682L15.4733 8.74845L16.1458 9.67406Z" fill="#2200FF"/>
<path d="M16.1857 9.74731L21.6091 5.94975L20.9529 5.01254L15.5294 8.8101L16.1857 9.74731Z" fill="#2700FF"/>
<path d="M16.2245 9.82037L21.7134 6.11804L21.0736 5.16952L15.5847 8.87185L16.2245 9.82037Z" fill="#2B00FF"/>
<path d="M16.2617 9.89459L21.8145 6.28862L21.1913 5.32908L15.6386 8.93505L16.2617 9.89459Z" fill="#2F00FF"/>
<path d="M16.2978 9.96901L21.9126 6.46049L21.3063 5.49022L15.6915 8.99873L16.2978 9.96901Z" fill="#3300FF"/>
<path d="M16.3326 10.0446L22.0078 6.63464L21.4185 5.65394L15.7434 9.06392L16.3326 10.0446Z" fill="#3800FF"/>
<path d="M16.366 10.1202L22.0999 6.80978L21.5278 5.81894L15.794 9.12936L16.366 10.1202Z" fill="#3C00FF"/>
<path d="M16.3982 10.1967L22.189 6.98686L21.6343 5.98619L15.8436 9.19604L16.3982 10.1967Z" fill="#4000FF"/>
<path d="M16.429 10.2739L22.2749 7.16557L21.7378 6.15537L15.8919 9.26367L16.429 10.2739Z" fill="#4400FF"/>
<path d="M16.4585 10.3514L22.3577 7.34558L21.8382 6.32616L15.939 9.33196L16.4585 10.3514Z" fill="#4800FF"/>
<path d="M16.4865 10.4293L22.4373 7.5269L21.9357 6.49857L15.9849 9.40096L16.4865 10.4293Z" fill="#4D00FF"/>
<path d="M16.5134 10.5079L22.5139 7.70984L22.0304 6.67291L16.0299 9.471L16.5134 10.5079Z" fill="#5100FF"/>
<path d="M16.5387 10.587L22.5872 7.89409L22.1218 6.84888L16.0734 9.54182L16.5387 10.587Z" fill="#5500FF"/>
<path d="M16.5625 10.6666L22.657 8.07964L22.2099 7.02646L16.1154 9.61343L16.5625 10.6666Z" fill="#5900FF"/>
<path d="M16.5851 10.7464L22.7239 8.26616L22.2953 7.20535L16.1565 9.68556L16.5851 10.7464Z" fill="#5E00FF"/>
<path d="M16.6063 10.8267L22.7874 8.45398L22.3773 7.38585L16.1962 9.75855L16.6063 10.8267Z" fill="#6200FF"/>
<path d="M16.6261 10.9069L22.8477 8.64246L22.4563 7.56733L16.2348 9.83179L16.6261 10.9069Z" fill="#6600FF"/>
<path d="M16.6444 10.9881L22.9045 8.83257L22.5321 7.75078L16.2719 9.90631L16.6444 10.9881Z" fill="#6A00FF"/>
<path d="M16.6612 11.0696L22.958 9.02364L22.6045 7.93552L16.3077 9.98147L16.6612 11.0696Z" fill="#6F00FF"/>
<path d="M16.677 11.1508L23.0085 9.21505L22.674 8.12092L16.3425 10.0567L16.677 11.1508Z" fill="#7300FF"/>
<path d="M16.6911 11.2324L23.0554 9.40743L22.7401 8.30763L16.3757 10.1326L16.6911 11.2324Z" fill="#7700FF"/>
<path d="M16.7036 11.3144L23.0989 9.60079L22.8028 8.49565L16.4075 10.2093L16.7036 11.3144Z" fill="#7B00FF"/>
<path d="M16.715 11.3969L23.1392 9.79513L22.8624 8.68499L16.4382 10.2867L16.715 11.3969Z" fill="#8000FF"/>
<path d="M16.7249 11.4792L23.176 9.98979L22.9187 8.87499L16.4675 10.3644L16.7249 11.4792Z" fill="#8400FF"/>
<path d="M16.7331 11.5617L23.2092 10.1851L22.9714 9.06598L16.4952 10.4425L16.7331 11.5617Z" fill="#8800FF"/>
<path d="M16.7401 11.6441L23.2393 10.3807L23.0209 9.25763L16.5218 10.521L16.7401 11.6441Z" fill="#8C00FF"/>
<path d="M16.7456 11.7274L23.2659 10.5777L23.0672 9.45094L16.5469 10.6006L16.7456 11.7274Z" fill="#9100FF"/>
<path d="M16.7495 11.81L23.2888 10.7743L23.1098 9.64426L16.5705 10.68L16.7495 11.81Z" fill="#9500FF"/>
<path d="M16.7522 11.8927L23.3086 10.9712L23.1494 9.83825L16.593 10.7597L16.7522 11.8927Z" fill="#9900FF"/>
<path d="M16.7532 11.9757L23.3247 11.1688L23.1853 10.0332L16.6138 10.8401L16.7532 11.9757Z" fill="#9D00FF"/>
<path d="M16.7531 12.0588L23.3376 11.3667L23.2181 10.2289L16.6335 10.921L16.7531 12.0588Z" fill="#A100FF"/>
<path d="M16.7513 12.142L23.3469 11.565L23.2472 10.4252L16.6516 11.0023L16.7513 12.142Z" fill="#A600FF"/>
<path d="M16.7481 12.2244L23.3528 11.7626L23.273 10.6212L16.6683 11.0831L16.7481 12.2244Z" fill="#AA00FF"/>
<path d="M16.7435 12.3077L23.3552 11.9611L23.2953 10.8186L16.6836 11.1651L16.7435 12.3077Z" fill="#AE00FF"/>
<path d="M16.7372 12.3904L23.354 12.1594L23.3141 11.016L16.6973 11.247L16.7372 12.3904Z" fill="#B200FF"/>
<path d="M16.7298 12.4728L23.3496 12.3573L23.3296 11.2134L16.7098 11.3289L16.7298 12.4728Z" fill="#B700FF"/>
<path d="M16.7207 12.5552H23.3416V11.4111H16.7207V12.5552Z" fill="#BB00FF"/>
<path d="M16.7105 12.6376L23.3303 12.7531L23.3503 11.6092L16.7305 11.4936L16.7105 12.6376Z" fill="#BF00FF"/>
<path d="M16.6986 12.7197L23.3154 12.9507L23.3554 11.8073L16.7386 11.5762L16.6986 12.7197Z" fill="#C300FF"/>
<path d="M16.6854 12.8015L23.2971 13.148L23.357 12.0054L16.7452 11.6589L16.6854 12.8015Z" fill="#C800FF"/>
<path d="M16.6707 12.8831L23.2754 13.3449L23.3552 12.2036L16.7505 11.7417L16.6707 12.8831Z" fill="#CC00FF"/>
<path d="M16.6544 12.9648L23.25 13.5419L23.3497 12.4021L16.7541 11.8251L16.6544 12.9648Z" fill="#D000FF"/>
<path d="M16.6369 13.0458L23.2214 13.7378L23.341 12.6L16.7565 11.9079L16.6369 13.0458Z" fill="#D400FF"/>
<path d="M16.618 13.1266L23.1895 13.9335L23.3289 12.7979L16.7574 11.991L16.618 13.1266Z" fill="#D900FF"/>
<path d="M16.5974 13.2067L23.1538 14.1281L23.313 12.9951L16.7566 12.0737L16.5974 13.2067Z" fill="#DD00FF"/>
<path d="M16.5757 13.2871L23.115 14.3228L23.294 13.1928L16.7546 12.157L16.5757 13.2871Z" fill="#E100FF"/>
<path d="M16.5527 13.3665L23.073 14.5162L23.2717 13.3894L16.7514 12.2397L16.5527 13.3665Z" fill="#E500FF"/>
<path d="M16.5281 13.4462L23.0273 14.7095L23.2457 13.5864L16.7465 12.3231L16.5281 13.4462Z" fill="#EA00FF"/>
<path d="M16.5021 13.5247L22.9783 14.9012L23.2161 13.7821L16.74 12.4056L16.5021 13.5247Z" fill="#EE00FF"/>
<path d="M16.4749 13.603L22.926 15.0923L23.1834 13.9775L16.7322 12.4882L16.4749 13.603Z" fill="#F200FF"/>
<path d="M16.4462 13.681L22.8704 15.2828L23.1471 14.1726L16.723 12.5709L16.4462 13.681Z" fill="#F600FF"/>
<path d="M16.4163 13.758L22.8115 15.4716L23.1076 14.3664L16.7124 12.6528L16.4163 13.758Z" fill="#FA00FF"/>
<path d="M16.3849 13.8351L22.7493 15.66L23.0646 14.5602L16.7003 12.7353L16.3849 13.8351Z" fill="#FF00FF"/>
<path d="M16.3521 13.9111L22.6836 15.8469L23.0181 14.7528L16.6866 12.817L16.3521 13.9111Z" fill="#FF00FB"/>
<path d="M16.318 13.9868L22.6147 16.0328L22.9683 14.9446L16.6715 12.8987L16.318 13.9868Z" fill="#FF00F7"/>
<path d="M16.2828 14.0621L22.543 16.2177L22.9155 15.1359L16.6553 12.9803L16.2828 14.0621Z" fill="#FF00F3"/>
<path d="M16.2462 14.1365L22.4678 16.4009L22.8591 15.3258L16.6375 13.0613L16.2462 14.1365Z" fill="#FF00EE"/>
<path d="M16.2083 14.2102L22.3894 16.5829L22.7994 15.5148L16.6183 13.1421L16.2083 14.2102Z" fill="#FF00EA"/>
<path d="M16.1691 14.2837L22.3079 16.7639L22.7365 15.7031L16.5977 13.2229L16.1691 14.2837Z" fill="#FF00E6"/>
<path d="M16.1286 14.3559L22.2231 16.9429L22.6702 15.8897L16.5757 13.3028L16.1286 14.3559Z" fill="#FF00E2"/>
<path d="M16.0868 14.4274L22.1353 17.1203L22.6006 16.0751L16.5522 13.3822L16.0868 14.4274Z" fill="#FF00DD"/>
<path d="M16.0439 14.4983L22.0444 17.2964L22.528 16.2595L16.5274 13.4614L16.0439 14.4983Z" fill="#FF00D9"/>
<path d="M15.9997 14.5682L21.9504 17.4706L22.452 16.4423L16.5012 13.5399L15.9997 14.5682Z" fill="#FF00D5"/>
<path d="M15.9541 14.638L21.8533 17.6438L22.3727 16.6243L16.4735 13.6185L15.9541 14.638Z" fill="#FF00D1"/>
<path d="M15.9076 14.7064L21.7534 17.8147L22.2906 16.8045L16.4447 13.6962L15.9076 14.7064Z" fill="#FF00CC"/>
<path d="M15.8597 14.7744L21.6504 17.9843L22.2051 16.9836L16.4144 13.7737L15.8597 14.7744Z" fill="#FF00C8"/>
<path d="M15.8106 14.8415L21.5444 18.1519L22.1165 17.1611L16.3827 13.8506L15.8106 14.8415Z" fill="#FF00C4"/>
<path d="M15.7604 14.9073L21.4355 18.3173L22.0248 17.3366L16.3496 13.9266L15.7604 14.9073Z" fill="#FF00C0"/>
<path d="M15.7092 14.9725L21.324 18.481L21.9303 17.5107L16.3155 14.0022L15.7092 14.9725Z" fill="#FF00BB"/>
<path d="M15.6568 15.0368L21.2095 18.6428L21.8326 17.6832L16.2799 14.0773L15.6568 15.0368Z" fill="#FF00B7"/>
<path d="M15.6031 15.1L21.092 18.8023L21.7318 17.8538L16.2429 14.1514L15.6031 15.1Z" fill="#FF00B3"/>
<path d="M15.5484 15.1623L20.9719 18.9598L21.6282 18.0226L16.2047 14.2251L15.5484 15.1623Z" fill="#FF00AF"/>
<path d="M15.4927 15.2238L20.8491 19.1154L21.5216 18.1898L16.1652 14.2982L15.4927 15.2238Z" fill="#FF00AB"/>
<path d="M15.4358 15.2842L20.7234 19.2688L21.4119 18.355L16.1243 14.3705L15.4358 15.2842Z" fill="#FF00A6"/>
<path d="M15.3782 15.3439L20.5955 19.4201L21.2999 18.5185L16.0826 14.4424L15.3782 15.3439Z" fill="#FF00A2"/>
<path d="M15.3192 15.4026L20.4646 19.5692L21.1846 18.6801L16.0393 14.5134L15.3192 15.4026Z" fill="#FF009E"/>
<path d="M15.2594 15.4596L20.3313 19.7154L21.0667 18.8389L15.9949 14.5831L15.2594 15.4596Z" fill="#FF009A"/>
<path d="M15.1985 15.5162L20.1953 19.8599L20.9459 18.9964L15.9491 14.6528L15.1985 15.5162Z" fill="#FF0095"/>
<path d="M15.1366 15.5713L20.0569 20.0015L20.8225 19.1513L15.9022 14.7211L15.1366 15.5713Z" fill="#FF0091"/>
<path d="M15.0738 15.6258L19.916 20.1412L20.6963 19.3044L15.8541 14.789L15.0738 15.6258Z" fill="#FF008D"/>
<path d="M15.0101 15.6787L19.7727 20.2779L20.5675 19.4549L15.8048 14.8556L15.0101 15.6787Z" fill="#FF0089"/>
<path d="M14.9453 15.7303L19.627 20.412L20.436 19.603L15.7543 14.9213L14.9453 15.7303Z" fill="#FF0084"/>
<path d="M14.8798 15.7815L19.479 20.5442L20.302 19.7494L15.7028 14.9867L14.8798 15.7815Z" fill="#FF0080"/>
<path d="M14.8132 15.8312L19.3286 20.6734L20.1654 19.8931L15.65 15.0509L14.8132 15.8312Z" fill="#FF007C"/>
<path d="M14.7461 15.8798L19.1763 20.8L20.0265 20.0344L15.5963 15.1142L14.7461 15.8798Z" fill="#FF0078"/>
<path d="M14.6781 15.9272L19.0217 20.924L19.8852 20.1734L15.5415 15.1766L14.6781 15.9272Z" fill="#FF0073"/>
<path d="M14.609 15.9733L18.8647 21.0451L19.7412 20.3097L15.4854 15.2378L14.609 15.9733Z" fill="#FF006F"/>
<path d="M14.5392 16.0179L18.7058 21.1633L19.595 20.4433L15.4283 15.2979L14.5392 16.0179Z" fill="#FF006B"/>
<path d="M14.4687 16.0619L18.5449 21.2792L19.4465 20.5748L15.3703 15.3575L14.4687 16.0619Z" fill="#FF0067"/>
<path d="M14.3976 16.1045L18.3821 21.3921L19.2958 20.7036L15.3113 15.4159L14.3976 16.1045Z" fill="#FF0062"/>
<path d="M14.3254 16.1451L18.217 21.5015L19.1427 20.829L15.251 15.4726L14.3254 16.1451Z" fill="#FF005E"/>
<path d="M14.2527 16.1855L18.0503 21.6089L18.9875 20.9527L15.1899 15.5292L14.2527 16.1855Z" fill="#FF005A"/>
<path d="M14.1793 16.2242L17.8816 21.7131L18.8301 21.0733L15.1278 15.5844L14.1793 16.2242Z" fill="#FF0056"/>
<path d="M14.1052 16.2613L17.7112 21.814L18.6707 21.1909L15.0648 15.6382L14.1052 16.2613Z" fill="#FF0052"/>
<path d="M14.0308 16.2979L17.5393 21.9126L18.5096 21.3064L15.0011 15.6916L14.0308 16.2979Z" fill="#FF004D"/>
<path d="M13.9552 16.3325L17.3652 22.0077L18.3459 21.4184L14.936 15.7433L13.9552 16.3325Z" fill="#FF0049"/>
<path d="M13.8795 16.366L17.1899 22.0998L18.1808 21.5278L14.8704 15.7939L13.8795 16.366Z" fill="#FF0045"/>
<path d="M13.8028 16.3983L17.0127 22.189L18.0134 21.6343L14.8035 15.8436L13.8028 16.3983Z" fill="#FF0041"/>
<path d="M13.7257 16.4291L16.834 22.2749L17.8442 21.7378L14.7359 15.892L13.7257 16.4291Z" fill="#FF003C"/>
<path d="M13.6483 16.4581L16.6541 22.3573L17.6735 21.8379L14.6677 15.9387L13.6483 16.4581Z" fill="#FF0038"/>
<path d="M13.5703 16.4863L16.4727 22.4371L17.501 21.9355L14.5986 15.9847L13.5703 16.4863Z" fill="#FF0034"/>
<path d="M13.4917 16.513L16.2898 22.5135L17.3267 22.03L14.5286 16.0295L13.4917 16.513Z" fill="#FF0030"/>
<path d="M13.4128 16.5384L16.1057 22.5868L17.1509 22.1214L14.458 16.073L13.4128 16.5384Z" fill="#FF002B"/>
<path d="M13.3332 16.5623L15.9202 22.6568L16.9733 22.2097L14.3864 16.1152L13.3332 16.5623Z" fill="#FF0027"/>
<path d="M13.2534 16.5848L15.7336 22.7235L16.7945 22.2949L14.3142 16.1562L13.2534 16.5848Z" fill="#FF0023"/>
<path d="M13.1732 16.6062L15.5459 22.7873L16.614 22.3773L14.2413 16.1962L13.1732 16.6062Z" fill="#FF001F"/>
<path d="M13.0927 16.6257L15.3572 22.8472L16.4323 22.4559L14.1678 16.2343L13.0927 16.6257Z" fill="#FF001A"/>
<path d="M13.0117 16.644L15.1672 22.9042L16.249 22.5317L14.0935 16.2716L13.0117 16.644Z" fill="#FF0016"/>
<path d="M12.9306 16.6611L14.9766 22.9579L16.0647 22.6043L14.0187 16.3075L12.9306 16.6611Z" fill="#FF0012"/>
<path d="M12.8492 16.6765L14.7849 23.008L15.879 22.6735L13.9433 16.342L12.8492 16.6765Z" fill="#FF000E"/>
<path d="M12.7673 16.6909L14.5923 23.0552L15.6921 22.7399L13.8671 16.3755L12.7673 16.6909Z" fill="#FF0009"/>
<path d="M12.6853 16.7036L14.3989 23.0988L15.5041 22.8027L13.7905 16.4075L12.6853 16.7036Z" fill="#FF0005"/>
<path d="M12.6031 16.7147L14.2048 23.1389L15.315 22.8621L13.7132 16.4379L12.6031 16.7147Z" fill="#FF0001"/>
<path d="M12.5206 16.7245L14.01 23.1757L15.1248 22.9183L13.6354 16.4671L12.5206 16.7245Z" fill="#FF0300"/>
<path d="M12.4381 16.733L13.8147 23.2092L14.9338 22.9713L13.5573 16.4952L12.4381 16.733Z" fill="#FF0700"/>
<path d="M12.3556 16.7399L13.6189 23.2391L14.742 23.0208L13.4787 16.5216L12.3556 16.7399Z" fill="#FF0C00"/>
<path d="M12.2729 16.7452L13.4226 23.2655L14.5493 23.0668L13.3997 16.5466L12.2729 16.7452Z" fill="#FF1000"/>
<path d="M12.1899 16.7493L13.2256 23.2886L14.3556 23.1096L13.3199 16.5703L12.1899 16.7493Z" fill="#FF1400"/>
<path d="M12.1069 16.7524L13.0283 23.3088L14.1613 23.1496L13.2399 16.5932L12.1069 16.7524Z" fill="#FF1800"/>
<path d="M12.0242 16.7529L12.8311 23.3244L13.9666 23.185L13.1598 16.6135L12.0242 16.7529Z" fill="#FF1D00"/>
<path d="M11.941 16.7529L12.6331 23.3374L13.7709 23.2179L13.0788 16.6333L11.941 16.7529Z" fill="#FF2100"/>
<path d="M11.858 16.7509L12.4351 23.3466L13.5748 23.2468L12.9978 16.6512L11.858 16.7509Z" fill="#FF2500"/>
<path d="M11.7752 16.748L12.2371 23.3527L13.3784 23.2729L12.9165 16.6682L11.7752 16.748Z" fill="#FF2900"/>
<path d="M11.6926 16.7433L12.0391 23.355L13.1816 23.2951L12.8351 16.6834L11.6926 16.7433Z" fill="#FF2E00"/>
<path d="M11.6098 16.7372L11.8408 23.354L12.9842 23.3141L12.7532 16.6973L11.6098 16.7372Z" fill="#FF3200"/>
<path d="M11.527 16.7297L11.6426 23.3495L12.7865 23.3295L12.671 16.7097L11.527 16.7297Z" fill="#FF3600"/>
<path d="M11.4446 16.7205V23.3414H12.5887V16.7205H11.4446Z" fill="#FF3A00"/>
<path d="M11.3621 16.7101L11.2466 23.33L12.3905 23.3499L12.5061 16.7301L11.3621 16.7101Z" fill="#FF3F00"/>
<path d="M11.2801 16.6982L11.0491 23.315L12.1925 23.3549L12.4236 16.7381L11.2801 16.6982Z" fill="#FF4300"/>
<path d="M11.1983 16.6853L10.8518 23.2971L11.9944 23.357L12.3409 16.7452L11.1983 16.6853Z" fill="#FF4700"/>
<path d="M11.1166 16.6706L10.6548 23.2753L11.7961 23.3551L12.258 16.7504L11.1166 16.6706Z" fill="#FF4B00"/>
<path d="M11.0353 16.6539L10.4583 23.2496L11.598 23.3493L12.1751 16.7536L11.0353 16.6539Z" fill="#FF5000"/>
<path d="M10.954 16.6367L10.262 23.2212L11.3998 23.3408L12.0919 16.7563L10.954 16.6367Z" fill="#FF5400"/>
<path d="M10.8733 16.6175L10.0664 23.189L11.202 23.3284L12.0089 16.757L10.8733 16.6175Z" fill="#FF5800"/>
<path d="M10.7928 16.5974L9.87134 23.1539L11.0043 23.3131L11.9258 16.7567L10.7928 16.5974Z" fill="#FF5C00"/>
<path d="M10.713 16.5758L9.67725 23.1151L10.8073 23.2941L11.843 16.7548L10.713 16.5758Z" fill="#FF6000"/>
<path d="M10.6333 16.5525L9.48364 23.0728L10.6104 23.2715L11.7601 16.7512L10.6333 16.5525Z" fill="#FF6500"/>
<path d="M10.5541 16.528L9.29077 23.0272L10.4139 23.2455L11.6772 16.7463L10.5541 16.528Z" fill="#FF6900"/>
<path d="M10.4752 16.5019L9.09863 22.9781L10.2178 23.2159L11.5943 16.7398L10.4752 16.5019Z" fill="#FF6D00"/>
<path d="M10.3968 16.4748L8.90747 22.926L10.0223 23.1834L11.5116 16.7322L10.3968 16.4748Z" fill="#FF7100"/>
<path d="M10.319 16.4461L8.71729 22.8703L9.82742 23.1471L11.4291 16.7229L10.319 16.4461Z" fill="#FF7600"/>
<path d="M10.2417 16.4162L8.52808 22.8114L9.63321 23.1075L11.3468 16.7123L10.2417 16.4162Z" fill="#FF7A00"/>
<path d="M10.1648 16.3845L8.33984 22.7489L9.43965 23.0643L11.2646 16.6999L10.1648 16.3845Z" fill="#FF7E00"/>
<path d="M10.0886 16.3519L8.15283 22.6835L9.24696 23.018L11.1827 16.6864L10.0886 16.3519Z" fill="#FF8200"/>
<path d="M10.013 16.318L7.96704 22.6148L9.05517 22.9683L11.1011 16.6716L10.013 16.318Z" fill="#FF8700"/>
<path d="M9.93776 16.2827L7.78223 22.5428L8.86402 22.9153L11.0196 16.6552L9.93776 16.2827Z" fill="#FF8B00"/>
<path d="M9.86358 16.2458L7.59912 22.4673L8.67424 22.8586L10.9387 16.6371L9.86358 16.2458Z" fill="#FF8F00"/>
<path d="M9.78969 16.2081L7.41699 22.3892L8.48512 22.7992L10.8578 16.6181L9.78969 16.2081Z" fill="#FF9300"/>
<path d="M9.71654 16.1688L7.23633 22.3075L8.29714 22.7361L10.7774 16.5974L9.71654 16.1688Z" fill="#FF9800"/>
<path d="M9.6441 16.1283L7.05713 22.2229L8.1103 22.6699L10.6973 16.5754L9.6441 16.1283Z" fill="#FF9C00"/>
<path d="M9.57233 16.0865L6.87939 22.135L7.9246 22.6003L10.6175 16.5519L9.57233 16.0865Z" fill="#FFA000"/>
<path d="M9.50146 16.0433L6.70337 22.0438L7.7403 22.5274L10.5384 16.5268L9.50146 16.0433Z" fill="#FFA400"/>
<path d="M9.43119 15.9993L6.52881 21.9501L7.55714 22.4516L10.4595 16.5009L9.43119 15.9993Z" fill="#FFA900"/>
<path d="M9.362 15.9542L6.3562 21.8534L7.37562 22.3728L10.3814 16.4736L9.362 15.9542Z" fill="#FFAD00"/>
<path d="M9.29336 15.9073L6.18506 21.7531L7.19526 22.2903L10.3036 16.4444L9.29336 15.9073Z" fill="#FFB100"/>
<path d="M9.22547 15.8599L6.01562 21.6506L7.0163 22.2053L10.2261 16.4146L9.22547 15.8599Z" fill="#FFB500"/>
<path d="M9.15856 15.8107L5.84814 21.5445L6.83898 22.1165L10.1494 16.3827L9.15856 15.8107Z" fill="#FFB900"/>
<path d="M9.09236 15.7603L5.68237 21.4354L6.66308 22.0247L10.0731 16.3495L9.09236 15.7603Z" fill="#FFBE00"/>
<path d="M9.02731 15.709L5.5188 21.3238L6.48907 21.9301L9.99758 16.3153L9.02731 15.709Z" fill="#FFC200"/>
<path d="M8.9629 15.6568L5.35693 21.2095L6.31648 21.8327L9.92244 16.2799L8.9629 15.6568Z" fill="#FFC600"/>
<path d="M8.89984 15.6031L5.19751 21.092L6.14603 21.7318L9.84836 16.2429L8.89984 15.6031Z" fill="#FFCA00"/>
<path d="M8.83711 15.5484L5.03955 20.9719L5.97676 21.6281L9.77432 16.2047L8.83711 15.5484Z" fill="#FFCF00"/>
<path d="M8.77591 15.4925L4.88428 20.8488L5.80989 21.5213L9.70153 16.165L8.77591 15.4925Z" fill="#FFD300"/>
<path d="M8.71523 15.4356L4.73071 20.7232L5.64445 21.4117L9.62897 16.1241L8.71523 15.4356Z" fill="#FFD700"/>
<path d="M8.65579 15.378L4.57959 20.5953L5.48117 21.2997L9.55737 16.0824L8.65579 15.378Z" fill="#FFDB00"/>
<path d="M8.59754 15.319L4.43091 20.4644L5.32006 21.1844L9.48669 16.0391L8.59754 15.319Z" fill="#FFE000"/>
<path d="M8.53997 15.2591L4.28418 20.3309L5.16063 21.0664L9.41642 15.9945L8.53997 15.2591Z" fill="#FFE400"/>
<path d="M8.48356 15.1984L4.13989 20.1952L5.00337 20.9458L9.34704 15.949L8.48356 15.1984Z" fill="#FFE800"/>
<path d="M8.4285 15.1366L3.99829 20.0568L4.84854 20.8224L9.27875 15.9022L8.4285 15.1366Z" fill="#FFEC00"/>
<path d="M8.37429 15.0737L3.85889 19.9159L4.69565 20.6962L9.21105 15.854L8.37429 15.0737Z" fill="#FFF100"/>
<path d="M8.32115 15.0097L3.72192 19.7723L4.54494 20.5671L9.14416 15.8045L8.32115 15.0097Z" fill="#FFF500"/>
<path d="M8.26904 14.9449L3.5874 19.6265L4.39642 20.4355L9.07806 15.7539L8.26904 14.9449Z" fill="#FFF900"/>
<path d="M8.2182 14.8795L3.45557 19.4787L4.25034 20.3017L9.01298 15.7025L8.2182 14.8795Z" fill="#FFFD00"/>
<path d="M8.16859 14.8133L3.32642 19.3287L4.10671 20.1654L8.94888 15.65L8.16859 14.8133Z" fill="#FCFF00"/>
<path d="M8.12019 14.7461L3.19995 19.1763L3.96552 20.0266L8.88576 15.5964L8.12019 14.7461Z" fill="#F8FF00"/>
<path d="M8.07274 14.6777L3.07593 19.0214L3.82654 19.8849L8.82335 15.5412L8.07274 14.6777Z" fill="#F4FF00"/>
<path d="M8.02669 14.609L2.95483 18.8648L3.69026 19.7412L8.76212 15.4854L8.02669 14.609Z" fill="#F0FF00"/>
<path d="M7.98179 14.5393L2.83643 18.7059L3.55645 19.5951L8.70181 15.4285L7.98179 14.5393Z" fill="#ECFF00"/>
<path d="M7.938 14.4683L2.7207 18.5445L3.4251 19.4461L8.64239 15.3699L7.938 14.4683Z" fill="#E7FF00"/>
<path d="M7.89555 14.3972L2.60791 18.3817L3.29646 19.2955L8.5841 15.3109L7.89555 14.3972Z" fill="#E3FF00"/>
<path d="M7.85418 14.3257L2.4978 18.2173L3.1703 19.1429L8.52667 15.2513L7.85418 14.3257Z" fill="#DFFF00"/>
<path d="M7.81434 14.2525L2.39087 18.05L3.04711 18.9872L8.47059 15.1897L7.81434 14.2525Z" fill="#DBFF00"/>
<path d="M7.77555 14.1794L2.28662 17.8817L2.92641 18.8302L8.41533 15.1279L7.77555 14.1794Z" fill="#D6FF00"/>
<path d="M7.73825 14.1048L2.18555 17.7108L2.80868 18.6704L8.36138 15.0644L7.73825 14.1048Z" fill="#D2FF00"/>
<path d="M7.70219 14.0308L2.0874 17.5393L2.6937 18.5095L8.30849 15.001L7.70219 14.0308Z" fill="#CEFF00"/>
<path d="M7.66736 13.9555L1.99219 17.3654L2.58145 18.3461L8.25662 14.9362L7.66736 13.9555Z" fill="#CAFF00"/>
<path d="M7.63396 13.8792L1.90015 17.1897L2.47221 18.1805L8.20602 14.8701L7.63396 13.8792Z" fill="#C5FF00"/>
<path d="M7.60175 13.8027L1.81104 17.0126L2.36572 18.0132L8.15643 14.8034L7.60175 13.8027Z" fill="#C1FF00"/>
<path d="M7.57095 13.7259L1.7251 16.8342L2.26223 17.8444L8.10809 14.7361L7.57095 13.7259Z" fill="#BDFF00"/>
<path d="M7.54155 13.6484L1.64233 16.6542L2.16175 17.6736L8.06097 14.6678L7.54155 13.6484Z" fill="#B9FF00"/>
<path d="M7.51352 13.5705L1.56274 16.4729L2.06429 17.5012L8.01507 14.5988L7.51352 13.5705Z" fill="#B4FF00"/>
<path d="M7.4866 13.4918L1.48608 16.2899L1.96961 17.3268L7.97013 14.5288L7.4866 13.4918Z" fill="#B0FF00"/>
<path d="M7.46152 13.4127L1.41309 16.1057L1.87844 17.1509L7.92688 14.4579L7.46152 13.4127Z" fill="#ACFF00"/>
<path d="M7.43753 13.3332L1.34302 15.9201L1.79006 16.9733L7.88458 14.3863L7.43753 13.3332Z" fill="#A8FF00"/>
<path d="M7.41486 13.2531L1.27612 15.7333L1.70472 16.7941L7.84346 14.3139L7.41486 13.2531Z" fill="#A3FF00"/>
<path d="M7.39373 13.1734L1.21265 15.5461L1.62266 16.6142L7.80375 14.2415L7.39373 13.1734Z" fill="#9FFF00"/>
<path d="M7.3739 13.0928L1.15234 15.3573L1.54366 16.4324L7.76521 14.168L7.3739 13.0928Z" fill="#9BFF00"/>
<path d="M7.35559 13.0113L1.09546 15.1669L1.46795 16.2487L7.72808 14.0931L7.35559 13.0113Z" fill="#97FF00"/>
<path d="M7.33854 12.9302L1.04175 14.9761L1.3953 16.0642L7.6921 14.0183L7.33854 12.9302Z" fill="#93FF00"/>
<path d="M7.323 12.849L0.991455 14.7847L1.32596 15.8788L7.65751 13.9431L7.323 12.849Z" fill="#8EFF00"/>
<path d="M7.30894 12.7674L0.94458 14.5923L1.25994 15.6921L7.6243 13.8672L7.30894 12.7674Z" fill="#8AFF00"/>
<path d="M7.29636 12.6854L0.901123 14.399L1.19724 15.5041L7.59249 13.7905L7.29636 12.6854Z" fill="#86FF00"/>
<path d="M7.28501 12.6029L0.86084 14.2046L1.13763 15.3148L7.5618 13.713L7.28501 12.6029Z" fill="#82FF00"/>
<path d="M7.27512 12.5206L0.823975 14.01L1.08135 15.1248L7.53249 13.6354L7.27512 12.5206Z" fill="#7DFF00"/>
<path d="M7.26693 12.4378L0.790771 13.8143L1.02865 14.9335L7.50481 13.5569L7.26693 12.4378Z" fill="#79FF00"/>
<path d="M7.25994 12.3554L0.760742 13.6187L0.979051 14.7418L7.47825 13.4785L7.25994 12.3554Z" fill="#75FF00"/>
<path d="M7.25439 12.2724L0.734131 13.4221L0.932806 14.5488L7.45306 13.3991L7.25439 12.2724Z" fill="#71FF00"/>
<path d="M7.25051 12.1897L0.711182 13.2255L0.890162 14.3555L7.42949 13.3198L7.25051 12.1897Z" fill="#6CFF00"/>
<path d="M7.24781 12.1064L0.691406 13.0279L0.850637 14.1609L7.40705 13.2394L7.24781 12.1064Z" fill="#68FF00"/>
<path d="M7.24654 12.0237L0.675049 12.8306L0.814482 13.9662L7.38597 13.1593L7.24654 12.0237Z" fill="#64FF00"/>
<path d="M7.24692 11.941L0.662354 12.633L0.781947 13.7709L7.36652 13.0788L7.24692 11.941Z" fill="#60FF00"/>
<path d="M7.24872 11.8577L0.653076 12.4348L0.752793 13.5745L7.34844 12.9975L7.24872 11.8577Z" fill="#5BFF00"/>
<path d="M7.25193 11.7753L0.647217 12.2372L0.727027 13.3785L7.33174 12.9167L7.25193 11.7753Z" fill="#57FF00"/>
<path d="M7.25654 11.6924L0.644775 12.0389L0.704654 13.1815L7.31642 12.835L7.25654 11.6924Z" fill="#53FF00"/>
<path d="M7.26256 11.6093L0.645752 11.8404L0.685681 12.9838L7.30249 12.7527L7.26256 11.6093Z" fill="#4FFF00"/>
<path d="M7.27022 11.5269L0.650391 11.6425L0.670358 12.7864L7.29019 12.6709L7.27022 11.5269Z" fill="#4AFF00"/>
<path d="M7.27904 11.4445H0.658203V12.5887H7.27904V11.4445Z" fill="#46FF00"/>
<path d="M7.28951 11.3622L0.669678 11.2466L0.64971 12.3906L7.26954 12.5061L7.28951 11.3622Z" fill="#42FF00"/>
<path d="M7.30138 11.2801L0.68457 11.049L0.644641 12.1925L7.26145 12.4235L7.30138 11.2801Z" fill="#3EFF00"/>
<path d="M7.31465 11.1976L0.702881 10.8511L0.643002 11.9937L7.25477 12.3402L7.31465 11.1976Z" fill="#3AFF00"/>
<path d="M7.32932 11.1167L0.724609 10.6548L0.644799 11.7962L7.24951 12.258L7.32932 11.1167Z" fill="#35FF00"/>
<path d="M7.34565 11.0349L0.75 10.4579L0.650283 11.5977L7.24593 12.1747L7.34565 11.0349Z" fill="#31FF00"/>
<path d="M7.36314 10.9537L0.778564 10.2616L0.658971 11.3995L7.24354 12.0915L7.36314 10.9537Z" fill="#2DFF00"/>
<path d="M7.38204 10.8728L0.810547 10.066L0.671113 11.2016L7.2426 12.0084L7.38204 10.8728Z" fill="#29FF00"/>
<path d="M7.40235 10.7931L0.845947 9.87163L0.686716 11.0046L7.24312 11.9261L7.40235 10.7931Z" fill="#24FF00"/>
<path d="M7.42409 10.7127L0.884766 9.67696L0.705785 10.807L7.24511 11.8427L7.42409 10.7127Z" fill="#20FF00"/>
<path d="M7.44726 10.633L0.927002 9.48328L0.728327 10.61L7.24858 11.7597L7.44726 10.633Z" fill="#1CFF00"/>
<path d="M7.47185 10.5536L0.972656 9.29025L0.754347 10.4133L7.25354 11.6767L7.47185 10.5536Z" fill="#18FF00"/>
<path d="M7.49789 10.4751L1.02173 9.09851L0.783852 10.2176L7.26001 11.5942L7.49789 10.4751Z" fill="#13FF00"/>
<path d="M7.52512 10.3968L1.07397 8.90743L0.816603 10.0222L7.26775 11.5116L7.52512 10.3968Z" fill="#0FFF00"/>
<path d="M7.55381 10.3187L1.12964 8.717L0.85285 9.82714L7.27702 11.4289L7.55381 10.3187Z" fill="#0BFF00"/>
<path d="M7.58372 10.2415L1.18848 8.52788L0.892356 9.63302L7.2876 11.3466L7.58372 10.2415Z" fill="#07FF00"/>
<path d="M7.61509 10.1647L1.25073 8.33972L0.935369 9.43952L7.29973 11.2645L7.61509 10.1647Z" fill="#02FF00"/>
<path d="M7.6477 10.0886L1.31616 8.15288L0.981653 9.24701L7.3132 11.1828L7.6477 10.0886Z" fill="#00FF02"/>
<path d="M7.6818 10.0126L1.38501 7.96667L1.03146 9.0548L7.32825 11.1008L7.6818 10.0126Z" fill="#00FF06"/>
<path d="M7.71716 9.93764L1.45703 7.7821L1.08454 8.86389L7.34467 11.0194L7.71716 9.93764Z" fill="#00FF0A"/>
<path d="M7.75378 9.86297L1.53223 7.59851L1.14091 8.67363L7.36247 10.9381L7.75378 9.86297Z" fill="#00FF0F"/>
<path d="M7.79168 9.78925L1.6106 7.41655L1.20058 8.48468L7.38167 10.8574L7.79168 9.78925Z" fill="#00FF13"/>
<path d="M7.83088 9.7161L1.69214 7.23589L1.26354 8.2967L7.40228 10.7769L7.83088 9.7161Z" fill="#00FF17"/>
<path d="M7.87162 9.64382L1.7771 7.05685L1.33006 8.11002L7.42457 10.697L7.87162 9.64382Z" fill="#00FF1B"/>
<path d="M7.91318 9.57238L1.86475 6.87944L1.39939 7.92465L7.44783 10.6176L7.91318 9.57238Z" fill="#00FF1F"/>
<path d="M7.95609 9.50109L1.95557 6.703L1.47204 7.73993L7.47256 10.538L7.95609 9.50109Z" fill="#00FF24"/>
<path d="M8.00033 9.43124L2.04956 6.52885L1.54801 7.55719L7.49878 10.4596L8.00033 9.43124Z" fill="#00FF28"/>
<path d="M8.04594 9.3618L2.14673 6.356L1.62731 7.37542L7.52652 10.3812L8.04594 9.3618Z" fill="#00FF2C"/>
<path d="M8.09244 9.2934L2.24658 6.1851L1.70945 7.19531L7.5553 10.3036L8.09244 9.2934Z" fill="#00FF30"/>
<path d="M8.14033 9.22503L2.34961 6.01518L1.79493 7.01586L7.58565 10.2257L8.14033 9.22503Z" fill="#00FF35"/>
<path d="M8.18938 9.15828L2.45557 5.84786L1.8835 6.8387L7.61732 10.1491L8.18938 9.15828Z" fill="#00FF39"/>
<path d="M8.23962 9.09216L2.56445 5.68217L1.97519 6.66288L7.65035 10.0729L8.23962 9.09216Z" fill="#00FF3D"/>
<path d="M8.29082 9.02727L2.67603 5.51876L2.06973 6.48903L7.68452 9.99754L8.29082 9.02727Z" fill="#00FF41"/>
<path d="M8.34323 8.96262L2.79053 5.35665L2.16739 6.31619L7.7201 9.92216L8.34323 8.96262Z" fill="#00FF46"/>
<path d="M8.39689 8.89947L2.90796 5.19714L2.26817 6.14566L7.7571 9.84799L8.39689 8.89947Z" fill="#00FF4A"/>
<path d="M8.45155 8.83748L3.02808 5.03992L2.37183 5.97713L7.79531 9.77469L8.45155 8.83748Z" fill="#00FF4E"/>
<path d="M8.50725 8.77563L3.15088 4.884L2.47838 5.80961L7.83475 9.70124L8.50725 8.77563Z" fill="#00FF52"/>
<path d="M8.56401 8.71552L3.27637 4.731L2.58782 5.64474L7.87545 9.62926L8.56401 8.71552Z" fill="#00FF57"/>
<path d="M8.62183 8.65583L3.40454 4.57964L2.70015 5.48122L7.91744 9.55741L8.62183 8.65583Z" fill="#00FF5B"/>
<path d="M8.68076 8.59717L3.5354 4.43054L2.81538 5.31969L7.96074 9.48632L8.68076 8.59717Z" fill="#00FF5F"/>
<path d="M8.74056 8.53985L3.6687 4.28406L2.93327 5.16051L8.00513 9.4163L8.74056 8.53985Z" fill="#00FF63"/>
<path d="M8.8015 8.48352L3.80469 4.13985L3.05408 5.00334L8.05089 9.347L8.8015 8.48352Z" fill="#00FF68"/>
<path d="M8.86336 8.42813L3.94312 3.99792L3.17755 4.84817L8.09779 9.27838L8.86336 8.42813Z" fill="#00FF6C"/>
<path d="M8.92616 8.37368L4.08398 3.85828L3.30369 4.69504L8.14587 9.21044L8.92616 8.37368Z" fill="#00FF70"/>
<path d="M8.98993 8.32079L4.22729 3.72157L3.43252 4.54458L8.19515 9.1438L8.98993 8.32079Z" fill="#00FF74"/>
<path d="M9.05469 8.26909L4.37305 3.58745L3.56403 4.39647L8.24567 9.07811L9.05469 8.26909Z" fill="#00FF78"/>
<path d="M9.12022 8.21825L4.521 3.45561L3.69798 4.25039L8.29721 9.01302L9.12022 8.21825Z" fill="#00FF7D"/>
<path d="M9.18655 8.16855L4.67114 3.32638L3.83438 4.10667L8.34979 8.94884L9.18655 8.16855Z" fill="#00FF81"/>
<path d="M9.25394 8.12L4.82373 3.19975L3.97348 3.96532L8.40369 8.88556L9.25394 8.12Z" fill="#00FF85"/>
<path d="M9.32193 8.07286L4.97827 3.07605L4.11479 3.82666L8.45845 8.82347L9.32193 8.07286Z" fill="#00FF89"/>
<path d="M9.39105 8.02649L5.13525 2.95464L4.25881 3.69006L8.5146 8.76192L9.39105 8.02649Z" fill="#00FF8E"/>
<path d="M9.46082 7.9815L5.29419 2.83614L4.40504 3.55616L8.57167 8.70152L9.46082 7.9815Z" fill="#00FF92"/>
<path d="M9.53127 7.93787L5.45508 2.72058L4.5535 3.42497L8.62969 8.64227L9.53127 7.93787Z" fill="#00FF96"/>
<path d="M9.60244 7.89559L5.61792 2.60796L4.70418 3.29651L8.6887 8.58414L9.60244 7.89559Z" fill="#00FF9A"/>
<path d="M9.67435 7.8543L5.78271 2.49792L4.8571 3.17042L8.74873 8.5268L9.67435 7.8543Z" fill="#00FF9F"/>
<path d="M9.74726 7.81398L5.94971 2.3905L5.0125 3.04674L8.81005 8.47022L9.74726 7.81398Z" fill="#00FFA3"/>
<path d="M9.82049 7.77559L6.11816 2.28667L5.16964 2.92645L8.87197 8.41538L9.82049 7.77559Z" fill="#00FFA7"/>
<path d="M9.89479 7.73846L6.28882 2.18575L5.32928 2.80889L8.93524 8.36159L9.89479 7.73846Z" fill="#00FFAB"/>
<path d="M9.96945 7.70191L6.46094 2.08712L5.49067 2.69341L8.99918 8.3082L9.96945 7.70191Z" fill="#00FFB0"/>
<path d="M10.0448 7.66691L6.63477 1.99174L5.65406 2.58101L9.06405 8.25618L10.0448 7.66691Z" fill="#00FFB4"/>
<path d="M10.1207 7.63376L6.8103 1.89995L5.81946 2.47201L9.12988 8.20583L10.1207 7.63376Z" fill="#00FFB8"/>
<path d="M10.1972 7.60147L6.9873 1.81075L5.98663 2.36543L9.19648 8.15615L10.1972 7.60147Z" fill="#00FFBC"/>
<path d="M10.2741 7.57067L7.16577 1.72482L6.15557 2.26195L9.26387 8.1078L10.2741 7.57067Z" fill="#00FFC1"/>
<path d="M10.3517 7.54167L7.34595 1.64246L6.32653 2.16188L9.33233 8.06109L10.3517 7.54167Z" fill="#00FFC5"/>
<path d="M10.4297 7.51315L7.52734 1.56238L6.49901 2.06393L9.4014 8.0147L10.4297 7.51315Z" fill="#00FFC9"/>
<path d="M10.5083 7.48641L7.71021 1.48589L6.67328 1.96941L9.47137 7.96993L10.5083 7.48641Z" fill="#00FFCD"/>
<path d="M10.5872 7.4614L7.89429 1.41296L6.84908 1.87832L9.54202 7.92676L10.5872 7.4614Z" fill="#00FFD1"/>
<path d="M10.6666 7.4375L8.07959 1.34298L7.02642 1.79002L9.61339 7.88454L10.6666 7.4375Z" fill="#00FFD6"/>
<path d="M10.7466 7.41466L8.26636 1.27592L7.20555 1.70452L9.68576 7.84326L10.7466 7.41466Z" fill="#00FFDA"/>
<path d="M10.8268 7.39354L8.4541 1.21245L7.38597 1.62247L9.75867 7.80355L10.8268 7.39354Z" fill="#00FFDE"/>
<path d="M10.9073 7.37378L8.64282 1.15222L7.5677 1.54353L9.83216 7.76509L10.9073 7.37378Z" fill="#00FFE2"/>
<path d="M10.9883 7.35539L8.83276 1.09526L7.75097 1.46775L9.90651 7.72788L10.9883 7.35539Z" fill="#00FFE7"/>
<path d="M11.0694 7.33866L9.02344 1.04187L7.93531 1.39542L9.98126 7.69222L11.0694 7.33866Z" fill="#00FFEB"/>
<path d="M11.1508 7.32296L9.21509 0.991417L8.12096 1.32593L10.0567 7.65747L11.1508 7.32296Z" fill="#00FFEF"/>
<path d="M11.2327 7.3089L9.40771 0.944542L8.30791 1.2599L10.1329 7.62427L11.2327 7.3089Z" fill="#00FFF3"/>
<path d="M11.3147 7.29584L9.60107 0.900597L8.49594 1.19672L10.2095 7.59196L11.3147 7.29584Z" fill="#00FFF8"/>
<path d="M11.3969 7.28506L9.79517 0.860886L8.68503 1.13767L10.2868 7.56185L11.3969 7.28506Z" fill="#00FFFC"/>
<path d="M11.4794 7.27493L9.98999 0.823776L8.87519 1.08115L10.3646 7.5323L11.4794 7.27493Z" fill="#00FEFF"/>
<path d="M11.5619 7.26705L10.1853 0.790894L9.06618 1.02877L10.4427 7.50493L11.5619 7.26705Z" fill="#00FAFF"/>
<path d="M11.6444 7.2595L10.3811 0.7603L9.258 0.978609L10.5213 7.47781L11.6444 7.2595Z" fill="#00F5FF"/>
<path d="M11.7273 7.25451L10.5776 0.734253L9.4509 0.932928L10.6006 7.45318L11.7273 7.25451Z" fill="#00F1FF"/>
<path d="M11.8101 7.25014L10.7744 0.710815L9.64438 0.889796L10.6801 7.42912L11.8101 7.25014Z" fill="#00EDFF"/>
<path d="M11.8929 7.24737L10.9714 0.690964L9.83845 0.850195L10.7599 7.4066L11.8929 7.24737Z" fill="#00E9FF"/>
<path d="M11.9758 7.2465L11.1689 0.675011L10.0334 0.814444L10.8402 7.38594L11.9758 7.2465Z" fill="#00E4FF"/>
<path d="M12.059 7.24689L11.3669 0.662315L10.2291 0.781909L10.9212 7.36648L12.059 7.24689Z" fill="#00E0FF"/>
<path d="M12.1417 7.24853L11.5647 0.652878L10.4249 0.752595L11.002 7.34824L12.1417 7.24853Z" fill="#00DCFF"/>
<path d="M12.2248 7.25173L11.7629 0.647018L10.6216 0.726828L11.0835 7.33154L12.2248 7.25173Z" fill="#00D8FF"/>
<path d="M12.3074 7.25618L11.9609 0.644409L10.8184 0.704288L11.1649 7.31606L12.3074 7.25618Z" fill="#00D4FF"/>
<path d="M12.3902 7.26219L12.1592 0.645386L11.0158 0.685315L11.2468 7.30212L12.3902 7.26219Z" fill="#00CFFF"/>
<path d="M12.473 7.2701L12.3574 0.650269L11.2135 0.670236L11.329 7.29007L12.473 7.2701Z" fill="#00CBFF"/>
<path d="M12.5554 7.27925V0.658409H11.4113V7.27925H12.5554Z" fill="#00C7FF"/>
<path d="M12.6376 7.28963L12.7532 0.6698L11.6092 0.649832L11.4937 7.26966L12.6376 7.28963Z" fill="#00C3FF"/>
<path d="M12.7199 7.30159L12.9509 0.684776L11.8075 0.644847L11.5764 7.26166L12.7199 7.30159Z" fill="#00BEFF"/>
<path d="M12.8017 7.31445L13.1482 0.702682L12.0056 0.642804L11.6591 7.25457L12.8017 7.31445Z" fill="#00BAFF"/>
<path d="M12.8834 7.3292L13.3452 0.724487L12.2039 0.644677L11.742 7.24939L12.8834 7.3292Z" fill="#00B6FF"/>
<path d="M12.9647 7.3452L13.5417 0.749557L12.402 0.649841L11.8249 7.24549L12.9647 7.3452Z" fill="#00B2FF"/>
<path d="M13.046 7.36277L13.738 0.778198L12.6002 0.658605L11.9081 7.24318L13.046 7.36277Z" fill="#00ADFF"/>
<path d="M13.1267 7.38159L13.9336 0.810104L12.798 0.670671L11.9911 7.24216L13.1267 7.38159Z" fill="#00A9FF"/>
<path d="M13.207 7.40232L14.1284 0.845909L12.9954 0.686678L12.074 7.24308L13.207 7.40232Z" fill="#00A5FF"/>
<path d="M13.287 7.42397L14.3228 0.884644L13.1927 0.705663L12.157 7.24499L13.287 7.42397Z" fill="#00A1FF"/>
<path d="M13.3669 7.44722L14.5166 0.926964L13.3899 0.728289L12.2402 7.24854L13.3669 7.44722Z" fill="#009CFF"/>
<path d="M13.4462 7.47206L14.7095 0.972862L13.5864 0.754553L12.3231 7.25375L13.4462 7.47206Z" fill="#0098FF"/>
<path d="M13.5248 7.49785L14.9014 1.02169L13.7822 0.783814L12.4057 7.25997L13.5248 7.49785Z" fill="#0094FF"/>
<path d="M13.6032 7.52493L15.0925 1.07378L13.9777 0.816405L12.4884 7.26755L13.6032 7.52493Z" fill="#0090FF"/>
<path d="M13.681 7.55393L15.2827 1.12976L14.1726 0.852972L12.5709 7.27715L13.681 7.55393Z" fill="#008BFF"/>
<path d="M13.7583 7.5836L15.4719 1.18835L14.3668 0.892234L12.6532 7.28748L13.7583 7.5836Z" fill="#0087FF"/>
<path d="M13.8352 7.61489L15.6602 1.25053L14.5604 0.935171L12.7354 7.29953L13.8352 7.61489Z" fill="#0083FF"/>
<path d="M13.9114 7.64751L15.8472 1.31596L14.753 0.981454L12.8173 7.313L13.9114 7.64751Z" fill="#007FFF"/>
<path d="M13.987 7.68177L16.033 1.38497L14.9448 1.03142L12.8989 7.32821L13.987 7.68177Z" fill="#007BFF"/>
<path d="M14.062 7.71704L16.2175 1.45691L15.1357 1.08442L12.9802 7.34455L14.062 7.71704Z" fill="#0076FF"/>
<path d="M14.1364 7.75399L16.4009 1.53243L15.3258 1.14112L13.0613 7.36267L14.1364 7.75399Z" fill="#0072FF"/>
<path d="M14.2103 7.79164L16.583 1.61056L15.5149 1.20054L13.1422 7.38163L14.2103 7.79164Z" fill="#006EFF"/>
<path d="M14.2835 7.831L16.7637 1.69226L15.7029 1.26366L13.2226 7.4024L14.2835 7.831Z" fill="#006AFF"/>
<path d="M14.3559 7.87142L16.9429 1.7769L15.8897 1.32986L13.3027 7.42437L14.3559 7.87142Z" fill="#0065FF"/>
<path d="M14.4274 7.9129L17.1204 1.86446L16.0752 1.39911L13.3822 7.44755L14.4274 7.9129Z" fill="#0061FF"/>
<path d="M14.4985 7.95645L17.2966 1.95593L16.2597 1.47241L13.4616 7.47292L14.4985 7.95645Z" fill="#005DFF"/>
<path d="M14.5686 8.00046L17.4709 2.04968L16.4426 1.54813L13.5402 7.4989L14.5686 8.00046Z" fill="#0059FF"/>
<path d="M14.6382 8.04525L17.644 2.14604L16.6246 1.62662L13.6188 7.52583L14.6382 8.04525Z" fill="#0054FF"/>
<path d="M14.7066 8.09248L17.8149 2.24663L16.8047 1.70949L13.6964 7.55535L14.7066 8.09248Z" fill="#0050FF"/>
<path d="M14.7743 8.14021L17.9841 2.34949L16.9835 1.79481L13.7736 7.58552L14.7743 8.14021Z" fill="#004CFF"/>
<path d="M14.8414 8.18877L18.1519 2.45496L17.161 1.88289L13.8506 7.61671L14.8414 8.18877Z" fill="#0048FF"/>
<path d="M14.9074 8.23918L18.3174 2.56401L17.3367 1.97474L13.9267 7.64991L14.9074 8.23918Z" fill="#0043FF"/>
<path d="M14.9727 8.29078L18.4812 2.67599L17.5109 2.06969L14.0024 7.68449L14.9727 8.29078Z" fill="#003FFF"/>
<path d="M15.0371 8.34328L18.6431 2.79057L17.6835 2.16744L14.0776 7.72014L15.0371 8.34328Z" fill="#003BFF"/>
<path d="M15.1002 8.39669L18.8025 2.90776L17.854 2.26798L14.1516 7.7569L15.1002 8.39669Z" fill="#0037FF"/>
<path d="M15.1626 8.45135L18.9602 3.02788L18.023 2.37164L14.2254 7.79511L15.1626 8.45135Z" fill="#0032FF"/>
<path d="M15.2241 8.5073L19.1157 3.15092L18.1901 2.47843L14.2985 7.8348L15.2241 8.5073Z" fill="#002EFF"/>
<path d="M15.2845 8.56388L19.269 3.27625L18.3553 2.58769L14.3708 7.87533L15.2845 8.56388Z" fill="#002AFF"/>
<path d="M15.344 8.6218L19.4202 3.4045L18.5186 2.70011L14.4424 7.9174L15.344 8.6218Z" fill="#0026FF"/>
<path d="M15.4025 8.68072L19.5691 3.53536L18.6799 2.81534L14.5133 7.9607L15.4025 8.68072Z" fill="#0022FF"/>
<path d="M12.3352 22.9618H11.6853C11.6551 22.9509 11.6249 22.9481 11.5944 22.9481C11.2474 22.9317 10.903 22.9037 10.5615 22.8573C9.92275 22.7747 9.29469 22.6342 8.68335 22.4389C7.63413 22.1031 6.65649 21.6213 5.75044 20.9934C4.91026 20.4096 4.16699 19.7213 3.51969 18.9286C2.75658 17.9979 2.16195 16.9708 1.74041 15.8423C1.363 14.8401 1.13724 13.8023 1.06823 12.7312C1.06823 12.6733 1.05727 12.6155 1.03809 12.5577V11.4261C1.05727 11.3762 1.06549 11.3242 1.06823 11.2719C1.08193 11.0158 1.10934 10.7597 1.14277 10.5066C1.30813 9.2842 1.67141 8.12482 2.23058 7.02622C2.6161 6.26897 3.08434 5.56445 3.6349 4.9143C4.18026 4.27018 4.79166 3.69451 5.46894 3.19081C6.57335 2.37021 7.78792 1.77832 9.11519 1.4151C9.75953 1.2391 10.418 1.12346 11.0842 1.06821C11.2024 1.05725 11.3266 1.06821 11.4449 1.03806H12.5575C12.6428 1.06273 12.731 1.04902 12.8163 1.05725C13.2571 1.09561 13.695 1.15103 14.1298 1.23625C15.4986 1.50608 16.768 2.01833 17.9414 2.77508C18.8531 3.36149 19.6572 4.06903 20.3594 4.89221C20.9241 5.55305 21.403 6.27171 21.7942 7.04781C22.2569 7.96483 22.5872 8.92547 22.7749 9.93583C22.8738 10.4699 22.9484 11.0095 22.9509 11.5547C22.9509 11.5909 22.9591 11.6293 22.9619 11.6648V12.3146C22.9509 12.3557 22.9509 12.3998 22.9482 12.4439C22.9482 12.5484 22.9482 12.6534 22.9399 12.7579C22.8901 13.4243 22.7857 14.0822 22.6203 14.7319C22.3037 15.9517 21.7939 17.0833 21.0862 18.1266C20.5601 18.903 19.9461 19.6025 19.241 20.2218C18.5388 20.8385 17.7702 21.3589 16.9357 21.7799C15.9743 22.2643 14.9637 22.6005 13.9033 22.7847C13.4959 22.8562 13.0855 22.9029 12.6725 22.9278C12.5637 22.9404 12.4483 22.9377 12.3352 22.9618Z" fill="#383838"/>
<path style="mix-blend-mode:lighten" d="M9.14874 7.45152C9.14106 7.65294 9.17684 7.87312 9.23619 8.09336C9.34924 8.5124 9.53661 8.89636 9.75756 9.25904C10.2609 10.0838 10.8953 10.7899 11.5837 11.4455C11.6401 11.4994 11.7072 11.5449 11.779 11.5796C11.851 11.617 11.9229 11.617 11.9972 11.5849C12.0691 11.5529 12.1334 11.5072 12.1873 11.4479C12.4262 11.2009 12.6624 10.9536 12.8885 10.6983C13.2069 10.3356 13.5101 9.96252 13.785 9.56225C14.0343 9.19962 14.2576 8.81811 14.4218 8.40448C14.586 7.99335 14.6658 7.56929 14.6119 7.12341C14.522 6.38766 14.2216 5.76426 13.6847 5.27545C13.0499 4.69841 12.3104 4.46737 11.4782 4.59607C10.1247 4.80583 9.14352 6.05223 9.14874 7.45152Z" fill="url(#paint0_radial_557_15485)"/>
<path d="M16.1534 17.4801C15.9831 17.4853 15.7918 17.4642 15.6006 17.4236C15.0348 17.2997 14.5542 17.0425 14.1849 16.5864C13.9603 16.3083 13.7715 16.0069 13.6088 15.6899C13.4174 15.3164 13.2576 14.9273 13.1181 14.5334C12.9478 14.0569 12.8031 13.57 12.6918 13.0778C12.6299 12.8021 12.6995 12.6294 13.0044 12.5344C13.3917 12.4134 13.782 12.3052 14.1797 12.2174C14.8383 12.0731 15.5021 11.9806 16.1792 12.0034C16.3705 12.0111 16.5614 12.0316 16.7502 12.0651C17.2979 12.1605 17.7627 12.413 18.1424 12.8121C18.791 13.4922 19.0489 14.3037 18.889 15.2287C18.6591 16.5504 17.4863 17.4905 16.1534 17.4801Z" fill="url(#paint1_radial_557_15485)"/>
<path d="M7.62295 17.4801C7.79331 17.4853 7.98459 17.4642 8.17583 17.4236C8.74161 17.2997 9.22215 17.0425 9.59146 16.5864C9.81605 16.3083 10.0049 16.0069 10.1676 15.6899C10.359 15.3164 10.5188 14.9273 10.6582 14.5334C10.8286 14.0569 10.9733 13.57 11.0846 13.0778C11.1465 12.8021 11.0769 12.6294 10.772 12.5344C10.3847 12.4134 9.99443 12.3052 9.59665 12.2174C8.93808 12.0731 8.27427 11.9806 7.59719 12.0034C7.40591 12.0111 7.21504 12.0316 7.02622 12.0651C6.47854 12.1605 6.01367 12.413 5.63398 12.8121C4.98544 13.4922 4.72748 14.3037 4.8874 15.2287C5.11724 16.5504 6.29013 17.4905 7.62295 17.4801Z" fill="url(#paint2_radial_557_15485)"/>
</g>
<defs>
<radialGradient id="paint0_radial_557_15485" cx="0" cy="0" r="1" gradientUnits="userSpaceOnUse" gradientTransform="translate(11.9412 11.2431) rotate(4.82254) scale(2.91101 5.38101)">
<stop stop-color="white"/>
<stop offset="1" stop-color="#009BD8"/>
</radialGradient>
<radialGradient id="paint1_radial_557_15485" cx="0" cy="0" r="1" gradientUnits="userSpaceOnUse" gradientTransform="translate(12.7016 12.9094) rotate(21.7759) scale(6.41937 3.43036)">
<stop stop-color="white"/>
<stop offset="1" stop-color="#FF3044"/>
</radialGradient>
<radialGradient id="paint2_radial_557_15485" cx="0" cy="0" r="1" gradientUnits="userSpaceOnUse" gradientTransform="translate(11.0408 12.6768) rotate(146.321) scale(6.48723 2.94879)">
<stop stop-color="white"/>
<stop offset="1" stop-color="#FCFF7C"/>
</radialGradient>
<clipPath id="clip0_557_15485">
<path d="M0 12C0 5.37258 5.37258 0 12 0C18.6274 0 24 5.37258 24 12C24 18.6274 18.6274 24 12 24C5.37258 24 0 18.6274 0 12Z" fill="white"/>
</clipPath>
</defs>
</svg>
