<svg width="24" height="24" viewBox="0 0 24 24" fill="none" xmlns="http://www.w3.org/2000/svg">
<g clip-path="url(#clip0_1361_40881)">
<path d="M12 24C18.6275 24 24 18.6275 24 12C24 5.3725 18.6275 0 12 0C5.3725 0 0 5.3725 0 12C0 18.6275 5.3725 24 12 24Z" fill="#5C2D91"/>
<path opacity="0.1" d="M4.02457 3C2.80195 4.08908 1.81466 5.41641 1.12322 6.90059C0.431783 8.38478 0.050769 9.99454 0.00353875 11.6312C-0.0436915 13.2679 0.243858 14.8969 0.848556 16.4185C1.45326 17.9401 2.36236 19.3222 3.52014 20.4799C4.67791 21.6377 6.05996 22.5468 7.58155 23.1515C9.10314 23.7562 10.7322 24.0438 12.3689 23.9965C14.0055 23.9493 15.6153 23.5683 17.0995 22.8768C18.5837 22.1854 19.911 21.1981 21.0001 19.9755L4.02457 3Z" fill="white"/>
<path d="M3.06647 15.2565C2.99744 15.2576 2.92891 15.2445 2.86523 15.2178C2.80155 15.1911 2.74408 15.1515 2.69647 15.1015C2.6476 15.0532 2.60899 14.9955 2.58295 14.932C2.55692 14.8684 2.544 14.8002 2.54497 14.7315C2.54445 14.6629 2.55758 14.5948 2.58359 14.5313C2.60959 14.4678 2.64797 14.4101 2.69647 14.3615C2.74358 14.3106 2.80085 14.2701 2.86459 14.2427C2.92833 14.2153 2.99711 14.2016 3.06647 14.2025C3.13574 14.2023 3.20431 14.2163 3.26795 14.2436C3.3316 14.271 3.38895 14.3111 3.43647 14.3615C3.48579 14.4096 3.52493 14.4672 3.55156 14.5308C3.57819 14.5943 3.59176 14.6626 3.59147 14.7315C3.59219 14.8005 3.57882 14.8689 3.55216 14.9325C3.52551 14.9961 3.48614 15.0536 3.43647 15.1015C3.38848 15.151 3.33095 15.1903 3.26735 15.2169C3.20376 15.2435 3.13542 15.257 3.06647 15.2565ZM10.415 15.164H9.44647L5.98097 9.7865C5.8946 9.65382 5.82254 9.51236 5.76597 9.3645H5.73647C5.76947 9.6715 5.78197 9.9805 5.77347 10.2895V15.164H4.98597V8.4215H6.01047L9.38347 13.703C9.52397 13.9225 9.61497 14.073 9.65697 14.1545H9.67547C9.63647 13.8255 9.62047 13.4945 9.62747 13.163V8.4215H10.4155L10.415 15.164ZM15.7485 15.164H12.165V8.4215H15.5825V9.1355H12.9715V11.3765H15.405V12.0865H12.9715V14.4245H15.753L15.7485 15.164ZM21.041 9.135H19.081V15.164H18.293V9.135H16.355V8.421H21.041V9.135Z" fill="white"/>
</g>
<defs>
<clipPath id="clip0_1361_40881">
<rect width="24" height="24" fill="white"/>
</clipPath>
</defs>
</svg>
