<svg width="24" height="24" viewBox="0 0 24 24" fill="none" xmlns="http://www.w3.org/2000/svg">
<g opacity="0.4">
<g clip-path="url(#clip0_1361_40878)">
<circle cx="12" cy="12" r="12" fill="#D9D9D9"/>
<path d="M19 15.7925C18.4908 15.9201 18.1757 15.7981 17.8931 15.3801L15.8832 12.6413L15.5927 12.262L13.2456 15.3892C12.9774 15.7654 12.6961 15.9291 12.1956 15.796L15.2012 11.8221L12.4029 8.23257C12.8842 8.14035 13.2167 8.18732 13.512 8.61177L15.5967 11.3847L17.6967 8.62685C17.9657 8.25067 18.2549 8.1076 18.7379 8.24636L17.6529 9.6632L16.1829 11.5485C16.0079 11.7639 16.032 11.9113 16.193 12.1194L19 15.7925ZM5.0035 11.7557L5.24938 10.5647C5.91875 8.20757 8.66188 7.2281 10.5536 8.6846C11.6592 9.54125 11.9339 10.753 11.8793 12.1104H5.6475C5.55388 14.5537 7.33931 16.0282 9.61562 15.2759C10.4141 15.0117 10.8844 14.3959 11.1198 13.6255C11.2392 13.2394 11.4369 13.179 11.8053 13.2894C11.6172 14.2529 11.1928 15.0578 10.2959 15.5616C8.95587 16.3157 7.04312 16.0718 6.03688 15.0238C5.4375 14.4158 5.18988 13.6453 5.07875 12.8214C5.06125 12.6852 5.02625 12.5555 5 12.4249C5.00233 12.202 5.0035 11.9791 5.0035 11.7562V11.7557ZM5.65887 11.592H11.2904C11.2536 9.82523 10.1367 8.5704 8.61025 8.55963C6.93462 8.5467 5.7315 9.77179 5.65887 11.592Z" fill="black"/>
</g>
</g>
<defs>
<clipPath id="clip0_1361_40878">
<rect width="24" height="24" rx="12" fill="white"/>
</clipPath>
</defs>
</svg>
