<svg width="24" height="24" viewBox="0 0 24 24" fill="none" xmlns="http://www.w3.org/2000/svg">
<g clip-path="url(#clip0_557_15491)">
<path d="M24 0H0V24H24V0Z" fill="#171717"/>
<path d="M12.0334 12C12.0334 10.5273 13.2273 9.33337 14.7001 9.33337C16.1729 9.33337 17.3668 10.5273 17.3668 12C17.3668 13.4728 16.1729 14.6667 14.7001 14.6667C13.2273 14.6667 12.0334 13.4728 12.0334 12Z" fill="#1ABCFE"/>
<path d="M6.69995 17.3333C6.69995 15.8606 7.89386 14.6666 9.36662 14.6666H12.0333V17.3333C12.0333 18.8061 10.8394 20 9.36662 20C7.89386 20 6.69995 18.8061 6.69995 17.3333Z" fill="#0ACF83"/>
<path d="M12.0334 4V9.33332H14.7001C16.1729 9.33332 17.3668 8.13942 17.3668 6.66667C17.3668 5.19391 16.1729 4 14.7001 4H12.0334Z" fill="#FF7262"/>
<path d="M6.69995 6.66667C6.69995 8.13943 7.89386 9.33332 9.36662 9.33332H12.0333V4H9.36662C7.89386 4 6.69995 5.19391 6.69995 6.66667Z" fill="#F24E1E"/>
<path d="M6.69995 12C6.69995 13.4728 7.89386 14.6667 9.36662 14.6667H12.0333V9.33337H9.36662C7.89386 9.33337 6.69995 10.5273 6.69995 12Z" fill="#A259FF"/>
</g>
<defs>
<clipPath id="clip0_557_15491">
<path d="M0 12C0 5.37258 5.37258 0 12 0C18.6274 0 24 5.37258 24 12C24 18.6274 18.6274 24 12 24C5.37258 24 0 18.6274 0 12Z" fill="white"/>
</clipPath>
</defs>
</svg>
