<svg width="24" height="24" viewBox="0 0 24 24" fill="none" xmlns="http://www.w3.org/2000/svg">
<rect width="24" height="24" rx="12" fill="white"/>
<circle cx="12" cy="12" r="12" fill="white"/>
<path d="M15.2182 8.84886C15.2697 7.49712 14.9305 6.95146 14.676 6.56135C14.4177 6.19737 13.7981 5.62546 13.0367 5.60149C12.3167 5.5789 12.1435 5.97948 11.4793 6.0037C11.3704 4.78595 12.2833 4.11778 12.2833 4.11778C12.2833 4.11778 12.0336 3.76262 11.8271 3.67595C11.5895 3.88853 11.0197 4.49918 10.8979 5.319C10.7696 4.11147 10.1699 3.33921 8.84042 2.80099C8.46281 4.13077 9.70956 5.37313 10.5195 5.86378C10.0902 5.71857 9.71758 5.52667 9.21715 5.62583C8.3425 5.79919 7.6215 6.33148 7.21055 7.49965C6.79973 8.66781 7.35568 10.0307 7.4765 10.4199C7.59744 10.8095 8.49189 12.4641 9.19297 12.7075C9.89392 12.9511 9.89417 12.8414 10.2689 12.6955C10.6436 12.5496 11.2116 12.2817 12.0459 12.5861C12.8796 12.8902 12.9883 12.9631 13.508 12.6225C14.0281 12.2818 14.7047 11.2233 14.8617 10.919C15.0189 10.6149 15.1035 10.4566 15.1521 10.2985C15.2125 9.83548 15.1718 10.0604 15.2182 8.84886Z" fill="#D1D2D3"/>
<path d="M15.2685 10.7195V11.3805C15.2685 11.5353 15.3932 11.6609 15.5469 11.6609H16.5801C16.9124 11.6609 17.2312 11.7938 17.4662 12.0304C17.7013 12.2671 17.8334 12.5879 17.8334 12.9225L17.8333 15.971C17.8333 16.0049 17.8333 16.0387 17.8333 16.0725L17.8332 16.759C17.8332 16.7905 17.8332 16.8217 17.8332 16.8527L17.8332 17.2134C17.8332 17.2425 17.8332 17.2712 17.8332 17.2997L17.8331 17.4669C17.8331 17.8022 17.7007 18.1238 17.4646 18.3605C17.2286 18.5972 16.9086 18.7295 16.5755 18.7284C16.2263 18.7293 15.8591 18.7287 15.5528 18.7244C15.4779 18.7229 15.4056 18.7516 15.3521 18.8045C15.2987 18.8572 15.2685 18.9294 15.2685 19.0046L15.2684 19.3383C15.2684 19.3518 15.2684 19.3654 15.2684 19.379L15.2684 19.5449C15.2684 19.5588 15.2684 19.5728 15.2684 19.5867L15.2683 19.6699C15.2681 19.9046 15.2678 20.1269 15.2672 20.2609C15.2672 20.344 15.2305 20.4227 15.1671 20.4757C14.8479 20.7184 13.7327 21.2564 11.2385 21.2564C8.79573 21.2564 7.63245 20.8547 7.26951 20.6431C7.18942 20.5917 7.14092 20.5027 7.14067 20.4073C7.13957 19.8622 7.13546 17.9212 7.1312 15.9183L7.13062 15.6449C7.12567 13.32 7.1207 10.9933 7.12017 10.7419L7.12012 10.7195H15.2685ZM16.5036 12.784H15.6165C15.5304 12.784 15.4475 12.8163 15.3838 12.874L15.3705 12.8867C15.3096 12.9482 15.2735 13.0298 15.269 13.1161L15.2685 13.1346V17.2129C15.2685 17.2996 15.3005 17.3831 15.3578 17.4473L15.3705 17.4607C15.4313 17.5221 15.5126 17.5583 15.5981 17.5628L15.6165 17.5633H16.5036C16.5897 17.5633 16.6726 17.5312 16.7364 17.4735L16.7497 17.4607C16.8105 17.3994 16.8466 17.3176 16.8511 17.2315L16.8516 17.2129V13.1346C16.8516 13.0477 16.8196 12.9645 16.7624 12.9002L16.7497 12.8867C16.6888 12.8255 16.6075 12.7891 16.522 12.7845L16.5036 12.784Z" fill="#FEFEFE"/>
<path d="M7.92334 10.6383V19.3287C7.92334 19.429 7.97648 19.5216 8.06283 19.5717C8.41512 19.7408 9.43741 20.1444 11.2297 20.1444C13.0338 20.1444 14.0256 19.654 14.3578 19.4518C14.4372 19.4005 14.4849 19.3119 14.4849 19.217C14.4857 18.0646 14.4857 10.6383 14.4857 10.6383H7.92334Z" fill="#FAAF41"/>
<path d="M8.88796 11.7213C9.09363 11.7213 9.26181 11.8832 9.27359 12.0874L9.27422 12.1102V18.8261C9.27422 19.0408 9.10127 19.215 8.88796 19.215C8.68218 19.215 8.51412 19.0531 8.50234 18.8491L8.50171 18.8261V12.1102C8.50171 11.8955 8.67466 11.7213 8.88796 11.7213Z" fill="#FFDA95"/>
<path d="M12.5956 12.4216C12.5956 12.2814 12.5137 12.114 12.3791 12.03C12.16 11.8966 11.9889 11.692 11.8958 11.4482C10.1139 11.5085 8.48767 11.1936 7.66828 10.9712C7.45799 10.9112 7.24493 10.8613 7.02975 10.822C6.53947 10.7239 6.16675 10.2904 6.16675 9.76923C6.16675 9.19555 6.61893 8.72937 7.18377 8.70893C7.29268 8.1022 7.8188 7.64157 8.45295 7.64157C9.16606 7.64157 9.74419 8.22357 9.74419 8.94146C9.74419 9.09248 9.71712 9.23706 9.67012 9.37206L9.67388 9.37269C9.83317 8.87131 10.2994 8.50795 10.8503 8.50795C11.3976 8.50795 11.8615 8.86702 12.0234 9.36373C12.0186 9.31894 12.0162 9.2734 12.0162 9.22722C12.0162 8.48057 12.6174 7.87548 13.359 7.87548C13.9593 7.87548 14.4674 8.27215 14.6393 8.81907L14.7562 8.78829C14.9094 8.70149 15.0855 8.65127 15.2737 8.65127C15.8565 8.65127 16.3288 9.12692 16.3286 9.71334C16.3286 10.2507 15.9324 10.6947 15.4181 10.7656C15.3015 10.7821 15.1874 10.812 15.0775 10.8546C14.7717 10.9706 14.4591 11.0667 14.1434 11.1461C14.1276 11.3028 14.0812 11.4504 14.0104 11.5829C13.8823 11.8248 13.8249 12.0984 13.8447 12.3718C13.8446 12.3883 13.8452 12.4751 13.8452 12.4918C13.8452 12.8391 13.5655 13.0504 13.2201 13.0504C12.8753 13.0504 12.5956 12.7691 12.5956 12.4216Z" fill="#FEFEFE"/>
<path d="M12.3447 10.8874L12.3521 10.9102L12.3497 10.8874H12.3447Z" fill="#010202"/>
<path d="M8.73111 2.57581L8.90281 2.6452C10.0063 3.09195 10.6487 3.70549 10.9273 4.6101C11.1035 4.21697 11.3711 3.86736 11.682 3.58172L11.7948 3.48041L11.8916 3.52091C11.9333 3.53858 11.9749 3.56267 12.017 3.59283C12.0825 3.63963 12.1488 3.70045 12.2159 3.77223C12.2669 3.82661 12.3156 3.8844 12.3606 3.94205L12.3854 3.97423L12.4131 4.0117L12.5147 4.15616L12.3815 4.25368L12.3633 4.26781L12.3383 4.2885L12.3074 4.31588L12.2712 4.34957C12.1832 4.43359 12.0949 4.5339 12.0124 4.64959C11.7817 4.9732 11.6431 5.34741 11.6373 5.77209L11.6372 5.82154L11.6733 5.81561C11.7975 5.79278 11.9143 5.749 12.0852 5.67065L12.1829 5.62561C12.5131 5.47509 12.7109 5.42336 13.0421 5.43371C13.7455 5.45591 14.4223 5.91478 14.8156 6.46928C14.8244 6.48278 14.8333 6.49628 14.8418 6.5099L14.8924 6.59065L14.9407 6.67089C15.2412 7.18476 15.3859 7.68362 15.3912 8.48944C16.0109 8.54886 16.4957 9.07409 16.4955 9.71337C16.4955 10.3301 16.0422 10.849 15.4415 10.9318C15.4393 10.9321 15.4373 10.9326 15.4351 10.933V11.3805C15.4351 11.4426 15.4852 11.4931 15.5469 11.4931H16.5801C16.9567 11.4931 17.3178 11.6436 17.5842 11.9117C17.8505 12.1799 18 12.5435 18 12.9225L17.9999 17.4669C17.9999 17.8469 17.8496 18.2113 17.5822 18.4794C17.3147 18.7476 16.9524 18.8976 16.5759 18.8962C16.5228 18.8963 16.4706 18.8965 16.4194 18.8966L16.1156 18.8965L15.7464 18.8944L15.5492 18.8922C15.5192 18.8915 15.4902 18.9032 15.4687 18.9243C15.4472 18.9455 15.4351 18.9744 15.4351 19.0046L15.4347 19.9237L15.4338 20.2609C15.4338 20.3939 15.375 20.5198 15.2674 20.6095C15.1156 20.725 14.9141 20.8342 14.6642 20.9332L14.5791 20.9656C14.4488 21.0139 14.3064 21.0594 14.1522 21.1016L14.0476 21.1292L13.9396 21.1558C13.8298 21.182 13.7147 21.2066 13.5945 21.2294L13.4726 21.2517L13.3473 21.2728C13.2412 21.2898 13.1318 21.3057 13.0189 21.3201L12.8815 21.3368L12.7409 21.3522L12.5969 21.366L12.4495 21.3786L12.2988 21.3897L12.1446 21.3993C12.1187 21.4009 12.0926 21.4022 12.0664 21.4036L11.9074 21.4109L11.7451 21.4167C11.6903 21.4183 11.6352 21.4198 11.5794 21.4209L11.4105 21.4233C11.3537 21.4239 11.2963 21.4242 11.2384 21.4242H11.1503C11.0919 21.4238 11.0339 21.4233 10.9765 21.4227L10.8059 21.4199L10.6386 21.4159C10.5833 21.4144 10.5287 21.4125 10.4745 21.4106L10.3139 21.4039C10.2873 21.4026 10.261 21.4015 10.2347 21.4001L10.0789 21.3915L9.92648 21.3819L9.77746 21.371C9.75277 21.3692 9.72846 21.3672 9.70415 21.3651L9.56015 21.3527C9.53646 21.3504 9.5129 21.3482 9.48946 21.3458L9.3506 21.3317L9.21525 21.3164C9.19294 21.3138 9.17076 21.3111 9.14883 21.3084L9.01861 21.2915L8.89191 21.2738L8.76884 21.255C8.70818 21.2453 8.64877 21.2354 8.59075 21.2251L8.47657 21.204C8.45778 21.2005 8.43923 21.1968 8.4208 21.1932L8.3119 21.1709L8.20675 21.1478L8.10523 21.1237L8.00735 21.0991C7.91135 21.074 7.82087 21.0477 7.73615 21.0206L7.65318 20.9931C7.61257 20.9792 7.5736 20.9651 7.53587 20.9506L7.46243 20.9217C7.35515 20.8776 7.26091 20.8318 7.17982 20.7847C7.05186 20.7025 6.97429 20.5603 6.97391 20.4075L6.95386 10.9759C6.4013 10.8444 6 10.3486 6 9.76926C6 9.20442 6.37974 8.72815 6.89846 8.5852C6.89207 8.41336 6.89596 8.2438 6.91363 8.0765C6.93719 7.85521 6.98319 7.64388 7.05362 7.44353C7.45755 6.29504 8.17642 5.66093 9.18517 5.46109C9.36526 5.42551 9.53007 5.42147 9.70327 5.44494C9.57243 5.32167 9.44685 5.18983 9.33255 5.05307C8.72648 4.32724 8.46003 3.5305 8.68023 2.75483L8.73111 2.57581ZM15.1016 11.0245L15.0215 11.0541C15.0046 11.0603 14.9865 11.0655 14.9694 11.0715C14.813 11.1269 14.6524 11.1773 14.4891 11.2243C14.3881 11.2535 14.3881 11.2535 14.2918 11.281L14.2843 11.3193C14.2615 11.4222 14.2269 11.5213 14.1813 11.6153L14.1371 11.7022C14.1289 11.719 14.1234 11.7368 14.1161 11.754C14.0338 11.9445 13.9961 12.1532 14.0115 12.3717L14.0116 12.3963L14.012 12.4917C14.012 12.9253 13.6678 13.2184 13.2202 13.2184C12.993 13.2184 12.7886 13.1214 12.6443 12.9668C12.539 12.854 12.4663 12.7108 12.4403 12.5512C12.4334 12.509 12.4289 12.4658 12.4289 12.4216C12.4289 12.3317 12.3703 12.2222 12.2928 12.1736C12.079 12.0434 11.906 11.8545 11.7938 11.6303L11.7884 11.6192L11.6788 11.6216C10.414 11.6433 9.12664 11.4875 8.06989 11.2441C7.94707 11.2159 7.82651 11.1866 7.71033 11.1561L7.62285 11.1327C7.62047 11.132 7.61784 11.1315 7.61533 11.1307C7.50692 11.1001 7.39751 11.0723 7.28748 11.0469L7.3074 20.4069C7.3074 20.4451 7.32696 20.481 7.35302 20.4978C7.4014 20.526 7.45567 20.5538 7.51595 20.581L7.57811 20.6079C7.64228 20.6346 7.71221 20.6608 7.78803 20.6864L7.86561 20.7115C7.90534 20.7238 7.94657 20.7361 7.98918 20.7482L8.07628 20.7719L8.16714 20.795L8.26164 20.8176L8.36002 20.8393C8.37656 20.8429 8.39348 20.8465 8.41053 20.85L8.5143 20.8707C8.54939 20.8775 8.58523 20.8843 8.6217 20.8909L8.73274 20.9101C8.77034 20.9164 8.80856 20.9226 8.84742 20.9285L8.9656 20.946L9.08741 20.9628C9.10797 20.9655 9.12865 20.9682 9.14958 20.9708L9.27666 20.9863L9.40725 21.0007L9.54122 21.0139C9.56391 21.0162 9.58672 21.0182 9.60952 21.0203L9.74876 21.0323L9.89138 21.0432L10.0374 21.0529L10.1868 21.0615L10.3396 21.069C10.3652 21.0702 10.3912 21.0712 10.4171 21.0723L10.5749 21.0781C10.6014 21.079 10.6281 21.0798 10.655 21.0805L10.8177 21.0844C10.845 21.0849 10.8724 21.0854 10.9001 21.0859L11.0677 21.0878C11.124 21.0882 11.1809 21.0885 11.2384 21.0885L11.322 21.0883C11.4608 21.0876 11.5962 21.0853 11.7282 21.0813L11.8848 21.0758C11.9106 21.075 11.9363 21.0738 11.9619 21.0726L12.1135 21.065L12.2619 21.0559C12.2864 21.0543 12.3108 21.0526 12.3349 21.0509L12.4784 21.0396C12.5018 21.0377 12.5254 21.0357 12.5487 21.0337L12.687 21.0206C12.7097 21.0182 12.7324 21.0159 12.755 21.0135L12.8881 20.9986C12.91 20.996 12.9318 20.9933 12.9535 20.9907L13.0816 20.9739L13.2063 20.9559L13.3276 20.9369C13.3674 20.9304 13.4068 20.9236 13.4454 20.9169L13.5598 20.8957C13.5973 20.8884 13.6344 20.881 13.6707 20.8735L13.7783 20.8503L13.8822 20.8263C13.9503 20.81 14.016 20.793 14.0795 20.7757L14.1729 20.7491C14.1882 20.7445 14.2032 20.7399 14.2183 20.7353L14.3064 20.7077L14.3909 20.6792C14.6806 20.5784 14.9046 20.4651 15.0605 20.3464C15.0857 20.3253 15.1003 20.294 15.1003 20.2602L15.1016 19.0046C15.1016 18.8841 15.1498 18.7687 15.2353 18.6845C15.3208 18.6001 15.4363 18.5541 15.555 18.5566L15.7503 18.5587L16.0398 18.5605L16.4199 18.5609L16.576 18.5605C16.8648 18.5615 17.1421 18.4468 17.3468 18.2417C17.5513 18.0364 17.6664 17.7577 17.6664 17.4669L17.6665 12.9225C17.6665 12.6325 17.5521 12.3543 17.3483 12.1491C17.1445 11.944 16.8682 11.8288 16.5801 11.8288H15.5469C15.301 11.8288 15.1016 11.6281 15.1016 11.3805V11.0245ZM16.5035 12.6162C16.64 12.6162 16.7709 12.6709 16.8676 12.7681C16.9642 12.8653 17.0183 12.9971 17.0183 13.1346V17.2129C17.0183 17.3503 16.9642 17.4822 16.8674 17.5795C16.7709 17.6766 16.64 17.7311 16.5035 17.7311H15.6165C15.4801 17.7311 15.3491 17.6766 15.2523 17.5793C15.1558 17.4822 15.1016 17.3503 15.1016 17.2129V13.1346C15.1016 12.9971 15.1558 12.8653 15.2525 12.768C15.3491 12.6709 15.4801 12.6162 15.6165 12.6162H16.5035ZM16.5035 12.9521H15.6165C15.5684 12.9521 15.5223 12.9713 15.4883 13.0053C15.4544 13.0396 15.4351 13.0862 15.4351 13.1346V17.2129C15.4351 17.2614 15.4544 17.3078 15.4882 17.3419C15.5223 17.3762 15.5684 17.3955 15.6165 17.3955H16.5035C16.5516 17.3955 16.5977 17.3762 16.6316 17.342C16.6657 17.3078 16.6848 17.2614 16.6848 17.2129V13.1346C16.6848 13.0862 16.6657 13.0396 16.6317 13.0055C16.5977 12.9713 16.5516 12.9521 16.5035 12.9521ZM8.45301 7.80941C7.90759 7.80941 7.44401 8.20393 7.34789 8.73887L7.32407 8.87185L7.25452 8.8745L7.18985 8.87677C7.09698 8.88005 7.008 8.89809 6.92453 8.92787C6.57963 9.051 6.33349 9.38168 6.33349 9.76926C6.33349 10.1644 6.59079 10.5072 6.95311 10.6277C6.98782 10.6392 7.02316 10.6494 7.05976 10.6567C7.17995 10.6788 7.29926 10.7047 7.41782 10.7329C7.51657 10.7564 7.6147 10.7815 7.71183 10.8091C7.75357 10.8205 7.79818 10.8309 7.84117 10.8421C7.90057 10.8572 7.95885 10.8727 8.01976 10.8875C9.1314 11.1558 10.5348 11.3264 11.8902 11.2805L12.0088 11.2764L12.0514 11.388C12.1308 11.596 12.2772 11.7716 12.4671 11.8873C12.6458 11.999 12.7624 12.2174 12.7624 12.4216L12.763 12.4461C12.7672 12.528 12.7942 12.6034 12.8356 12.6687C12.917 12.7967 13.058 12.8827 13.2202 12.8827C13.4948 12.8827 13.6785 12.7262 13.6785 12.4917L13.678 12.3954L13.6785 12.384C13.6755 12.3441 13.6742 12.3042 13.6742 12.2644C13.6746 11.9997 13.7392 11.7383 13.8636 11.5032L13.8833 11.4643C13.9337 11.3596 13.9657 11.2465 13.9774 11.1292L13.9892 11.0117L14.103 10.9832C14.2192 10.954 14.3317 10.9207 14.4442 10.8875C14.543 10.8583 14.6406 10.8282 14.7371 10.7966C14.8323 10.7655 14.9259 10.7328 15.0176 10.698L15.07 10.6785C15.1095 10.6648 15.1497 10.6539 15.1899 10.6431C15.2575 10.6248 15.3258 10.6091 15.3955 10.5992L15.425 10.5946C15.4286 10.594 15.4318 10.5931 15.4351 10.5925C15.852 10.5155 16.162 10.1479 16.162 9.71325C16.1621 9.25792 15.8235 8.8827 15.3861 8.82706C15.3492 8.82239 15.3119 8.81924 15.2738 8.81924C15.198 8.81924 15.1235 8.82908 15.0516 8.84788C14.9773 8.86731 14.9057 8.89632 14.8383 8.93455L14.8193 8.94528L14.5281 9.02161L14.4803 8.8697C14.3269 8.38169 13.8755 8.04332 13.359 8.04332C12.7096 8.04332 12.1831 8.57334 12.1831 9.22726C12.1831 9.26738 12.1852 9.30712 12.1892 9.34623L12.3148 10.5516L12.3498 10.8875H12.3448L12.2352 10.5516L11.8649 9.416C11.7222 8.97795 11.3151 8.67591 10.8504 8.67591C10.3823 8.67591 9.97322 8.98186 9.83286 9.42382L9.78899 9.56172L9.44698 9.50533L9.51277 9.31646C9.55538 9.1942 9.57744 9.06841 9.57744 8.94137C9.57744 8.31622 9.07401 7.80941 8.45301 7.80941ZM11.8482 3.88503L11.8074 3.92527C11.4348 4.29973 11.0857 4.92678 11.0646 5.31297C11.0433 5.69916 11.1058 6.17859 11.1058 6.17859L10.8706 6.1333C10.769 6.11374 10.6777 6.09065 10.572 6.0576L10.4991 6.03413C10.4864 6.02997 10.4737 6.02555 10.4605 6.02114L10.4468 6.01634L10.378 5.99237L10.1033 5.89346L10.0279 5.86772C9.72119 5.76679 9.50375 5.74029 9.24959 5.79063C8.35739 5.96739 7.73301 6.5181 7.36806 7.55556C7.30653 7.73043 7.26617 7.91614 7.24524 8.11221C7.24487 8.11549 7.24487 8.11889 7.24449 8.1223C7.50116 7.7385 7.93128 7.48668 8.41529 7.47419L8.45301 7.47368C9.17151 7.47368 9.76856 7.99689 9.88888 8.6855L9.89439 8.71944L9.93036 8.68664C10.1699 8.47708 10.4789 8.34952 10.8128 8.34069L10.8504 8.34019C11.2569 8.34019 11.6299 8.51631 11.8888 8.8041L11.904 8.82138L11.9135 8.78833C12.0971 8.17466 12.6558 7.7245 13.3212 7.70797L13.359 7.70759C13.957 7.70759 14.487 8.06073 14.7296 8.58987L14.7379 8.60867L14.7539 8.60072C14.8503 8.55492 14.9527 8.52338 15.0578 8.50433C15.0547 7.73598 14.9204 7.2862 14.6342 6.80854L14.5885 6.7341L14.5405 6.6589C14.206 6.18755 13.6163 5.78773 13.0317 5.76931C12.7467 5.76035 12.5908 5.80514 12.2726 5.95351L12.2196 5.97799C11.9281 6.11122 11.7584 6.16143 11.4855 6.1714L11.3276 6.1772L11.3135 6.01874C11.2596 5.41731 11.4284 4.89284 11.7416 4.45378C11.8476 4.30503 11.954 4.18644 12.0472 4.09862L12.0528 4.0932L12.0163 4.05005L11.9733 4.00249C11.9377 3.96451 11.9032 3.93108 11.8708 3.90345L11.8482 3.88503ZM8.95946 3.03353L8.9552 3.06091C8.8696 3.64859 9.10521 4.25911 9.58797 4.83707C9.88261 5.18996 10.2616 5.5089 10.5857 5.70913C10.6361 5.74029 10.6853 5.76906 10.7326 5.79416L10.7598 5.80842L10.7596 5.78193C10.7575 5.60958 10.7475 5.44633 10.7293 5.29127C10.6021 4.20864 10.072 3.53265 8.97688 3.04136L8.95946 3.03353Z" fill="#010202"/>
</svg>
