<svg width="24" height="24" viewBox="0 0 24 24" fill="none" xmlns="http://www.w3.org/2000/svg">
<g clip-path="url(#clip0_557_15497)">
<path d="M24 0H0V24H24V0Z" fill="#330000"/>
<path d="M16.1485 8.18855C16.3932 8.42159 16.7194 8.5533 17.0558 8.54317C17.4024 8.56344 17.7491 8.43172 17.9835 8.18855C18.2282 7.93524 18.3506 7.60088 18.3404 7.25639C18.3506 6.92203 18.2282 6.5978 18.0039 6.35463C17.7797 6.12159 17.4738 6 17.0762 6C16.7398 6 16.4136 6.12159 16.1689 6.35463C15.9242 6.58767 15.7917 6.91189 15.8019 7.25639C15.7917 7.60088 15.914 7.93524 16.1485 8.18855Z" fill="#FF9A00"/>
<path d="M15.914 9.53612V17.3379C15.914 17.4392 15.965 17.5 16.0669 17.5H18.0651C18.1569 17.5 18.1976 17.4493 18.1976 17.3379V9.53612C18.1976 9.44493 18.1569 9.39427 18.0651 9.39427H16.0466C15.9548 9.39427 15.914 9.4348 15.914 9.53612Z" fill="#FF9A00"/>
<path fill-rule="evenodd" clip-rule="evenodd" d="M7.75841 14.9264H11.5508L12.3868 17.3378C12.4072 17.4087 12.4785 17.4594 12.5499 17.4493H14.6806C14.7825 17.4493 14.8131 17.3986 14.7825 17.2872L11.0615 6.85103C11.0513 6.80037 11.0105 6.76997 10.929 6.76997H8.28853C8.23756 6.78011 8.19678 6.83077 8.20697 6.88143C8.20697 7.10433 8.18658 7.32724 8.1458 7.54002C8.11691 7.62616 8.09314 7.70722 8.07086 7.78319C8.06169 7.81444 8.05277 7.84484 8.04386 7.87438L4.76117 17.2669C4.73058 17.3885 4.76117 17.4493 4.87331 17.4493H6.78991C6.88166 17.4594 6.96322 17.3986 6.98361 17.3074L7.75841 14.9264ZM10.9391 12.8695H8.3497C8.50262 12.444 8.65554 11.9678 8.79826 11.451C8.89925 11.1374 8.99633 10.8237 9.09192 10.5149C9.15073 10.3249 9.20897 10.1367 9.26722 9.95147C9.40995 9.51579 9.52209 9.08011 9.61384 8.64442H9.63423C9.67401 8.77997 9.71379 8.92182 9.75533 9.06997C9.78832 9.18759 9.82242 9.30918 9.85851 9.43473C9.94007 9.72856 10.0318 10.0224 10.1338 10.3365C10.1847 10.4935 10.2332 10.6481 10.2816 10.8026C10.33 10.9571 10.3784 11.1116 10.4294 11.2687C10.5212 11.5726 10.6129 11.8664 10.7047 12.14C10.7964 12.4035 10.878 12.6568 10.9391 12.8695Z" fill="#FF9A00"/>
</g>
<defs>
<clipPath id="clip0_557_15497">
<path d="M0 12C0 5.37258 5.37258 0 12 0C18.6274 0 24 5.37258 24 12C24 18.6274 18.6274 24 12 24C5.37258 24 0 18.6274 0 12Z" fill="white"/>
</clipPath>
</defs>
</svg>
