<svg width="24" height="24" viewBox="0 0 24 24" fill="none" xmlns="http://www.w3.org/2000/svg">
<g clip-path="url(#clip0_557_15498)">
<path d="M24 0H0V24H24V0Z" fill="#49021F"/>
<path fill-rule="evenodd" clip-rule="evenodd" d="M12.7242 17.3385C13.4073 17.6546 14.1617 17.8075 14.9162 17.7973C15.4463 17.7973 15.9764 17.7463 16.4862 17.6546C17.0571 17.5526 17.6179 17.3895 18.148 17.1652C18.2194 17.1346 18.25 17.0735 18.25 17.0021C18.2484 16.9754 18.2468 16.9479 18.2452 16.9198C18.2364 16.7656 18.2264 16.5919 18.2092 16.4108C18.2082 16.3902 18.2073 16.3698 18.2064 16.3496C18.1972 16.1493 18.1888 15.9658 18.1888 15.7991V6.07295C18.1786 6.03217 18.1378 5.99139 18.0868 6.00158H16.0172C15.9459 6.00158 15.9153 6.04237 15.9153 6.11373V9.33538C15.8587 9.33067 15.8064 9.32813 15.7575 9.32576C15.7008 9.32301 15.6485 9.32047 15.5992 9.31499C15.5075 9.3048 15.4361 9.3048 15.3851 9.3048C14.3758 9.3048 13.5194 9.49851 12.8058 9.89611C12.1329 10.2631 11.5722 10.8137 11.1847 11.4764C10.8075 12.1288 10.6138 12.8731 10.624 13.6275C10.624 14.5553 10.8075 15.3301 11.1847 15.952C11.5518 16.5535 12.0819 17.0429 12.7242 17.3385ZM15.9153 11.2725V15.7583C15.8031 15.7991 15.6808 15.8195 15.5483 15.8093C15.4157 15.8195 15.273 15.8297 15.1201 15.8297C14.8346 15.8297 14.5491 15.7889 14.2739 15.6971C14.0088 15.6156 13.7743 15.4728 13.5806 15.2893C13.3767 15.0854 13.2238 14.8407 13.1218 14.5655C12.9995 14.229 12.9383 13.8722 12.9485 13.5154C12.9485 12.9852 13.0606 12.5468 13.2849 12.2206C13.5092 11.8944 13.8049 11.6395 14.1515 11.4662C14.5084 11.2826 14.906 11.2011 15.3036 11.2011C15.4157 11.2011 15.5279 11.2113 15.64 11.2215C15.7318 11.2317 15.8235 11.2521 15.9153 11.2725Z" fill="#FF3366"/>
<path d="M9.02351 17.5118V7.01088C9.02351 7.00069 9.02351 6.99049 9.01331 6.9803C9.00312 6.90893 8.94195 6.86815 8.88078 6.87835H6.89273C6.80098 6.87835 6.75 6.91913 6.75 7.01088V17.5118C6.75 17.624 6.79078 17.675 6.88254 17.675H8.88078C8.97253 17.675 9.02351 17.624 9.02351 17.5118Z" fill="#FF3366"/>
</g>
<defs>
<clipPath id="clip0_557_15498">
<path d="M0 12C0 5.37258 5.37258 0 12 0C18.6274 0 24 5.37258 24 12C24 18.6274 18.6274 24 12 24C5.37258 24 0 18.6274 0 12Z" fill="white"/>
</clipPath>
</defs>
</svg>
