<svg width="24" height="24" viewBox="0 0 24 24" fill="none" xmlns="http://www.w3.org/2000/svg">
<g clip-path="url(#clip0_557_15484)">
<path d="M24 0H0V24H24V0Z" fill="#00DDB3"/>
<path d="M18.1531 6C14.4113 6 13.0247 8.67163 11.9098 10.8179L11.1815 12.191C10.0008 14.4672 9.11879 15.8507 6.84566 15.8507C6.70453 15.8507 6.56479 15.8785 6.43439 15.9326C6.30402 15.9866 6.18555 16.0657 6.08575 16.1655C5.98598 16.2653 5.90677 16.3837 5.85276 16.5141C5.79877 16.6445 5.771 16.7843 5.771 16.9254C5.7714 17.2103 5.88474 17.4834 6.08619 17.6848C6.28764 17.8863 6.56077 17.9996 6.84566 18C10.5889 18 11.9755 15.3284 13.0904 13.1821L13.8173 11.809C14.9994 9.53284 15.8814 8.14925 18.1531 8.14925C18.2944 8.14944 18.4342 8.12178 18.5648 8.06788C18.6953 8.01397 18.814 7.93484 18.9139 7.83501C19.0139 7.73521 19.0932 7.61669 19.1473 7.48621C19.2014 7.35573 19.2292 7.21588 19.2292 7.07461C19.2288 6.78947 19.1153 6.51615 18.9135 6.31465C18.7117 6.11317 18.4383 6 18.1531 6Z" fill="white"/>
</g>
<defs>
<clipPath id="clip0_557_15484">
<path d="M0 12C0 5.37258 5.37258 0 12 0C18.6274 0 24 5.37258 24 12C24 18.6274 18.6274 24 12 24C5.37258 24 0 18.6274 0 12Z" fill="white"/>
</clipPath>
</defs>
</svg>
