<svg width="24" height="24" viewBox="0 0 24 24" fill="none" xmlns="http://www.w3.org/2000/svg">
<g clip-path="url(#clip0_557_15486)">
<path d="M24 0H0V24H24V0Z" fill="#0568FD"/>
<g clip-path="url(#clip1_557_15486)">
<path fill-rule="evenodd" clip-rule="evenodd" d="M3.84449 15.9103C2.71849 14.7942 2.71851 12.9846 3.84453 11.8685L6.90285 8.83709C7.85475 7.89358 9.3066 7.74767 10.4131 8.39933C10.7554 8.6009 10.7524 9.06329 10.4709 9.34232C10.1894 9.62135 9.72986 9.59733 9.34774 9.48656C8.85844 9.34471 8.3082 9.46504 7.92229 9.84755L4.86396 12.8789C4.30095 13.437 4.30094 14.3418 4.86394 14.8998C5.42696 15.4579 6.3398 15.4579 6.90281 14.8998L13.0194 8.83713C14.1454 7.72102 15.9711 7.72101 17.0971 8.83712L20.1555 11.8685C21.2815 12.9846 21.2815 14.7942 20.1555 15.9103C19.0294 17.0264 17.2038 17.0264 16.0778 15.9103L15.0583 14.8998L13.784 16.1629C12.8321 17.1064 11.3803 17.2523 10.2738 16.6007C9.9315 16.3991 9.9345 15.9367 10.216 15.6577C10.4975 15.3786 10.957 15.4026 11.3391 15.5134C11.8284 15.6553 12.3787 15.5349 12.7646 15.1524L14.0753 13.8533C14.6182 13.3152 15.4985 13.3152 16.0413 13.8533L17.0972 14.8998C17.6602 15.4579 18.573 15.4579 19.1361 14.8998C19.699 14.3418 19.6991 13.437 19.136 12.8789L16.0777 9.84758C15.5147 9.28953 14.6019 9.28953 14.0388 9.84759L7.92225 15.9103C6.7962 17.0264 4.97052 17.0264 3.84449 15.9103Z" fill="white"/>
</g>
</g>
<defs>
<clipPath id="clip0_557_15486">
<path d="M0 12C0 5.37258 5.37258 0 12 0C18.6274 0 24 5.37258 24 12C24 18.6274 18.6274 24 12 24C5.37258 24 0 18.6274 0 12Z" fill="white"/>
</clipPath>
<clipPath id="clip1_557_15486">
<rect width="18" height="9" fill="white" transform="translate(3 8)"/>
</clipPath>
</defs>
</svg>
