<svg width="24" height="24" viewBox="0 0 24 24" fill="none" xmlns="http://www.w3.org/2000/svg">
<g id="software-icon/miro">
<g clip-path="url(#clip0_557_15488)">
<path id="Base" d="M24 0H0V24H24V0Z" fill="#FFD02F"/>
<path id="Path" d="M15.1862 5H13.1702L14.96 7.80398L11.1763 5H9.1603L10.9501 8.67401L7.16592 5H5.1499L6.91017 9.74339L5.1499 19H7.16592L10.9501 9.07472L9.1603 19H11.1763L14.96 8.20469L13.1702 19H15.1862L18.9999 7.14176L15.1862 5Z" fill="#050038"/>
</g>
</g>
<defs>
<clipPath id="clip0_557_15488">
<path d="M0 12C0 5.37258 5.37258 0 12 0C18.6274 0 24 5.37258 24 12C24 18.6274 18.6274 24 12 24C5.37258 24 0 18.6274 0 12Z" fill="white"/>
</clipPath>
</defs>
</svg>
