<svg width="24" height="24" viewBox="0 0 24 24" fill="none" xmlns="http://www.w3.org/2000/svg">
<g clip-path="url(#clip0_1361_40880)">
<circle cx="12" cy="12" r="12" fill="#023430"/>
<path d="M16.0475 10.0867C15.0596 5.72903 13.0009 4.56897 12.4757 3.74893C12.2591 3.38768 12.0672 3.01218 11.9015 2.625C11.8737 3.01211 11.8227 3.256 11.4937 3.54956C10.833 4.13863 8.02704 6.42519 7.79089 11.3764C7.57088 15.9928 11.1847 18.8393 11.662 19.1336C12.0292 19.3143 12.4763 19.1375 12.6944 18.9716C14.4364 17.7761 16.8165 14.5888 16.0493 10.0867" fill="#10AA50"/>
<path d="M12.0512 16.6754C11.9602 17.818 11.8951 18.482 11.6641 19.1349C11.6641 19.1349 11.8157 20.2227 11.9222 21.375H12.2989C12.3888 20.5636 12.526 19.7581 12.7099 18.9626C12.2222 18.7226 12.0699 17.6781 12.0512 16.6754Z" fill="#B8C4C2"/>
<path d="M12.7091 18.9633C12.2162 18.7356 12.0736 17.669 12.0516 16.6754C12.1735 15.0364 12.2091 13.3921 12.1581 11.7493C12.1323 10.8874 12.1703 3.76571 11.9458 2.72307C12.0995 3.07621 12.2764 3.41871 12.4756 3.74829C13.0008 4.56898 15.0602 5.72904 16.0474 10.0867C16.8164 14.5811 14.4492 17.76 12.7091 18.9633Z" fill="#12924F"/>
</g>
<defs>
<clipPath id="clip0_1361_40880">
<rect width="24" height="24" fill="white"/>
</clipPath>
</defs>
</svg>
