<svg width="24" height="24" viewBox="0 0 24 24" fill="none" xmlns="http://www.w3.org/2000/svg">
<g clip-path="url(#clip0_1367_41139)">
<circle cx="12" cy="12" r="12" fill="white"/>
<path d="M2.57812 13.3594V15.9844H1.92188V13.3594C1.92188 13.1406 2.01562 13 2.20312 12.9375C2.39062 12.875 2.57812 12.8594 2.76562 12.8906C2.95312 12.9219 3.10938 13.0469 3.23438 13.2656L4.21875 15.5156L5.20312 13.2656C5.32812 13.0469 5.48438 12.9219 5.67188 12.8906C5.85938 12.8594 6.04688 12.875 6.23438 12.9375C6.42188 13 6.51562 13.1406 6.51562 13.3594V15.9844H5.85938V13.3594L4.82812 15.6563C4.73438 15.9063 4.53125 16.0313 4.21875 16.0313C3.90625 16.0313 3.70312 15.9063 3.60938 15.6563M7.07812 13.875V15.375C7.07812 15.6563 7.45312 15.9844 8.25 15.9844H9.5625V16.2188C9.5625 16.4063 9.39062 16.5 9.04688 16.5H7.07812V16.9219H9C9.8125 16.9219 10.2188 16.6875 10.2188 16.2188V13.875H9.5625V15.5625H8.10938C7.85938 15.5625 7.73438 15.4844 7.73438 15.3281V13.875M15.9844 7.78125C16.3125 7.6875 16.5469 8.0625 16.2656 8.25L15.9844 7.78125ZM17.8594 12.4688C17.3906 12.0313 16.9688 11.3594 16.5938 10.4531C16.375 10.6094 16.25 10.9531 16.2188 11.4844C16.1719 11.8125 15.4219 10.8281 15.9375 9.60938C16 9.42188 16 9.29688 15.9375 9.23438C15.2812 8.4375 15.6094 8.15625 14.9531 7.35938C14.2969 6.5625 15.0938 6.60938 15.8438 7.26563C17.1562 7.17188 18.4219 8.57813 18.8438 9.51563C19.2656 10.4531 19.5469 11.25 19.8281 11.2969C20.4531 11.4844 20.9688 11.7813 21.375 12.1875C20.875 12.1875 20.4844 12.2656 20.2031 12.4219C20.4375 13.2188 21.3281 13.2188 21.9844 13.875C21.5156 12.9844 20.7656 12.8906 20.625 12.5625C21.2344 12.375 21.2812 12.4688 21.75 12.3281C21.375 11.7969 20.7656 11.3594 19.9219 11.0156C19.9219 11.0156 19.6406 10.5469 19.125 9.375C18.6094 8.20313 17.2031 6.98438 15.9844 6.98438C14.7188 6 14.0625 6.75 14.7656 7.5C15.4688 8.25 14.9531 8.34375 15.75 9.375C15 11.5781 16.5469 12.5156 16.5469 11.2969L16.5938 11.0156C17.0156 11.9531 17.25 11.8594 17.7188 12.375" fill="#005C87"/>
<path d="M10.7344 15.5625H12.5156C12.8594 15.5625 13.0312 15.4688 13.0312 15.2812V14.9062C13.0312 14.75 12.8594 14.6719 12.5156 14.6719H11.8125C11.2969 14.6719 10.7344 14.4375 10.7344 14.0156V13.6406C10.7344 13.2188 11.0625 12.9375 11.7188 12.9375H13.7344V13.3594H11.8594C11.5781 13.3594 11.4375 13.4531 11.4375 13.6406V13.9219C11.4375 14.1406 11.5781 14.25 11.8594 14.25H12.75C13.2656 14.25 13.6875 14.5312 13.6875 14.8125V15.3281C13.6875 15.75 13.1719 15.9844 12.7031 15.9844H10.7344M15.9375 15.5625H15.375C15.0312 15.5625 14.8594 15.4375 14.8594 15.1875V13.7344C14.8594 13.4844 15.0469 13.3594 15.4219 13.3594H16.2656C16.6406 13.3594 16.8281 13.4844 16.8281 13.7344V15.2344C16.8281 15.3594 16.7656 15.4531 16.6406 15.5156L16.125 15.0469H15.375M17.0156 15.8438C17.2969 15.7812 17.4375 15.5781 17.4375 15.2344V13.6875C17.4375 13.1875 17.0469 12.9375 16.2656 12.9375H15.2812C14.5312 12.9375 14.1562 13.1719 14.1562 13.6406V15.2344C14.1562 15.7344 14.5156 15.9844 15.2344 15.9844H16.4062L16.9219 16.4531H17.7188M17.8594 12.9375H18.5156V15.2344C18.5156 15.4531 18.7031 15.5625 19.0781 15.5625H20.8125V15.9844H19.0312C18.25 15.9844 17.8594 15.7188 17.8594 15.1875" fill="#E4830F"/>
</g>
<defs>
<clipPath id="clip0_1367_41139">
<rect width="24" height="24" fill="white"/>
</clipPath>
</defs>
</svg>
