<svg width="24" height="24" viewBox="0 0 24 24" fill="none" xmlns="http://www.w3.org/2000/svg">
<g clip-path="url(#clip0_1361_40863)">
<path d="M24 12C24 18.6269 18.6269 24 12 24C5.88528 24 0.838773 19.4273 0.0949755 13.5143C0.0320142 13.0117 0 12.5058 0 12C0 11.0609 0.107781 10.1464 0.311605 9.26919C1.54842 3.95803 6.31214 0 12 0C17.674 0 22.4281 3.93775 23.6777 9.2297C23.8442 9.93188 23.9456 10.6479 23.9829 11.3693C23.9947 11.5795 24 11.7898 24 12Z" fill="#F2F2F2"/>
<path d="M11.4003 12.9636V9.84331L8.69834 8.28421L5.99634 9.84331V12.9636L8.69834 14.5238L11.4003 12.9636Z" fill="#3B8739"/>
<path d="M22.0406 12.4898L23.8014 13.5068L22.0406 14.5238L19.3386 12.9636V9.84437L22.0406 8.28421L23.6776 9.2297C23.8441 9.93188 23.9455 10.6479 23.9828 11.3693L22.9818 11.9477V10.8614L22.0406 10.3182L21.0994 10.8614V11.9477L22.0406 12.4898Z" fill="#333333"/>
<path d="M22.5658 11.7065V11.1004L22.0419 10.7973L21.5168 11.1004V11.7065L22.0419 12.0096L22.5658 11.7065Z" fill="#66A060"/>
<path d="M4.71996 9.84437V13.9582L2.91756 12.9305V10.8208L2.01796 10.3011L1.11836 10.8208V12.9295L0.0949755 13.5132C0.0320142 13.0116 0 12.5058 0 12C0 11.0609 0.107781 10.1464 0.311605 9.26918L2.01796 8.28421L4.71996 9.84437Z" fill="#333333"/>
<path d="M8.69727 8.28315L11.3993 12.9626L8.69727 14.5227L5.99634 9.84331L8.69727 8.28315Z" fill="#6DA75D"/>
<path d="M5.99634 12.9636L6.92368 11.4504L5.99634 9.84331V12.9636Z" fill="#55A344"/>
<path d="M10.4985 11.4035L11.3992 9.84331L8.69824 8.28421L10.4985 11.4035Z" fill="#639D57"/>
<path d="M16.245 4.66768V8.80711L15.339 8.28422L12.637 9.84438V12.9647L15.339 14.5249L18.041 12.9647V5.62917L16.245 4.66768ZM16.2396 11.9232L15.339 12.4429L14.4383 11.9232V10.8838L15.339 10.3641L16.2396 10.8838V11.9232Z" fill="#333333"/>
<path d="M13.226 16.8149C13.226 16.8149 13.1726 16.3593 12.6849 16.3593C12.1972 16.3593 11.8632 16.4233 11.8632 16.6933C11.8632 16.9633 12.8119 16.9633 13.1726 17.07C13.5333 17.1756 13.8513 17.452 13.6923 17.9397C13.5333 18.4274 13.0456 18.4807 12.2922 18.4807C11.5388 18.4807 11.3691 17.8554 11.3691 17.611H11.7939C11.7939 17.611 11.7405 17.9931 12.2389 18.056C12.7372 18.119 13.2142 18.1553 13.2783 17.77C13.3636 17.261 11.6658 17.515 11.5175 17.0166C11.3916 16.5951 11.4641 16.0413 12.3125 15.9559C13.1609 15.8705 13.6272 16.2462 13.6272 16.8043L13.226 16.8149Z" fill="#66A060"/>
<path d="M9.1272 18.803L10.0652 19.3441C10.5369 19.6162 11.126 19.2758 11.126 18.7315V16.0359H10.7439V18.6248C10.7439 18.9215 10.4227 19.1082 10.1645 18.9588L9.5103 18.5811V15.8182L11.9028 14.4373L14.2954 15.8182V18.5811L11.9028 19.9619L11.2135 19.5639L10.7631 19.7453L11.9028 20.4027L14.6774 18.8009V15.5973L11.9028 13.9956L9.12826 15.5973L9.1272 18.803Z" fill="#66A060"/>
</g>
<defs>
<clipPath id="clip0_1361_40863">
<rect width="24" height="24" fill="white"/>
</clipPath>
</defs>
</svg>
