<svg width="24" height="24" viewBox="0 0 24 24" fill="none" xmlns="http://www.w3.org/2000/svg">
<rect width="24" height="24" fill="white"/>
<circle cx="12" cy="12" r="12" fill="white"/>
<g clip-path="url(#clip0_1367_41124)">
<path d="M5.43555 8.03418L12.0933 4.08245L18.7509 8.03418V15.9312L12.0933 19.8829L5.43555 15.9312V8.03418Z" fill="#CC0000"/>
<path d="M12.2798 11.9795L18.4708 8.34497L18.7197 15.6711L12.2798 19.6355V11.9795Z" fill="white"/>
<path d="M18.5643 8.12298L18.5456 15.8868L12.087 19.7053L12.0559 12.0746L18.5643 8.12298ZM13.1324 12.7089L13.151 17.8087L15.2976 16.5337L15.2914 12.69L16.3741 12.0366V15.8931L17.4567 15.2462L17.4629 10.083L13.1323 12.709L13.1324 12.7089Z" fill="#CC0000"/>
<path d="M12.5165 4.13954C12.2178 3.96828 11.7387 3.96828 11.44 4.13954L5.54146 7.59649C5.24276 7.76775 5.00635 8.19908 5.00635 8.5416V15.4555C5.00635 15.8043 5.24899 16.2293 5.54146 16.4006L11.44 19.8575C11.7387 20.0288 12.2178 20.0288 12.5165 19.8575L18.415 16.4006C18.7137 16.2294 18.9501 15.798 18.9501 15.4555V8.5416C18.9501 8.19272 18.7074 7.76775 18.415 7.59649L12.5165 4.13954ZM17.7493 7.75504C18.0479 7.9263 18.0479 8.21173 17.7493 8.383L12.5849 11.4086C12.2862 11.5799 11.8071 11.5799 11.5085 11.4086L6.26939 8.33862C5.97069 8.16736 5.97069 7.88192 6.26939 7.71066L11.4337 4.68504C11.7324 4.51378 12.2115 4.51378 12.5102 4.68504L17.7492 7.75504H17.7493ZM5.46675 9.04268C5.46675 8.69385 5.70945 8.55431 6.00186 8.72552L11.2845 11.8209C11.5831 11.9922 11.8195 12.4235 11.8195 12.766V18.9061C11.8195 19.255 11.5769 19.3945 11.2845 19.2232L6.00186 16.1278C5.70322 15.9566 5.46675 15.5252 5.46675 15.1827V9.04268ZM12.8276 19.1281C12.5289 19.2993 12.2925 19.1598 12.2925 18.8109V12.766C12.2925 12.4172 12.5351 11.9922 12.8275 11.8209L17.9546 8.82068C18.2533 8.64942 18.4897 8.78896 18.4897 9.13784V15.1827C18.4897 15.5316 18.247 15.9566 17.9546 16.1278L12.8276 19.1281Z" fill="#910505"/>
</g>
<defs>
<clipPath id="clip0_1367_41124">
<rect width="14" height="16" fill="white" transform="translate(5 4)"/>
</clipPath>
</defs>
</svg>
