<svg width="24" height="24" viewBox="0 0 24 24" fill="none" xmlns="http://www.w3.org/2000/svg">
<g clip-path="url(#clip0_557_15494)">
<path d="M0 12C0 5.37258 5.37258 0 12 0C18.6274 0 24 5.37258 24 12C24 18.6274 18.6274 24 12 24C5.37258 24 0 18.6274 0 12Z" fill="#001E36"/>
<path d="M24 0H0V24H24V0Z" fill="#001E36"/>
<path fill-rule="evenodd" clip-rule="evenodd" d="M5.25 6.67315V17.1537C5.25 17.2453 5.28961 17.2861 5.36883 17.2861H7.2899C7.35922 17.2759 7.40873 17.2148 7.39883 17.1435V13.874C7.58697 13.874 7.72561 13.874 7.82463 13.8842C7.92366 13.8944 8.0821 13.8944 8.31975 13.8944C9.13175 13.8944 9.87444 13.8028 10.5478 13.5481C11.1915 13.3037 11.746 12.8759 12.1421 12.3055C12.5382 11.7352 12.7362 11.012 12.7362 10.1361C12.7362 9.67777 12.657 9.2398 12.5085 8.81203C12.35 8.37407 12.1025 7.97685 11.7856 7.65092C11.4093 7.27407 10.9538 6.98889 10.4587 6.81574C9.90414 6.60185 9.23078 6.5 8.41878 6.5C8.12171 6.5 7.82463 6.5 7.51766 6.51018C7.36946 6.5151 7.22587 6.51765 7.0869 6.52011C6.93802 6.52274 6.79443 6.52529 6.65615 6.53056C6.52647 6.5355 6.40145 6.53804 6.27996 6.54051C6.15097 6.54314 6.02595 6.54568 5.90356 6.55093C5.67581 6.56111 5.51737 6.56111 5.34903 6.56111C5.27972 6.56111 5.25 6.60185 5.25 6.67315ZM7.40873 11.9491V8.52685C7.47805 8.51666 7.61668 8.50647 7.81473 8.51666C8.00288 8.50647 8.23063 8.50647 8.4881 8.50647C8.8941 8.49629 9.29019 8.5574 9.65658 8.71018C9.94375 8.82221 10.1814 9.02592 10.3498 9.29073C10.5082 9.56573 10.5874 9.88147 10.5775 10.1972C10.5775 10.6454 10.4785 10.9917 10.2705 11.2463C10.0527 11.5009 9.77541 11.6944 9.45853 11.7861C9.09214 11.9083 8.70595 11.9694 8.31975 11.9694H7.79492C7.68462 11.9694 7.56579 11.9606 7.43842 11.9512C7.42858 11.9505 7.41868 11.9498 7.40873 11.9491Z" fill="#31A8FF"/>
<path d="M17.9647 10.9815C18.3014 11.0528 18.6183 11.1648 18.9153 11.3278C18.9549 11.3482 19.0045 11.3482 19.0936 11.3278C19.1233 11.3074 19.1431 11.2667 19.1431 11.2259V9.56576C19.1431 9.52502 19.1332 9.48428 19.1233 9.44354C19.1035 9.4028 19.0639 9.36206 19.0243 9.35187C18.7569 9.23984 18.4697 9.15836 18.1727 9.11761C17.7667 9.0565 17.3507 9.02595 16.9447 9.02595C16.2417 9.02595 15.6574 9.13799 15.192 9.38243C14.7662 9.58613 14.3998 9.91206 14.1523 10.3195C13.9344 10.6963 13.8156 11.1139 13.8156 11.5519C13.8057 11.9083 13.8849 12.2648 14.0433 12.5908C14.2315 12.937 14.4889 13.2324 14.7959 13.4565C15.2316 13.762 15.697 14.0065 16.2021 14.1898C16.6873 14.3833 17.0141 14.5361 17.1725 14.6685C17.3309 14.8009 17.4102 14.9333 17.4102 15.0759C17.4102 15.2593 17.3012 15.4324 17.1428 15.5037C16.9646 15.5954 16.6972 15.6463 16.3209 15.6463C15.9248 15.6463 15.5287 15.5954 15.1524 15.4935C14.7167 15.3917 14.3107 15.2287 13.9245 14.9944C13.8948 14.9741 13.8651 14.9639 13.8354 14.9843C13.8057 15.0046 13.7958 15.0454 13.7958 15.0759V16.8481C13.7859 16.9296 13.8354 17.0009 13.9047 17.0417C14.2216 17.1944 14.5682 17.3065 14.9148 17.3676C15.3604 17.4593 15.806 17.5 16.2615 17.5C16.9745 17.5 17.5686 17.388 18.0538 17.1741C18.4994 16.9907 18.8856 16.675 19.1629 16.2676C19.4204 15.8704 19.559 15.3917 19.5491 14.913C19.559 14.5463 19.4798 14.1898 19.3213 13.8639C19.1332 13.5176 18.8658 13.2324 18.539 13.0185C18.0637 12.713 17.5488 12.4583 17.0141 12.275C16.7764 12.1732 16.5387 12.0611 16.311 11.9389C16.1823 11.8676 16.0634 11.7759 15.9743 11.6639C15.9149 11.5824 15.8753 11.4908 15.8753 11.3991C15.8753 11.3074 15.905 11.2056 15.9545 11.1241C16.0238 11.0222 16.1327 10.9509 16.2615 10.9204C16.4496 10.8695 16.6576 10.8389 16.8556 10.8491C17.2319 10.8491 17.5983 10.9 17.9647 10.9815Z" fill="#31A8FF"/>
</g>
<defs>
<clipPath id="clip0_557_15494">
<path d="M0 12C0 5.37258 5.37258 0 12 0C18.6274 0 24 5.37258 24 12C24 18.6274 18.6274 24 12 24C5.37258 24 0 18.6274 0 12Z" fill="white"/>
</clipPath>
</defs>
</svg>
