<svg width="24" height="24" viewBox="0 0 24 24" fill="none" xmlns="http://www.w3.org/2000/svg">
<g clip-path="url(#clip0_1361_40883)">
<path d="M23.9019 13.5237C24.7417 6.94891 20.0985 0.937994 13.5357 0.0981451C6.97291 -0.741704 0.937994 3.90146 0.0981451 10.4643C-0.741704 17.0271 3.90146 23.05 10.4643 23.9019C17.0391 24.7417 23.05 20.0985 23.9019 13.5237Z" fill="#FF6C37"/>
<path d="M16.3314 7.70477L11.2683 12.7679L9.84058 11.3401C14.8197 6.36102 15.3116 6.79294 16.3314 7.70477Z" fill="white"/>
<path d="M11.2682 12.8878C11.2322 12.8878 11.2082 12.8758 11.1842 12.8518L9.74449 11.4241C9.6965 11.3761 9.6965 11.3041 9.74449 11.2561C14.8076 6.19305 15.3355 6.67296 16.4033 7.63279C16.4273 7.65678 16.4393 7.68078 16.4393 7.71677C16.4393 7.75277 16.4273 7.77676 16.4033 7.80076L11.3402 12.8518C11.3282 12.8758 11.2922 12.8878 11.2682 12.8878ZM10.0084 11.3401L11.2682 12.5999L16.1513 7.71677C15.2635 6.92492 14.6636 6.68496 10.0084 11.3401Z" fill="#FF6C37"/>
<path d="M12.7201 14.2196L11.3403 12.8399L16.4034 7.77676C17.7592 9.14452 15.7315 11.3641 12.7201 14.2196Z" fill="white"/>
<path d="M12.7199 14.3396C12.6839 14.3396 12.6599 14.3276 12.6359 14.3036L11.2562 12.9238C11.2322 12.8998 11.2322 12.8758 11.2322 12.8398C11.2322 12.8039 11.2442 12.7799 11.2682 12.7559L16.3313 7.69278C16.3793 7.64479 16.4512 7.64479 16.4992 7.69278C16.8112 7.98073 16.9791 8.38865 16.9671 8.80858C16.9431 10.1403 15.4314 11.832 12.8159 14.3036C12.7799 14.3276 12.7439 14.3396 12.7199 14.3396ZM11.5081 12.8398C12.276 13.6197 12.5999 13.9317 12.7199 14.0516C14.7355 12.132 16.6912 10.1643 16.7032 8.80858C16.7152 8.49663 16.5952 8.18469 16.3912 7.94473L11.5081 12.8398Z" fill="#FF6C37"/>
<path d="M9.86446 11.3761L10.8843 12.3959C10.9083 12.4199 10.9083 12.4439 10.8843 12.4679C10.8723 12.4799 10.8723 12.4799 10.8603 12.4799L8.74866 12.9358C8.64068 12.9478 8.54469 12.8758 8.5207 12.7679C8.5087 12.7079 8.5327 12.6479 8.56869 12.6119L9.79247 11.3881C9.81647 11.3641 9.85246 11.3521 9.86446 11.3761Z" fill="white"/>
<path d="M8.71258 13.0558C8.53261 13.0558 8.40063 12.9118 8.40063 12.7319C8.40063 12.6479 8.43663 12.5639 8.49662 12.5039L9.7204 11.2801C9.79238 11.2201 9.88837 11.2201 9.96035 11.2801L10.9802 12.2999C11.0522 12.3599 11.0522 12.4679 10.9802 12.5399C10.9562 12.5639 10.9322 12.5759 10.8962 12.5879L8.78457 13.0438C8.76057 13.0438 8.73657 13.0558 8.71258 13.0558ZM9.82838 11.5081L8.65259 12.6839C8.62859 12.7079 8.6166 12.7439 8.64059 12.7799C8.65259 12.8159 8.68858 12.8279 8.72458 12.8159L10.7042 12.3839L9.82838 11.5081Z" fill="#FF6C37"/>
<path d="M19.0069 4.89728C18.239 4.15342 17.0032 4.17741 16.2594 4.95727C15.5155 5.73713 15.5395 6.96091 16.3194 7.70478C16.9552 8.31667 17.9151 8.42465 18.6709 7.96873L17.3032 6.60098L19.0069 4.89728Z" fill="white"/>
<path d="M17.663 8.36466C16.5232 8.36466 15.5994 7.44082 15.5994 6.30103C15.5994 5.16123 16.5232 4.2374 17.663 4.2374C18.1909 4.2374 18.7068 4.44136 19.0907 4.8133C19.1147 4.83729 19.1267 4.86129 19.1267 4.89728C19.1267 4.93327 19.1147 4.95727 19.0907 4.98127L17.471 6.60097L18.7428 7.87275C18.7908 7.92074 18.7908 7.99272 18.7428 8.04071C18.7308 8.05271 18.7308 8.05271 18.7188 8.06471C18.4069 8.25668 18.0349 8.36466 17.663 8.36466ZM17.663 4.48935C16.6552 4.48935 15.8393 5.30521 15.8513 6.31303C15.8513 7.32084 16.6672 8.1367 17.675 8.1247C17.9509 8.1247 18.2269 8.06471 18.4788 7.93273L17.2191 6.68496C17.1951 6.66096 17.1831 6.63697 17.1831 6.60097C17.1831 6.56498 17.1951 6.54098 17.2191 6.51699L18.8268 4.90928C18.5028 4.63333 18.0949 4.48935 17.663 4.48935Z" fill="#FF6C37"/>
<path d="M19.0429 4.93327L19.0189 4.90928L17.3032 6.60097L18.659 7.95673C18.791 7.87274 18.9229 7.77676 19.0309 7.66878C19.7988 6.91292 19.7988 5.68914 19.0429 4.93327Z" fill="white"/>
<path d="M18.6708 8.08871C18.6348 8.08871 18.6108 8.07671 18.5869 8.05271L17.2191 6.68496C17.1951 6.66096 17.1831 6.63697 17.1831 6.60097C17.1831 6.56498 17.1951 6.54098 17.2191 6.51699L18.9228 4.8133C18.9708 4.7653 19.0428 4.7653 19.0908 4.8133L19.1268 4.83729C19.9306 5.64115 19.9306 6.93691 19.1388 7.75277C19.0188 7.87274 18.8868 7.98072 18.7428 8.06471C18.7068 8.07671 18.6828 8.08871 18.6708 8.08871ZM17.4711 6.60097L18.6828 7.81275C18.7788 7.75277 18.8748 7.66878 18.9468 7.59679C19.6307 6.91292 19.6667 5.79712 19.0068 5.07725L17.4711 6.60097Z" fill="#FF6C37"/>
<path d="M16.5353 7.92074C16.2473 7.63279 15.7794 7.63279 15.4914 7.92074L10.9683 12.4439L11.7241 13.1998L16.5113 9.00054C16.8232 8.73659 16.8472 8.26868 16.5832 7.95673C16.5593 7.94473 16.5473 7.93274 16.5353 7.92074Z" fill="white"/>
<path d="M11.7123 13.3198C11.6763 13.3198 11.6523 13.3078 11.6283 13.2838L10.8724 12.5279C10.8244 12.4799 10.8244 12.4079 10.8724 12.3599L15.3956 7.83675C15.7315 7.50081 16.2714 7.50081 16.6074 7.83675C16.9433 8.17269 16.9433 8.71259 16.6074 9.04853C16.5954 9.06053 16.5834 9.07253 16.5714 9.08453L11.7843 13.2838C11.7723 13.3078 11.7483 13.3198 11.7123 13.3198ZM11.1364 12.4439L11.7243 13.0318L16.4274 8.90456C16.6914 8.6886 16.7154 8.29267 16.4994 8.02872C16.2834 7.76476 15.8875 7.74077 15.6236 7.95673C15.6116 7.96873 15.5996 7.98073 15.5756 7.99272L11.1364 12.4439Z" fill="#FF6C37"/>
<path d="M7.50099 17.591C7.45299 17.615 7.429 17.663 7.441 17.711L7.64496 18.5748C7.69295 18.6948 7.62096 18.8388 7.48899 18.8748C7.39301 18.9108 7.28502 18.8748 7.22504 18.8028L5.90527 17.495L10.2125 13.1878L11.7002 13.2118L12.708 14.2196C12.4681 14.4236 11.0164 15.8273 7.50099 17.591Z" fill="white"/>
<path d="M7.40504 18.9947C7.30906 18.9947 7.21307 18.9587 7.15308 18.8868L5.84532 17.579C5.82132 17.555 5.80933 17.531 5.80933 17.495C5.80933 17.459 5.82132 17.435 5.84532 17.411L10.1525 13.1038C10.1765 13.0798 10.2125 13.0678 10.2365 13.0678L11.7243 13.0918C11.7603 13.0918 11.7842 13.1038 11.8082 13.1278L12.8161 14.1356C12.8401 14.1596 12.8521 14.1956 12.8521 14.2316C12.8521 14.2676 12.8401 14.2916 12.8041 14.3156L12.7201 14.3876C11.4483 15.5034 9.72062 16.6192 7.57301 17.687L7.77697 18.5388C7.81296 18.6948 7.74098 18.8628 7.597 18.9468C7.52502 18.9827 7.46503 18.9947 7.40504 18.9947ZM6.08528 17.495L7.32105 18.7188C7.35705 18.7788 7.42903 18.8028 7.48902 18.7668C7.54901 18.7308 7.57301 18.6588 7.53701 18.5988L7.33305 17.735C7.30906 17.627 7.35705 17.531 7.45303 17.483C9.57665 16.4152 11.2923 15.3114 12.5521 14.2196L11.6643 13.3318L10.2845 13.3078L6.08528 17.495Z" fill="#FF6C37"/>
<path d="M4.88548 18.5268L5.91729 17.495L7.45301 19.0307L5.00545 18.8628C4.89747 18.8508 4.82549 18.7548 4.83749 18.6468C4.83749 18.5988 4.84948 18.5508 4.88548 18.5268Z" fill="white"/>
<path d="M7.45292 19.1387L4.99336 18.9707C4.8134 18.9587 4.69342 18.8028 4.70541 18.6228C4.71741 18.5508 4.74141 18.4788 4.8014 18.4308L5.83321 17.399C5.8812 17.351 5.95319 17.351 6.00118 17.399L7.5369 18.9348C7.5729 18.9707 7.5849 19.0187 7.5609 19.0667C7.5369 19.1147 7.50091 19.1387 7.45292 19.1387ZM5.9172 17.663L4.96937 18.6108C4.93337 18.6348 4.93337 18.6948 4.96937 18.7188C4.98137 18.7308 4.99336 18.7428 5.01736 18.7428L7.14098 18.8868L5.9172 17.663Z" fill="#FF6C37"/>
<path d="M9.79259 13.7397C9.7206 13.7397 9.67261 13.6797 9.67261 13.6197C9.67261 13.5837 9.68461 13.5597 9.7086 13.5357L10.8724 12.3719C10.9204 12.3239 10.9924 12.3239 11.0404 12.3719L11.7962 13.1278C11.8322 13.1638 11.8442 13.1998 11.8322 13.2478C11.8202 13.2838 11.7842 13.3198 11.7362 13.3318L9.81658 13.7397C9.80458 13.7397 9.79259 13.7397 9.79259 13.7397ZM10.9564 12.6239L10.1645 13.4157L11.4603 13.1398L10.9564 12.6239Z" fill="#FF6C37"/>
<path d="M11.7002 13.2118L10.3804 13.4997C10.2845 13.5237 10.1885 13.4637 10.1645 13.3678C10.1525 13.3078 10.1645 13.2478 10.2125 13.1998L10.9443 12.4679L11.7002 13.2118Z" fill="white"/>
<path d="M10.3563 13.6197C10.1884 13.6197 10.0564 13.4877 10.0564 13.3198C10.0564 13.2358 10.0924 13.1638 10.1404 13.1038L10.8722 12.3719C10.9202 12.3239 10.9922 12.3239 11.0402 12.3719L11.7961 13.1278C11.8321 13.1638 11.8441 13.1998 11.8321 13.2478C11.8201 13.2838 11.7841 13.3198 11.7361 13.3318L10.4163 13.6197C10.3923 13.6197 10.3683 13.6197 10.3563 13.6197ZM10.9562 12.6239L10.3084 13.2718C10.2844 13.2958 10.2844 13.3198 10.2964 13.3438C10.3084 13.3678 10.3323 13.3798 10.3683 13.3798L11.4721 13.1398L10.9562 12.6239Z" fill="#FF6C37"/>
<path d="M19.0549 6.08507C19.0309 6.01308 18.9469 5.97709 18.8749 6.00108C18.8029 6.02508 18.7669 6.10906 18.7909 6.18105C18.7909 6.19305 18.8029 6.20505 18.8029 6.21704C18.8749 6.36102 18.8509 6.54098 18.7549 6.67296C18.7069 6.73295 18.7189 6.81694 18.7669 6.86493C18.8269 6.91292 18.9109 6.90092 18.9589 6.84093C19.1388 6.61297 19.1748 6.32502 19.0549 6.08507Z" fill="#FF6C37"/>
</g>
<defs>
<clipPath id="clip0_1361_40883">
<rect width="24" height="24" fill="white"/>
</clipPath>
</defs>
</svg>
