<svg width="24" height="24" viewBox="0 0 24 24" fill="none" xmlns="http://www.w3.org/2000/svg">
<g clip-path="url(#clip0_557_15495)">
<path d="M24 0H0V24H24V0Z" fill="#00005B"/>
<path fill-rule="evenodd" clip-rule="evenodd" d="M5.25 6.67623V17.3432C5.25 17.4365 5.29139 17.478 5.37417 17.478H7.38155C7.45399 17.4676 7.50572 17.4054 7.49538 17.3329V14.0053C7.69197 14.0053 7.83684 14.0053 7.94031 14.0156C8.04378 14.026 8.20931 14.026 8.45761 14.026C9.30609 14.026 10.0822 13.9327 10.7858 13.6735C11.4584 13.4247 12.0379 12.9894 12.4518 12.4088C12.8657 11.8283 13.0726 11.0923 13.0726 10.2008C13.0726 9.73431 12.9898 9.28856 12.8346 8.85317C12.6691 8.40741 12.4104 8.00313 12.0793 7.6714C11.6861 7.28785 11.2101 6.99759 10.6927 6.82136C10.1133 6.60366 9.40964 6.5 8.56115 6.5C8.25073 6.5 7.94031 6.5 7.61954 6.51037C7.46468 6.51537 7.31465 6.51796 7.16943 6.52046C7.01386 6.52315 6.86382 6.52574 6.71932 6.5311C6.58382 6.53613 6.45319 6.53872 6.32624 6.54123C6.19145 6.5439 6.06082 6.54649 5.93293 6.55183C5.69494 6.5622 5.52938 6.5622 5.35347 6.5622C5.28104 6.5622 5.25 6.60366 5.25 6.67623ZM7.50572 12.0564V8.57328C7.57815 8.56291 7.72302 8.55254 7.92996 8.56291C8.12656 8.55254 8.36455 8.55254 8.63358 8.55254C9.05783 8.54218 9.47172 8.60438 9.85457 8.75987C10.1546 8.8739 10.403 9.08123 10.5789 9.35076C10.7444 9.63065 10.8272 9.95201 10.8169 10.2734C10.8169 10.7295 10.7134 11.0819 10.4961 11.3411C10.2685 11.6003 9.97874 11.7972 9.64762 11.8905C9.26477 12.0149 8.86123 12.0771 8.45768 12.0771H7.90927C7.79401 12.0771 7.66984 12.0682 7.53675 12.0586C7.52646 12.0579 7.51612 12.0571 7.50572 12.0564Z" fill="#9999FF"/>
<path d="M16.3734 9.18484H14.5626C14.5523 9.17448 14.5316 9.17448 14.5316 9.18484C14.4798 9.19521 14.4488 9.24704 14.4591 9.29887L14.4616 9.32746C14.4814 9.55557 14.5005 9.7749 14.5005 10.0038C14.5057 10.1386 14.5083 10.2733 14.5109 10.4081C14.5134 10.5428 14.516 10.6776 14.5212 10.8124C14.5316 11.0819 14.5316 11.341 14.5316 11.5898V17.3743C14.5419 17.4572 14.6143 17.509 14.6971 17.4987H16.7355C16.8287 17.4987 16.8701 17.4572 16.8701 17.3536V12.0667C17.0149 11.9008 17.2012 11.7764 17.3978 11.6831C17.6772 11.5587 17.9669 11.4654 18.267 11.4032C18.6291 11.3203 19.012 11.2892 19.3845 11.2996C19.4983 11.2996 19.55 11.2685 19.55 11.1856V9.12264C19.5397 9.05008 19.4776 8.99825 19.4052 9.00861C18.8568 9.00861 18.3083 9.14338 17.8324 9.4129C17.4081 9.64096 17.0356 9.94159 16.7252 10.3044C16.7252 10.1696 16.7148 10.0453 16.7045 9.93122C16.6942 9.82756 16.6735 9.71353 16.6528 9.60986C16.6424 9.51657 16.6217 9.43364 16.5907 9.35071C16.5596 9.25741 16.4769 9.18484 16.3734 9.18484Z" fill="#9999FF"/>
</g>
<defs>
<clipPath id="clip0_557_15495">
<path d="M0 12C0 5.37258 5.37258 0 12 0C18.6274 0 24 5.37258 24 12C24 18.6274 18.6274 24 12 24C5.37258 24 0 18.6274 0 12Z" fill="white"/>
</clipPath>
</defs>
</svg>
