<svg width="24" height="24" viewBox="0 0 24 24" fill="none" xmlns="http://www.w3.org/2000/svg">
<g clip-path="url(#clip0_1367_41130)">
<circle cx="12" cy="12" r="12" fill="#242938"/>
<mask id="mask0_1367_41130" style="mask-type:luminance" maskUnits="userSpaceOnUse" x="2" y="2" width="20" height="20">
<path d="M22 2H2V22H22V2Z" fill="white"/>
</mask>
<g mask="url(#mask0_1367_41130)">
<mask id="mask1_1367_41130" style="mask-type:luminance" maskUnits="userSpaceOnUse" x="5" y="5" width="14" height="14">
<path d="M18.5669 5.18685H5.35498V18.7351H18.5669V5.18685Z" fill="white"/>
</mask>
<g mask="url(#mask1_1367_41130)">
<path d="M18.5668 10.4706L9.29956 5.18685L15.5092 14.6513L16.7738 13.7996L18.5668 10.4706Z" fill="url(#paint0_linear_1367_41130)"/>
<path d="M14.8865 8.30293L13.7163 5.39975L11.1494 7.99326L12.1875 17.3995L14.6789 18.735L18.567 16.4125L14.8865 8.30293Z" fill="url(#paint1_linear_1367_41130)"/>
<path d="M9.2997 5.18685L5.35498 7.91584L6.82717 17.2254L10.6209 18.7157L15.5282 14.6512L9.2997 5.18685Z" fill="url(#paint2_linear_1367_41130)"/>
<path d="M15.9245 7.89649H7.99731V16.0254H15.9245V7.89649Z" fill="black"/>
<path d="M11.8476 14.5931H8.86548V15.1157H11.8476V14.5931Z" fill="white"/>
<path d="M12.0554 8.90292H13.2257C14.1693 8.90292 14.811 9.56097 14.811 10.3932C14.811 11.2448 14.1693 11.9223 13.2257 11.9223L12.0554 11.9609V8.90292ZM12.716 9.52226V11.3609H13.2257C13.7541 11.3609 14.1316 10.9932 14.1316 10.4706C14.1316 9.92874 13.773 9.56097 13.2257 9.56097L12.716 9.52226Z" fill="white"/>
<path d="M8.99763 8.90292H10.3566C10.7341 8.90292 11.0172 9.01905 11.2248 9.21259C11.3946 9.38678 11.4702 9.61903 11.4702 9.90937V9.92874C11.4702 10.1803 11.4135 10.3739 11.3003 10.5287C11.187 10.6835 11.036 10.7997 10.8473 10.8771L11.5834 11.9609H10.8095L10.1867 11.0319H9.63935V11.9609H8.97876L8.99763 8.90292ZM10.3188 10.3932C10.4699 10.3932 10.602 10.3545 10.6963 10.2771C10.7907 10.1997 10.8285 10.0835 10.8285 9.96742V9.94804C10.8285 9.79323 10.7907 9.69645 10.6963 9.61903C10.602 9.56097 10.4887 9.50291 10.3188 9.50291H9.6771V10.3739H10.3188V10.3932Z" fill="white"/>
</g>
</g>
</g>
<defs>
<linearGradient id="paint0_linear_1367_41130" x1="17.7155" y1="12.9516" x2="7.40619" y2="7.18242" gradientUnits="userSpaceOnUse">
<stop stop-color="#DD1265"/>
<stop offset="0.483" stop-color="#DD1265"/>
<stop offset="0.942" stop-color="#FDB60D"/>
</linearGradient>
<linearGradient id="paint1_linear_1367_41130" x1="11.662" y1="6.3698" x2="15.8819" y2="17.7333" gradientUnits="userSpaceOnUse">
<stop offset="0.139" stop-color="#087CFA"/>
<stop offset="0.476" stop-color="#DD1265"/>
<stop offset="0.958" stop-color="#087CFA"/>
</linearGradient>
<linearGradient id="paint2_linear_1367_41130" x1="8.64165" y1="6.72144" x2="11.7655" y2="17.5471" gradientUnits="userSpaceOnUse">
<stop offset="0.278" stop-color="#DD1265"/>
<stop offset="0.968" stop-color="#FDB60D"/>
</linearGradient>
<clipPath id="clip0_1367_41130">
<rect width="24" height="24" fill="white"/>
</clipPath>
</defs>
</svg>
