<svg width="24" height="24" viewBox="0 0 24 24" fill="none" xmlns="http://www.w3.org/2000/svg">
<g clip-path="url(#clip0_557_15490)">
<path d="M24 0H0V24H24V0Z" fill="black"/>
<path d="M6.82153 6.7375C6.82153 7.1445 7.15553 7.475 7.56653 7.475H13.745C14.449 7.475 15.029 7.69 15.485 8.12C15.94 8.5505 16.168 9.1035 16.168 9.78C16.168 10.405 15.94 10.917 15.4845 11.316C15.029 11.706 14.4495 11.9 13.745 11.9H11.06C10.648 11.9 10.3145 12.23 10.3145 12.6375C10.3145 13.045 10.648 13.375 11.06 13.375H14.025L16.696 17.616C16.862 17.872 17.0945 18 17.395 18C17.7265 18 17.9595 17.872 18.094 17.616C18.2285 17.3495 18.2025 17.068 18.0165 16.771L15.64 12.991C16.282 12.704 16.7895 12.284 17.162 11.731C17.535 11.1675 17.7215 10.5175 17.7215 9.78C17.7215 9.032 17.5505 8.3765 17.2085 7.813C16.8775 7.2495 16.4115 6.809 15.811 6.4915C15.21 6.1635 14.522 6 13.745 6H7.56703C7.15553 6 6.82153 6.33 6.82153 6.7375Z" fill="white"/>
</g>
<defs>
<clipPath id="clip0_557_15490">
<path d="M0 12C0 5.37258 5.37258 0 12 0C18.6274 0 24 5.37258 24 12C24 18.6274 18.6274 24 12 24C5.37258 24 0 18.6274 0 12Z" fill="white"/>
</clipPath>
</defs>
</svg>
