<svg width="24" height="24" viewBox="0 0 24 24" fill="none" xmlns="http://www.w3.org/2000/svg">
<g clip-path="url(#clip0_1367_41151)">
<circle cx="12" cy="12" r="12" fill="white"/>
<path d="M12.6317 16.1317C12.6247 16.0425 12.6205 15.9846 12.6205 15.9846C12.6205 15.9846 12.3504 14.1632 12.0288 13.6198C11.9779 13.5336 12.0343 13.1797 12.1763 12.6556C12.2593 12.7991 12.6097 13.413 12.6801 13.6108C12.7592 13.8345 12.7759 13.8985 12.7759 13.8985C12.7759 13.8985 12.5838 12.9098 12.2684 12.3328C12.3452 12.0757 12.4269 11.8201 12.5135 11.5662C12.633 11.7757 12.9189 12.2831 12.9819 12.4591C12.9947 12.4953 13.0054 12.5259 13.015 12.5541L13.0243 12.5034C12.952 12.1971 12.8102 11.664 12.6161 11.2702C13.0468 9.02826 14.5159 6.03167 16.0219 4.69466H6.19723C5.53879 4.69466 5 5.23358 5 5.89203V16.7268C5 17.3852 5.53879 17.9239 6.19723 17.9239H12.6681C12.6214 17.3592 12.6058 16.7343 12.6318 16.1317" fill="#0F80CC"/>
<path d="M12.1764 12.6558C12.2593 12.7992 12.6097 13.413 12.68 13.6109C12.7593 13.8345 12.7759 13.8986 12.7759 13.8986C12.7759 13.8986 12.5838 12.9099 12.2684 12.3329C12.3376 12.0996 12.4201 11.8418 12.5135 11.5662C12.6228 11.7579 12.871 12.1981 12.9607 12.4067L12.9708 12.289C12.8913 11.9835 12.7706 11.5836 12.6161 11.2703C13.0128 9.20609 14.2895 6.50323 15.665 5.04406H6.19725C5.97244 5.04435 5.75693 5.13379 5.59799 5.29276C5.43904 5.45174 5.34963 5.66726 5.34937 5.89206V15.9363C7.49351 15.1134 10.079 14.3611 12.3042 14.3934C12.2215 14.0748 12.1276 13.7868 12.0288 13.6198C11.9779 13.5336 12.0343 13.1799 12.1764 12.6558Z" fill="url(#paint0_linear_1367_41151)"/>
<path d="M18.3137 4.34014C17.6408 3.74006 16.8261 3.98116 16.022 4.69466C15.9027 4.80077 15.7836 4.91832 15.6652 5.04397C14.2897 6.50318 13.0129 9.20603 12.6162 11.2702C12.7707 11.5836 12.8914 11.9835 12.9709 12.2889C12.9913 12.3673 13.0097 12.4408 13.0244 12.5034C13.0593 12.6515 13.078 12.7475 13.078 12.7475C13.078 12.7475 13.0657 12.7009 13.0151 12.5541C13.0055 12.526 12.9947 12.4953 12.982 12.4591C12.9766 12.4442 12.9691 12.426 12.9608 12.4067C12.871 12.1981 12.6228 11.7578 12.5137 11.5662C12.4271 11.8201 12.3453 12.0757 12.2685 12.3328C12.5839 12.9098 12.776 13.8986 12.776 13.8986C12.776 13.8986 12.7593 13.8345 12.6802 13.6108C12.6098 13.413 12.2594 12.7991 12.1764 12.6556C12.0344 13.1797 11.978 13.5336 12.0289 13.6198C12.1276 13.7867 12.2218 14.0748 12.3043 14.3933C12.4909 15.111 12.6207 15.9847 12.6207 15.9847C12.6207 15.9847 12.6249 16.0426 12.6319 16.1316C12.606 16.7343 12.6215 17.3592 12.6681 17.924C12.73 18.6716 12.8464 19.3139 12.9947 19.6576L13.0955 19.6027C12.8776 18.9255 12.7891 18.038 12.8279 17.0145C12.8865 15.45 13.2465 13.5634 13.9117 11.5969C15.0356 8.62841 16.5948 6.24674 18.022 5.10927C16.7212 6.28397 14.9608 10.0864 14.4338 11.4945C13.8437 13.0712 13.4256 14.5509 13.1736 15.9686C13.6084 14.6396 15.0142 14.0683 15.0142 14.0683C15.0142 14.0683 15.7037 13.2179 16.5096 12.0029C16.0269 12.1131 15.2343 12.3015 14.9688 12.413C14.5772 12.5773 14.4717 12.6334 14.4717 12.6334C14.4717 12.6334 15.7402 11.8609 16.8285 11.5111C18.3252 9.15383 19.9558 5.80502 18.3137 4.34014Z" fill="#003B57"/>
</g>
<defs>
<linearGradient id="paint0_linear_1367_41151" x1="11.2971" y1="5.26666" x2="11.2971" y2="15.3307" gradientUnits="userSpaceOnUse">
<stop stop-color="#97D9F6"/>
<stop offset="0.92" stop-color="#0F80CC"/>
<stop offset="1" stop-color="#0F80CC"/>
</linearGradient>
<clipPath id="clip0_1367_41151">
<rect width="24" height="24" fill="white"/>
</clipPath>
</defs>
</svg>
