<svg width="24" height="24" viewBox="0 0 24 24" fill="none" xmlns="http://www.w3.org/2000/svg">
<g clip-path="url(#clip0_1367_41136)">
<circle cx="12" cy="12" r="12" fill="#FAF8F6"/>
<mask id="mask0_1367_41136" style="mask-type:luminance" maskUnits="userSpaceOnUse" x="3" y="2" width="19" height="20">
<path d="M21.0863 2.625H3V21.375H21.0863V2.625Z" fill="white"/>
</mask>
<g mask="url(#mask0_1367_41136)">
<path d="M13.5709 20.9243C13.0965 21.5218 12.1344 21.1944 12.123 20.4315L11.9558 9.27258H19.4591C20.8181 9.27258 21.5761 10.8423 20.731 11.9066L13.5709 20.9243Z" fill="url(#paint0_linear_1367_41136)"/>
<path d="M13.5709 20.9243C13.0965 21.5218 12.1344 21.1944 12.123 20.4315L11.9558 9.27258H19.4591C20.8181 9.27258 21.5761 10.8423 20.731 11.9066L13.5709 20.9243Z" fill="url(#paint1_linear_1367_41136)" fill-opacity="0.2"/>
<path d="M10.5195 2.96864C10.9939 2.37107 11.956 2.6985 11.9674 3.46145L12.0407 14.6204H4.63133C3.27225 14.6204 2.51426 13.0507 3.35938 11.9863L10.5195 2.96864Z" fill="#3ECF8E"/>
</g>
</g>
<defs>
<linearGradient id="paint0_linear_1367_41136" x1="11.9558" y1="11.7468" x2="18.6244" y2="14.5436" gradientUnits="userSpaceOnUse">
<stop stop-color="#249361"/>
<stop offset="1" stop-color="#3ECF8E"/>
</linearGradient>
<linearGradient id="paint1_linear_1367_41136" x1="8.99931" y1="7.69875" x2="12.0406" y2="13.4238" gradientUnits="userSpaceOnUse">
<stop/>
<stop offset="1" stop-opacity="0"/>
</linearGradient>
<clipPath id="clip0_1367_41136">
<rect width="24" height="24" fill="white"/>
</clipPath>
</defs>
</svg>
