<svg width="24" height="24" viewBox="0 0 24 24" fill="none" xmlns="http://www.w3.org/2000/svg">
<g clip-path="url(#clip0_1367_41127)">
<circle cx="12" cy="12" r="12" fill="white"/>
<mask id="mask0_1367_41127" style="mask-type:luminance" maskUnits="userSpaceOnUse" x="5" y="5" width="14" height="15">
<path d="M14.9276 18.9775C15.1481 19.0641 15.3996 19.0585 15.6222 18.9506L18.5045 17.5528C18.8074 17.4059 19 17.0969 19 16.758V7.27957C19 6.94064 18.8074 6.6317 18.5045 6.48481L15.6222 5.0869C15.3301 4.94525 14.9882 4.97995 14.7319 5.16778C14.6953 5.19461 14.6604 5.22457 14.6277 5.25759L9.10971 10.3314L6.70621 8.49253C6.48246 8.32136 6.16951 8.33538 5.96171 8.5259L5.19082 9.23265C4.93664 9.46569 4.93635 9.86872 5.19019 10.1021L7.2746 12.0187L5.19019 13.9354C4.93635 14.1688 4.93664 14.5718 5.19082 14.8048L5.96171 15.5116C6.16951 15.7021 6.48246 15.7161 6.70621 15.545L9.10971 13.7061L14.6277 18.7799C14.715 18.8679 14.8174 18.9342 14.9276 18.9775ZM15.5021 8.81556L11.3153 12.0187L15.5021 15.2219V8.81556Z" fill="white"/>
</mask>
<g mask="url(#mask0_1367_41127)">
<path d="M18.5131 6.48708L15.6285 5.08725C15.2946 4.92522 14.8956 4.99357 14.6335 5.25767L5.19031 13.9355C4.93631 14.1689 4.9366 14.5719 5.19094 14.8049L5.96229 15.5117C6.17022 15.7022 6.48337 15.7162 6.70724 15.5451L18.079 6.85023C18.4605 6.55854 19.0085 6.83278 19.0085 7.31542V7.28166C19.0085 6.94288 18.8159 6.63405 18.5131 6.48708Z" fill="#0065A9"/>
</g>
<mask id="mask1_1367_41127" style="mask-type:luminance" maskUnits="userSpaceOnUse" x="5" y="5" width="14" height="15">
<path d="M14.9276 18.9775C15.1481 19.0641 15.3996 19.0585 15.6222 18.9506L18.5045 17.5528C18.8074 17.4059 19 17.0969 19 16.758V7.27957C19 6.94064 18.8074 6.6317 18.5045 6.48481L15.6222 5.0869C15.3301 4.94525 14.9882 4.97995 14.7319 5.16778C14.6953 5.19461 14.6604 5.22457 14.6277 5.25759L9.10971 10.3314L6.70621 8.49253C6.48246 8.32136 6.16951 8.33538 5.96171 8.5259L5.19082 9.23265C4.93664 9.46569 4.93635 9.86872 5.19019 10.1021L7.2746 12.0187L5.19019 13.9354C4.93635 14.1688 4.93664 14.5718 5.19082 14.8048L5.96171 15.5116C6.16951 15.7021 6.48246 15.7161 6.70621 15.545L9.10971 13.7061L14.6277 18.7799C14.715 18.8679 14.8174 18.9342 14.9276 18.9775ZM15.5021 8.81556L11.3153 12.0187L15.5021 15.2219V8.81556Z" fill="white"/>
</mask>
<g mask="url(#mask1_1367_41127)">
<path d="M18.5131 17.5505L15.6285 18.9503C15.2946 19.1123 14.8956 19.044 14.6335 18.7799L5.19031 10.1021C4.93631 9.86872 4.9366 9.46568 5.19094 9.23264L5.96229 8.52589C6.17022 8.33538 6.48337 8.32135 6.70724 8.49253L18.079 17.1873C18.4605 17.479 19.0085 17.2048 19.0085 16.7221V16.7559C19.0085 17.0947 18.8159 17.4035 18.5131 17.5505Z" fill="#007ACC"/>
</g>
<mask id="mask2_1367_41127" style="mask-type:luminance" maskUnits="userSpaceOnUse" x="5" y="5" width="14" height="15">
<path d="M14.9276 18.9775C15.1481 19.0641 15.3996 19.0585 15.6222 18.9506L18.5045 17.5528C18.8074 17.4059 19 17.0969 19 16.758V7.27957C19 6.94064 18.8074 6.6317 18.5045 6.48481L15.6222 5.0869C15.3301 4.94525 14.9882 4.97995 14.7319 5.16778C14.6953 5.19461 14.6604 5.22457 14.6277 5.25759L9.10971 10.3314L6.70621 8.49253C6.48246 8.32136 6.16951 8.33538 5.96171 8.5259L5.19082 9.23265C4.93664 9.46569 4.93635 9.86872 5.19019 10.1021L7.2746 12.0187L5.19019 13.9354C4.93635 14.1688 4.93664 14.5718 5.19082 14.8048L5.96171 15.5116C6.16951 15.7021 6.48246 15.7161 6.70621 15.545L9.10971 13.7061L14.6277 18.7799C14.715 18.8679 14.8174 18.9342 14.9276 18.9775ZM15.5021 8.81556L11.3153 12.0187L15.5021 15.2219V8.81556Z" fill="white"/>
</mask>
<g mask="url(#mask2_1367_41127)">
<path d="M15.6194 18.9515C15.2854 19.1133 14.8863 19.0449 14.6243 18.7808C14.9471 19.1062 15.4993 18.8757 15.4993 18.4155V5.62377C15.4993 5.16353 14.9471 4.93304 14.6243 5.25848C14.8863 4.99435 15.2854 4.92591 15.6194 5.0878L18.5035 6.4857C18.8065 6.63259 18.9993 6.94153 18.9993 7.28047V16.7589C18.9993 17.0978 18.8065 17.4067 18.5035 17.5536L15.6194 18.9515Z" fill="#1F9CF0"/>
</g>
<mask id="mask3_1367_41127" style="mask-type:luminance" maskUnits="userSpaceOnUse" x="5" y="5" width="14" height="15">
<path d="M14.9276 18.9775C15.1481 19.0641 15.3996 19.0585 15.6222 18.9506L18.5045 17.5528C18.8074 17.4059 19 17.0969 19 16.758V7.27957C19 6.94064 18.8074 6.6317 18.5045 6.48481L15.6222 5.0869C15.3301 4.94525 14.9882 4.97995 14.7319 5.16778C14.6953 5.19461 14.6604 5.22457 14.6277 5.25759L9.10971 10.3314L6.70621 8.49253C6.48246 8.32136 6.16951 8.33538 5.96171 8.5259L5.19082 9.23265C4.93664 9.46569 4.93635 9.86872 5.19019 10.1021L7.2746 12.0187L5.19019 13.9354C4.93635 14.1688 4.93664 14.5718 5.19082 14.8048L5.96171 15.5116C6.16951 15.7021 6.48246 15.7161 6.70621 15.545L9.10971 13.7061L14.6277 18.7799C14.715 18.8679 14.8174 18.9342 14.9276 18.9775ZM15.5021 8.81556L11.3153 12.0187L15.5021 15.2219V8.81556Z" fill="white"/>
</mask>
<g mask="url(#mask3_1367_41127)">
<path d="M14.9277 18.9775C15.1482 19.064 15.3996 19.0585 15.6221 18.9506L18.5045 17.5527C18.8074 17.4058 19 17.0969 19 16.758V7.27957C19 6.94064 18.8074 6.6317 18.5045 6.48481L15.6221 5.0869C15.3301 4.94525 14.9882 4.97995 14.7319 5.16778C14.6953 5.19461 14.6604 5.22457 14.6276 5.25759L9.10971 10.3314L6.7062 8.49253C6.48247 8.32136 6.16951 8.33538 5.9617 8.52589L5.19082 9.23265C4.93664 9.46569 4.93635 9.86872 5.19019 10.1021L7.2746 12.0187L5.19019 13.9354C4.93635 14.1688 4.93664 14.5718 5.19082 14.8049L5.9617 15.5116C6.16951 15.7021 6.48247 15.7161 6.7062 15.545L9.10971 13.7061L14.6276 18.7799C14.7149 18.8679 14.8175 18.9342 14.9277 18.9775ZM15.5021 8.81556L11.3153 12.0187L15.5021 15.2219V8.81556Z" fill="url(#paint0_linear_1367_41127)" fill-opacity="0.25"/>
</g>
</g>
<defs>
<linearGradient id="paint0_linear_1367_41127" x1="705.001" y1="4.99999" x2="705.001" y2="1408.75" gradientUnits="userSpaceOnUse">
<stop stop-color="white"/>
<stop offset="1" stop-color="white" stop-opacity="0"/>
</linearGradient>
<clipPath id="clip0_1367_41127">
<rect width="24" height="24" fill="white"/>
</clipPath>
</defs>
</svg>
