<svg width="24" height="24" viewBox="0 0 24 24" fill="none" xmlns="http://www.w3.org/2000/svg">
<g id="software-icon/webflow">
<g clip-path="url(#clip0_557_15496)">
<path id="Base" d="M24 0H0V24H24V0Z" fill="#4353FF"/>
<path id="Path" d="M16.868 10.7219C16.868 10.7219 15.5707 14.7629 15.4647 15.0966C15.138 12.564 14.8082 10.0318 14.4753 7.5C12.2647 7.5 11.0827 9.06263 10.458 10.712L8.748 15.1066C8.738 14.7914 8.508 10.7597 8.508 10.7597C8.372 8.73885 6.508 7.50861 5 7.50861L6.826 18.5C9.142 18.4901 10.3907 16.9367 11.0447 15.2873C11.0447 15.2873 12.438 11.7131 12.4953 11.5509C12.5053 11.7032 13.4953 18.4993 13.4953 18.4993C15.8207 18.4993 17.07 17.0413 17.742 15.4496L21 7.50927C18.7033 7.50927 17.4927 9.06263 16.868 10.7213V10.7219Z" fill="white"/>
</g>
</g>
<defs>
<clipPath id="clip0_557_15496">
<path d="M0 12C0 5.37258 5.37258 0 12 0C18.6274 0 24 5.37258 24 12C24 18.6274 18.6274 24 12 24C5.37258 24 0 18.6274 0 12Z" fill="white"/>
</clipPath>
</defs>
</svg>
