<svg
              viewBox="0 0 200 100"
              width="100%"
              height="100%"
              xmlns="http://www.w3.org/2000/svg"
            >
              <rect x="0" y="0" width="200" height="100" fill="#1A202C" />
              <rect x="45" y="20" width="15" height="15" fill="#48BB78" />
              <rect
                x="65"
                y="20"
                width="15"
                height="15"
                fill="#48BB78"
                opacity="0.5"
              />
              <rect x="85" y="20" width="15" height="15" fill="#48BB78" />
              <rect
                x="105"
                y="20"
                width="15"
                height="15"
                fill="#48BB78"
                opacity="0.3"
              />
              <rect x="125" y="20" width="15" height="15" fill="#48BB78" />

              <rect
                x="45"
                y="40"
                width="15"
                height="15"
                fill="#48BB78"
                opacity="0.2"
              />
              <rect x="65" y="40" width="15" height="15" fill="#48BB78" />
              <rect
                x="85"
                y="40"
                width="15"
                height="15"
                fill="#48BB78"
                opacity="0.4"
              />
              <rect x="105" y="40" width="15" height="15" fill="#48BB78" />
              <rect
                x="125"
                y="40"
                width="15"
                height="15"
                fill="#48BB78"
                opacity="0.7"
              />

              <rect x="45" y="60" width="15" height="15" fill="#48BB78" />
              <rect
                x="65"
                y="60"
                width="15"
                height="15"
                fill="#48BB78"
                opacity="0.6"
              />
              <rect x="85" y="60" width="15" height="15" fill="#48BB78" />
              <rect
                x="105"
                y="60"
                width="15"
                height="15"
                fill="#48BB78"
                opacity="0.5"
              />
              <rect
                x="125"
                y="60"
                width="15"
                height="15"
                fill="#48BB78"
                opacity="0.2"
              />

              <text
                x="100"
                y="95"
                fontFamily="Arial, sans-serif"
                fontWeight="bold"
                fontSize="16"
                fill="white"
                textAnchor="middle"
              >
                DEVMATRIX
              </text>
            </svg>